<?xml version="1.0" encoding="UTF-8" standalone="no"?>
<!-- Created with Inkscape (http://www.inkscape.org/) -->

<svg
   xmlns:dc="http://purl.org/dc/elements/1.1/"
   xmlns:cc="http://creativecommons.org/ns#"
   xmlns:rdf="http://www.w3.org/1999/02/22-rdf-syntax-ns#"
   xmlns:svg="http://www.w3.org/2000/svg"
   xmlns="http://www.w3.org/2000/svg"
   xmlns:sodipodi="http://sodipodi.sourceforge.net/DTD/sodipodi-0.dtd"
   xmlns:inkscape="http://www.inkscape.org/namespaces/inkscape"
   width="297mm"
   height="210mm"
   viewBox="0 0 297 210"
   version="1.1"
   id="svg6283"
   inkscape:version="0.92.2 (5c3e80d, 2017-08-06)"
   sodipodi:docname="fultang.svg">
  <defs
     id="defs6277" />
  <sodipodi:namedview
     id="base"
     pagecolor="#ffffff"
     bordercolor="#666666"
     borderopacity="1.0"
     inkscape:pageopacity="0.0"
     inkscape:pageshadow="2"
     inkscape:zoom="0.35"
     inkscape:cx="617.80965"
     inkscape:cy="426.45874"
     inkscape:document-units="mm"
     inkscape:current-layer="layer1"
     showgrid="false"
     inkscape:window-width="1366"
     inkscape:window-height="705"
     inkscape:window-x="-8"
     inkscape:window-y="-8"
     inkscape:window-maximized="1" />
  <metadata
     id="metadata6280">
    <rdf:RDF>
      <cc:Work
         rdf:about="">
        <dc:format>image/svg+xml</dc:format>
        <dc:type
           rdf:resource="http://purl.org/dc/dcmitype/StillImage" />
        <dc:title></dc:title>
      </cc:Work>
    </rdf:RDF>
  </metadata>
  <g
     inkscape:label="Layer 1"
     inkscape:groupmode="layer"
     id="layer1"
     transform="translate(0,-87)">
    <path
       style="fill:#000000;stroke-width:0.29759857"
       d="m 8.6074787,241.36774 c -0.25619,-0.14912 -0.46579,-0.55693 -0.46579,-0.90624 0,-0.6215 2.2328803,-3.63234 3.3032803,-4.45416 0.297251,-0.22823 1.520081,-1.25259 2.717391,-2.27636 1.19731,-1.02378 2.67534,-2.27115 3.28451,-2.77195 0.60917,-0.5008 2.14591,-1.76815 3.41499,-2.81633 1.26907,-1.04817 2.94667,-2.41399 3.72798,-3.03515 0.78132,-0.62115 2.42268,-1.95885 3.64747,-2.97266 1.2248,-1.01381 3.59076,-2.92595 5.2577,-4.24921 1.66694,-1.32325 3.97216,-3.15711 5.12271,-4.07524 1.15055,-0.91813 4.11989,-3.2716 6.59852,-5.22992 2.47864,-1.95832 6.93583,-5.48777 9.90487,-7.84322 5.61411,-4.45388 7.61267,-6.0138 15.17347,-11.84323 5.34509,-4.1211 5.68348,-4.37585 17.36196,-13.07062 9.898592,-7.36961 10.316832,-7.67948 21.19583,-15.70376 4.11472,-3.035 8.22015,-6.19067 9.12317,-7.01262 3.60336,-3.27984 5.75848,-4.44238 11.28379,-6.08687 5.36297,-1.59617 14.88992,-5.14153 18.21575,-6.77882 3.09072,-1.52153 6.17134,-3.55533 11.38011,-7.51305 20.859,-15.84906 43.62329,-27.50479 67.7394,-34.683808 12.31827,-3.666967 20.25626,-5.295027 31.3259,-6.424847 6.03843,-0.61631 26.37112,-0.96455 26.95369,-0.46164 0.22916,0.19782 0.64099,1.22173 0.91519,2.27537 0.74046,2.84533 0.5284,10.981005 -0.3371,12.932795 -2.02188,4.55956 -9.36966,9.64872 -18.19426,12.60156 -0.88269,0.29537 -1.70989,0.72222 -1.83823,0.94857 -0.12835,0.22635 -0.41504,0.41155 -0.6371,0.41155 -0.93892,0 -6.35207,2.00002 -9.05068,3.34399 -1.60488,0.79928 -4.88761,2.15275 -7.29494,3.00772 -2.40733,0.85496 -4.96785,1.76743 -5.69005,2.02769 -0.7222,0.26026 -2.00677,0.66611 -2.85459,0.90187 -1.56203,0.43438 -2.78427,0.9882 -8.81732,3.99532 -1.84562,0.91994 -4.53745,2.21157 -5.98185,2.8703 -1.4444,0.65873 -3.4611,1.68074 -4.48156,2.27113 -1.76368,1.02039 -1.95116,1.06361 -3.79337,0.87435 -1.06589,-0.1095 -3.58705,-0.23684 -5.60258,-0.28298 -2.01553,-0.0461 -3.80052,-0.17126 -3.96665,-0.27806 -0.16613,-0.10679 -0.74932,-0.0691 -1.29597,0.0837 -0.54665,0.15284 -2.30699,0.41565 -3.91188,0.58401 -5.33498,0.55967 -6.77296,0.98689 -11.95248,3.55106 -1.43557,0.7107 -4.57534,3.72262 -5.40459,5.18454 l -0.61925,1.09169 3.07926,3.14522 c 2.13506,2.1808 3.07925,3.35842 3.07925,3.84052 0,0.38242 0.16414,0.86627 0.36475,1.07523 0.5952,0.61995 0.36103,5.16541 -0.31459,6.10668 -1.02852,1.43289 -4.19419,2.97446 -7.18563,3.49914 -0.63448,0.11128 -1.67943,0.48135 -2.32208,0.82238 -0.77619,0.41188 -1.20526,0.50527 -1.27803,0.27817 -0.18591,-0.58009 -0.599,-0.37802 -0.69718,0.34104 -0.0663,0.48581 -0.29014,0.68291 -0.77544,0.68291 -0.38192,0 -0.9599,0.35104 -1.31309,0.79752 -0.34699,0.43863 -1.25461,1.07971 -2.01693,1.42463 -0.76232,0.34491 -1.38604,0.77622 -1.38604,0.95847 0,0.18226 -0.59857,0.59825 -1.33016,0.92444 -0.73158,0.32619 -2.66839,1.52516 -4.30401,2.66439 -1.63562,1.13923 -5.27177,3.64438 -8.08032,5.56701 -2.80855,1.92263 -7.2074,4.93523 -9.77522,6.69465 -28.14449,19.2841 -45.32055,27.86488 -77.90999,38.92213 -13.26651,4.50118 -17.44427,5.69103 -31.95184,9.10004 -14.11262,3.31622 -29.883761,5.81671 -31.3401513,4.96894 z m 4.7075413,-0.72786 c -0.097,-0.10085 -0.34864,-0.11163 -0.55928,-0.0239 -0.23278,0.0969 -0.16364,0.1688 0.17629,0.18337 0.3076,0.0132 0.47995,-0.0586 0.38299,-0.15942 z m -3.8145417,-0.65129 c 0.48016,-0.63466 1.1589207,-1.87637 0.7880907,-1.44169 -1.3475503,1.57954 -1.6321303,1.97284 -1.4274703,1.97284 0.13065,0 0.41837,-0.23902 0.6393796,-0.53115 z M 19.3759,239.75256 c 4.95168,-0.80709 12.84314,-2.32151 15.75707,-3.02389 3.9447,-0.95084 8.33805,-1.97931 11.08831,-2.59573 10.2777,-2.30358 32.26418,-9.58422 47.417122,-15.7018 9.970448,-4.02529 23.538558,-10.54236 29.119668,-13.98682 0.84963,-0.52436 1.59975,-0.95338 1.66693,-0.95338 0.17205,0 10.02422,-5.98954 12.83716,-7.80423 6.38819,-4.12117 20.86353,-13.97897 20.86353,-14.2082 0,-0.22277 0.18218,-0.3418 -6.14604,4.01543 -19.22194,13.23506 -32.69766,21.14619 -46.96113,27.56928 -4.54015,2.0445 -14.693248,6.26885 -17.94557,7.46652 -17.59956,6.48105 -31.12599,10.86425 -40.12218,13.0015 -1.36415,0.32408 -4.51557,1.07559 -7.00314,1.67002 -5.91446,1.4133 -13.70514,3.05071 -17.36196,3.64905 -5.19349,0.84978 -9.06011,1.59417 -8.46213,1.62911 0.32098,0.0188 2.68454,-0.30833 5.25236,-0.72686 z m -3.64747,-0.48253 c 1.84562,-0.32266 4.53745,-0.78105 5.98185,-1.01865 1.4444,-0.2376 5.25235,-0.98447 8.46213,-1.6597 5.40447,-1.13692 7.25279,-1.55382 11.52601,-2.59976 0.88268,-0.21606 3.04928,-0.73741 4.81466,-1.15856 7.43726,-1.77426 22.69933,-6.67622 34.72392,-11.15282 1.44439,-0.53774 4.39885,-1.63045 6.56544,-2.42826 3.683652,-1.35643 9.978572,-3.96419 16.77839,-6.9507 9.68113,-4.25201 25.7043,-13.25597 36.3288,-20.41438 6.00796,-4.04795 22.29232,-15.11259 26.90653,-18.28202 2.68169,-1.84201 5.93472,-4.03203 7.22896,-4.86669 1.29424,-0.83467 2.72369,-1.85903 3.17655,-2.27636 0.45285,-0.41733 1.7628,-1.35758 2.911,-2.08944 1.48711,-0.94789 2.08762,-1.50851 2.08762,-1.94895 0,-0.69001 0.78325,-1.72839 1.30372,-1.72839 0.18583,0 0.71291,-0.40717 1.17128,-0.90481 0.45837,-0.49765 1.33645,-1.26743 1.95128,-1.71062 0.61483,-0.44318 1.11788,-0.93092 1.11788,-1.08386 0,-0.15294 -1.0833,-1.40526 -2.40733,-2.78293 -3.00888,-3.13078 -3.87004,-4.38371 -4.30285,-6.26034 -0.88116,-3.82055 1.68837,-8.58254 6.15339,-11.40381 0.90993,-0.57495 1.83782,-1.04536 2.06197,-1.04536 0.22415,0 0.67782,-0.19691 1.00815,-0.43757 1.08886,-0.79329 3.71581,-1.69053 6.67829,-2.28098 5.95917,-1.18772 6.8172,-1.28991 11.67191,-1.39021 4.00903,-0.0828 5.22475,-0.008 6.33788,0.3905 l 1.37731,0.49299 1.54066,-1.07462 c 0.84736,-0.59103 2.00024,-1.35567 2.56195,-1.69918 1.06709,-0.65259 10.51818,-5.57891 14.29809,-7.45279 3.57064,-1.77015 10.27838,-4.16574 19.69634,-7.03434 12.89666,-3.92817 14.84313,-4.62072 18.82094,-6.69641 3.65192,-1.90565 6.0392,-3.60392 8.43976,-6.00393 l 1.77316,-1.77276 v -2.277968 c 0,-1.252884 -0.21209,-3.036847 -0.47132,-3.964357 l -0.47132,-1.6864 -9.23095,0.21272 c -8.87011,0.20441 -17.13344,0.73274 -22.07005,1.41107 -21.23079,2.917313 -48.19596,12.462285 -68.13475,24.117975 -1.36415,0.79745 -3.39284,1.98139 -4.50821,2.63098 -1.11536,0.64959 -2.43591,1.50476 -2.93456,1.90037 -0.49864,0.3956 -1.88398,1.25249 -3.07852,1.90419 -2.37546,1.29596 -8.30572,5.38117 -13.11432,9.03412 -7.46697,5.67245 -12.00219,8.34732 -17.8393,10.52163 -5.9866,2.22999 -9.97832,3.598 -13.21835,4.53008 -4.10176,1.17997 -7.04045,2.78626 -10.1088,5.52547 -1.35151,1.20653 -4.033,3.34645 -5.95886,4.75537 -5.30632,3.882 -7.20622,5.28271 -19.825478,14.61645 -6.410312,4.74135 -12.143372,8.91311 -12.740142,9.27058 -0.59676,0.35747 -2.1307,1.51842 -3.40876,2.57988 -4.43134,3.68035 -5.92034,4.847 -7.001,5.48543 -0.59735,0.3529 -1.48001,1.00651 -1.96148,1.45248 -0.8274,0.7664 -7.0229,5.70267 -10.47588,8.34667 -1.70971,1.30915 -5.94367,4.67251 -12.82283,10.18617 -2.38252,1.9096 -4.88824,3.88174 -5.56827,4.38254 -0.68003,0.5008 -2.01342,1.55783 -2.96308,2.34895 -0.94967,0.79113 -3.43369,2.80964 -5.52004,4.48558 -2.08635,1.67594 -4.44991,3.58967 -5.25236,4.25272 -0.80244,0.66306 -2.83773,2.30058 -4.52286,3.63893 -5.44076,4.32114 -9.881171,8.19716 -10.319811,9.00815 -0.30277,0.55978 0.32585,1.084 0.982291,0.81917 0.24073,-0.0971 1.94775,-0.44058 3.79337,-0.76324 z m 159.41575,-78.15004 c -0.0986,-0.26725 0.004,-0.60661 0.228,-0.75414 0.26396,-0.17385 0.28498,-0.26987 0.0598,-0.27289 -0.19114,-0.002 -0.42603,0.12746 -0.52197,0.28893 -0.22795,0.38366 -1.76738,0.0686 -3.1311,-0.6409 -0.59544,-0.30977 -1.33546,-0.56322 -1.64449,-0.56322 -0.30902,0 -0.93797,-0.20403 -1.39766,-0.4534 -0.45969,-0.24937 -1.03932,-0.45424 -1.28808,-0.45527 -0.24876,-9.1e-4 -0.57703,-0.11996 -0.7295,-0.2643 -0.15246,-0.14433 -1.45898,-0.49937 -2.90338,-0.78897 -1.4444,-0.28961 -2.8888,-0.63992 -3.20978,-0.77847 -0.32097,-0.13855 -1.56841,-0.54991 -2.77207,-0.91413 -4.36589,-1.32109 -5.11704,-1.55838 -5.72498,-1.80861 -0.34019,-0.14001 -1.22652,-0.34941 -1.96963,-0.46532 -0.74312,-0.11591 -1.35112,-0.31193 -1.35112,-0.43559 0,-0.12366 -1.01765,-0.52602 -2.26143,-0.89413 -1.24379,-0.36811 -2.58971,-0.81807 -2.99093,-0.99991 -0.81563,-0.36966 -2.37429,-0.70282 -5.3861,-1.15128 -1.11674,-0.16628 -2.24381,-0.37277 -2.5046,-0.45886 -0.64133,-0.21173 -0.60146,-1.00747 0.0615,-1.22632 0.49893,-0.16471 4.37413,0.30154 5.60436,0.67429 0.38966,0.11807 0.48153,0.0553 0.31912,-0.21804 -0.17152,-0.28867 -0.054,-0.32808 0.4741,-0.15894 0.3862,0.12369 1.35872,0.34684 2.16117,0.49587 0.80244,0.14904 2.57511,0.62543 3.93926,1.05866 1.36416,0.43322 3.13683,0.97705 3.93927,1.2085 1.35905,0.39199 4.39029,1.32224 6.41955,1.97008 0.48147,0.15371 2.05717,0.61459 3.50157,1.02418 1.4444,0.4096 3.34838,0.96612 4.23107,1.23672 0.88269,0.27059 2.5897,0.76933 3.79337,1.1083 1.20366,0.33897 2.58241,0.79998 3.06387,1.02447 0.48147,0.22448 1.17893,0.49917 1.54991,0.61042 1.06248,0.31862 2.65522,1.47343 2.66881,1.93499 0.015,0.51042 -1.09029,1.55318 -1.64634,1.55318 -0.22122,0 -0.48288,-0.21866 -0.58147,-0.4859 z m -0.28543,-1.59821 c 0.4931,-0.20187 0.48085,-0.2468 -0.1459,-0.53519 -1.13485,-0.52221 -11.71114,-3.89261 -13.23148,-4.21655 -0.48147,-0.10259 -1.99152,-0.5257 -3.35568,-0.94024 -2.37095,-0.7205 -3.2811,-1.00332 -10.15688,-3.15615 -5.02091,-1.57206 -5.19368,-0.95943 -0.20193,0.71607 2.40733,0.80803 4.70523,1.58302 5.10646,1.72221 2.19875,0.76278 6.84739,2.12635 8.75393,2.56776 1.20366,0.27868 2.71371,0.6876 3.35567,0.9087 0.64195,0.2211 1.75808,0.56694 2.48028,0.76852 0.7222,0.20157 1.64136,0.5119 2.04258,0.68961 0.40122,0.17771 0.97055,0.2895 1.26516,0.24842 0.29462,-0.0411 0.7569,0.13356 1.02729,0.38809 0.51579,0.48552 1.73324,1.06477 2.23041,1.0612 0.16049,-10e-4 0.53403,-0.10126 0.83009,-0.22245 z m -32.70898,-9.95398 c -0.20061,-0.0842 -0.52888,-0.0842 -0.72949,0 -0.20061,0.0842 -0.0365,0.15309 0.36475,0.15309 0.40122,0 0.56535,-0.0689 0.36474,-0.15309 z m 37.27715,-15.70647 c -2.19002,-0.81925 -2.23369,-3.08493 -0.0775,-4.02202 2.23343,-0.97066 5.91346,0.29015 5.91346,2.02601 0,0.79387 -1.20365,1.75398 -2.62617,2.0948 -1.6237,0.38901 -1.93106,0.37955 -3.20978,-0.0988 z m 2.40733,-0.69652 c -0.3611,-0.0723 -0.95199,-0.0723 -1.31309,0 -0.3611,0.0724 -0.0657,0.13154 0.65655,0.13154 0.7222,0 1.01764,-0.0592 0.65654,-0.13154 z m -2.76684,-0.69634 c -0.29538,-0.49197 -0.28697,-0.73648 0.0444,-1.28994 0.37425,-0.62509 0.36784,-0.64764 -0.0757,-0.26635 -0.569,0.48913 -0.62848,1.2852 -0.13442,1.7991 0.51569,0.5364 0.57839,0.44453 0.16572,-0.24281 z m 4.15288,-0.45527 c 0,-0.2504 -0.0516,-0.45528 -0.11468,-0.45528 -0.0631,0 -0.19026,0.20488 -0.28264,0.45528 -0.0924,0.2504 -0.0408,0.45527 0.11468,0.45527 0.15545,0 0.28264,-0.20487 0.28264,-0.45527 z m -0.91948,-0.117 c 0.27566,-0.1817 0.0751,-0.32161 -0.6693,-0.46687 -1.14392,-0.22321 -2.20459,-0.005 -2.20459,0.45256 0,0.35404 2.34083,0.36569 2.87389,0.0143 z m 32.65247,-14.17004 c -0.66622,-0.37595 -0.80244,-0.65608 -0.80244,-1.65019 0,-1.66535 0.9366,-2.2814 3.42304,-2.25148 2.24149,0.027 3.3853,0.74125 3.52515,2.20139 0.0763,0.79669 -0.0646,1.04812 -0.8754,1.56231 -1.17779,0.74691 -4.05762,0.8223 -5.27035,0.13797 z m 3.35969,-0.34357 c -0.35889,-0.072 -1.01544,-0.0739 -1.45899,-0.004 -0.44355,0.0698 -0.14991,0.12871 0.65253,0.13099 0.80245,0.002 1.16535,-0.0548 0.80646,-0.12684 z m 1.6816,-1.98803 c -0.38675,-0.37494 -0.53122,-0.44342 -0.32104,-0.15217 0.21018,0.29124 0.30767,0.82574 0.21665,1.18777 -0.15448,0.61447 -0.13313,0.62459 0.32105,0.15217 0.45418,-0.47242 0.43977,-0.5514 -0.21666,-1.18777 z m -4.56441,-0.22644 c 0.28291,-0.39561 0.25866,-0.40069 -0.18508,-0.0387 -0.28085,0.22911 -0.50028,0.63885 -0.48761,0.91054 0.0193,0.41322 0.0495,0.41955 0.18508,0.0387 0.0891,-0.2504 0.30855,-0.66015 0.48761,-0.91055 z m 3.53534,0.91055 c -0.0992,-0.16693 -0.76348,-0.30352 -1.47621,-0.30352 -0.71273,0 -1.29587,0.13659 -1.29587,0.30352 0,0.16693 0.6643,0.30351 1.47621,0.30351 0.90984,0 1.40702,-0.11645 1.29587,-0.30351 z m -0.65253,-1.42771 c -0.35889,-0.072 -1.01544,-0.0739 -1.45899,-0.004 -0.44355,0.0698 -0.14991,0.12871 0.65253,0.13099 0.80245,0.002 1.16535,-0.0548 0.80646,-0.12684 z m 26.12717,-6.73884 c -1.56563,-0.33539 -2.03003,-0.84638 -1.92673,-2.12 0.11027,-1.35956 0.93593,-1.84382 3.15158,-1.84843 2.13063,-0.004 3.50157,0.8207 3.50157,2.10753 0,1.53722 -2.19787,2.40257 -4.72642,1.8609 z m -0.7336,-1.54754 c -0.0842,-0.33476 0.0266,-0.83515 0.24617,-1.11199 0.36154,-0.45588 0.33727,-0.46903 -0.25736,-0.13947 -0.74997,0.41567 -0.766,0.47323 -0.35448,1.27303 0.39093,0.75979 0.55961,0.74984 0.36567,-0.0216 z m 3.12564,-0.3019 c 0,-0.16693 -0.55807,-0.30142 -1.24014,-0.29887 -0.90821,0.003 -1.12299,0.0834 -0.80245,0.29887 0.57615,0.38729 2.04259,0.38729 2.04259,0 z m 1.21634,-0.67731 c -0.21653,-0.22523 -0.25451,-0.10672 -0.12759,0.39812 0.10319,0.41042 0.23546,0.548 0.3083,0.32068 0.0702,-0.21896 -0.0111,-0.54243 -0.18071,-0.7188 z m -1.87289,-0.74597 c -0.28085,-0.0763 -0.74044,-0.0763 -1.02129,0 -0.28086,0.0763 -0.0511,0.1388 0.51065,0.1388 0.56171,0 0.7915,-0.0625 0.51064,-0.1388 z m 16.12385,-2.43687 c -2.62694,-1.43219 -2.72344,-3.464861 -0.22057,-4.646565 2.35958,-1.114064 7.34848,-0.589727 8.92503,0.938024 0.52201,0.505847 0.64335,0.908777 0.5736,1.904651 -0.0795,1.135 -0.20681,1.32449 -1.25565,1.86877 -0.83854,0.43514 -1.90667,0.63431 -3.79337,0.70734 -2.42674,0.0939 -2.74791,0.0353 -4.22904,-0.77222 z m 6.20669,-0.0379 c 0.28527,-0.11727 -0.75277,-0.21321 -2.30675,-0.21321 -1.55397,0 -2.50957,0.0919 -2.12355,0.20428 0.93225,0.27134 3.77797,0.27707 4.4303,0.009 z m 0.8392,-1.59015 c 0.76081,-0.42352 0.52114,-0.646377 -1.67313,-1.555744 -1.15039,-0.476757 -1.97121,-0.652184 -2.33439,-0.498907 -0.30806,0.13002 -1.11818,0.38322 -1.80026,0.562657 -1.29955,0.34189 -1.49741,0.613467 -0.85254,1.170154 1.05243,0.90851 5.2427,1.11099 6.66032,0.32184 z m 1.09474,-1.296624 c -0.64131,-0.614097 -0.65161,-0.615257 -0.18034,-0.0204 0.27489,0.347007 0.51018,0.825034 0.52285,1.062294 0.0187,0.34949 0.0529,0.35336 0.18035,0.0204 0.0865,-0.22605 -0.14877,-0.704087 -0.52286,-1.062294 z m -8.68903,-0.423657 c 0.36296,-0.481387 0.35263,-0.492117 -0.11017,-0.11459 -0.48607,0.396497 -0.64064,0.645737 -0.40048,0.645737 0.0606,0 0.29038,-0.23901 0.51065,-0.531147 z m 6.96592,-0.682897 c -0.24073,-0.16183 -0.63466,-0.28672 -0.87539,-0.27754 -0.28861,0.011 -0.23891,0.10554 0.1459,0.27754 0.80217,0.358537 1.26289,0.358537 0.72949,0 z m -4.08517,-0.303517 c 0.38906,-0.26153 0.38906,-0.29237 0,-0.27753 -0.24073,0.009 -0.70031,0.13406 -1.02129,0.27753 l -0.58359,0.260847 0.58359,0.0167 c 0.32098,0.009 0.78056,-0.11571 1.02129,-0.277527 z M 12.08096,236.87756 c 0.29048,-0.33386 0.46249,-0.60703 0.38224,-0.60703 -0.0802,0 -0.38356,0.27317 -0.67404,0.60703 -0.290481,0.33387 -0.462491,0.60703 -0.382251,0.60703 0.0802,0 0.383561,-0.27316 0.674051,-0.60703 z m 13.42269,-11.23004 c 0.29048,-0.33387 0.46249,-0.60703 0.38224,-0.60703 -0.0803,0 -0.38356,0.27316 -0.67404,0.60703 -0.29048,0.33386 -0.46249,0.60703 -0.38225,0.60703 0.0802,0 0.38357,-0.27317 0.67405,-0.60703 z m 2.2257,-1.74521 c 0.36296,-0.4814 0.35264,-0.49213 -0.11017,-0.1146 -0.28086,0.22911 -0.51065,0.46813 -0.51065,0.53115 0,0.24981 0.23962,0.089 0.62082,-0.41655 z m 1.45899,-1.21406 c 0.36296,-0.4814 0.35264,-0.49213 -0.11017,-0.1146 -0.28086,0.22911 -0.51065,0.46813 -0.51065,0.53115 0,0.24981 0.23962,0.089 0.62082,-0.41655 z m 7.87854,-6.37381 c 0.36295,-0.4814 0.35263,-0.49213 -0.11018,-0.1146 -0.28085,0.22911 -0.51064,0.46813 -0.51064,0.53115 0,0.24981 0.23962,0.089 0.62082,-0.41655 z m 9.62932,-7.58787 c 0.36296,-0.4814 0.35263,-0.49213 -0.11017,-0.1146 -0.28086,0.22911 -0.51065,0.46813 -0.51065,0.53115 0,0.24981 0.23962,0.089 0.62082,-0.41655 z m 2.62618,-2.12461 c 0.36295,-0.48139 0.35263,-0.49213 -0.11018,-0.11459 -0.28085,0.22911 -0.51064,0.46812 -0.51064,0.53115 0,0.2498 0.23962,0.089 0.62082,-0.41656 z m 4.96056,-3.94569 c 0.36295,-0.48139 0.35263,-0.49213 -0.11018,-0.1146 -0.28085,0.22911 -0.51064,0.46813 -0.51064,0.53116 0,0.2498 0.23962,0.089 0.62082,-0.41656 z m 4.48564,-3.41454 c 0.29048,-0.33387 0.46249,-0.60703 0.38225,-0.60703 -0.0802,0 -0.38357,0.27316 -0.67405,0.60703 -0.29048,0.33386 -0.46249,0.60703 -0.38225,0.60703 0.0802,0 0.38357,-0.27317 0.67405,-0.60703 z m 2.91797,-2.42812 c 0.29049,-0.33387 0.4625,-0.60703 0.38225,-0.60703 -0.0802,0 -0.38356,0.27316 -0.67404,0.60703 -0.29049,0.33387 -0.4625,0.60703 -0.38225,0.60703 0.0802,0 0.38356,-0.27316 0.67404,-0.60703 z m 2.22571,-1.74521 c 0.36296,-0.48139 0.35264,-0.49213 -0.11017,-0.1146 -0.28086,0.22911 -0.51065,0.46813 -0.51065,0.53115 0,0.24981 0.23962,0.089 0.62082,-0.41655 z m 1.16719,-0.91055 c 0.36296,-0.48139 0.35264,-0.49212 -0.11017,-0.11459 -0.28086,0.22911 -0.51065,0.46813 -0.51065,0.53115 0,0.24981 0.23962,0.089 0.62082,-0.41656 z m 2.44306,-1.89696 c 0.29048,-0.33387 0.46249,-0.60703 0.38225,-0.60703 -0.0802,0 -0.38357,0.27316 -0.67405,0.60703 -0.29048,0.33386 -0.46249,0.60703 -0.38225,0.60703 0.0802,0 0.38357,-0.27317 0.67405,-0.60703 z m 4.26828,-3.26279 c 0.36296,-0.48139 0.35264,-0.49213 -0.11017,-0.11459 -0.28085,0.22911 -0.51064,0.46812 -0.51064,0.53115 0,0.2498 0.23962,0.089 0.62081,-0.41656 z m 89.10698,-9.38753 c 0.48147,-0.42055 0.67594,-0.64863 0.43217,-0.50685 -0.84315,0.49038 -2.91245,2.00828 -2.91245,2.13637 0,0.20627 1.52748,-0.79727 2.48028,-1.62952 z m 4.15812,-2.77217 c 0.84256,-0.57929 1.53194,-1.11792 1.53194,-1.19695 0,-0.079 -0.3611,0.1003 -0.80245,0.3985 -2.71574,1.83498 -3.86632,2.66597 -3.86632,2.79241 0,0.14486 0.34403,-0.0738 3.13683,-1.99396 z m -75.173638,-1.49846 c 0.36296,-0.4814 0.35264,-0.49213 -0.11017,-0.1146 -0.28086,0.22911 -0.51065,0.46813 -0.51065,0.53115 0,0.24981 0.23962,0.089 0.62082,-0.41655 z m 83.523118,-4.0594 c 0.9411,-0.64693 1.86026,-1.18053 2.04258,-1.18577 0.18233,-0.005 0.56695,-0.34606 0.85473,-0.75735 0.51569,-0.73705 0.50519,-0.73544 -0.7295,0.11179 -0.68899,0.47278 -2.76277,1.86164 -4.60839,3.08636 -1.84562,1.22471 -3.55264,2.42311 -3.79337,2.66309 -0.46224,0.4608 3.34346,-1.93113 6.23395,-3.91812 z m -74.477398,-2.61793 c 0.36296,-0.48139 0.35264,-0.49213 -0.11017,-0.11459 -0.48606,0.3965 -0.64063,0.64574 -0.40047,0.64574 0.0606,0 0.29038,-0.23902 0.51064,-0.53115 z m 79.952578,-1.51757 c 0.36296,-0.4814 0.35264,-0.49213 -0.11017,-0.1146 -0.28086,0.22911 -0.51065,0.46813 -0.51065,0.53115 0,0.24981 0.23962,0.089 0.62082,-0.41655 z m 6.38232,-1.28994 c 0.24074,-0.16182 0.30639,-0.29422 0.1459,-0.29422 -0.16049,0 -0.48876,0.1324 -0.72949,0.29422 -0.24073,0.16182 -0.30639,0.29422 -0.1459,0.29422 0.16049,0 0.48876,-0.1324 0.72949,-0.29422 z m 0.36995,-1.27151 c 2.09184,-0.78009 3.46749,-2.40282 3.55075,-4.1885 l 0.055,-1.18025 -1.03952,0.92762 c -0.57174,0.51019 -2.0803,1.9528 -3.35236,3.20579 -2.43549,2.39899 -2.41607,2.4295 0.7861,1.23534 z m 4.59061,-4.27429 c 0,-1.32365 -0.13476,-2.08408 -0.41171,-2.32316 -0.28146,-0.24297 -0.47155,-0.25472 -0.60082,-0.0372 -0.104,0.17504 0.0156,0.31826 0.26582,0.31826 0.73531,0 0.63465,3.62616 -0.12868,4.63554 -0.84214,1.11361 -0.71945,1.34575 0.1459,0.27605 0.61397,-0.75896 0.72949,-1.2134 0.72949,-2.86952 z m -5.09752,1.5904 0.84762,-0.92024 -0.93892,0.4872 c -0.51641,0.26796 -0.93893,0.68207 -0.93893,0.92025 0,0.593 0.0625,0.56345 1.03023,-0.48721 z m 1.74185,-1.81138 c 0.29048,-0.33387 0.46249,-0.60703 0.38225,-0.60703 -0.0802,0 -0.38356,0.27316 -0.67405,0.60703 -0.29048,0.33386 -0.46249,0.60703 -0.38225,0.60703 0.0803,0 0.38357,-0.27317 0.67405,-0.60703 z m 1.45899,-1.21406 c 0.29048,-0.33387 0.46249,-0.60703 0.38225,-0.60703 -0.0802,0 -0.38357,0.27316 -0.67405,0.60703 -0.29048,0.33386 -0.46249,0.60703 -0.38225,0.60703 0.0803,0 0.38357,-0.27317 0.67405,-0.60703 z m -71.0155,-3.86982 c 0.36295,-0.48139 0.35263,-0.49212 -0.11018,-0.11459 -0.48606,0.3965 -0.64063,0.64574 -0.40047,0.64574 0.0606,0 0.29038,-0.23901 0.51065,-0.53115 z m 1.87782,-1.66933 0.85703,-0.98642 -0.94834,0.89145 c -0.88399,0.83096 -1.08247,1.0814 -0.85704,1.0814 0.0502,0 0.47698,-0.44389 0.94835,-0.98643 z m 67.53279,0.2648 c 0,-0.063 -0.22979,-0.30204 -0.51064,-0.53115 -0.46281,-0.37753 -0.47313,-0.3668 -0.11017,0.11459 0.38119,0.50558 0.62081,0.66637 0.62081,0.41656 z m -60.81635,-4.66666 c -0.13349,-0.13885 -1.92014,0.78252 -1.92014,0.9902 0,0.0765 0.45793,-0.0881 1.01763,-0.3657 0.55969,-0.27762 0.96582,-0.55864 0.90251,-0.6245 z m 1.72733,-0.3785 c 0.36785,-0.16442 0.42179,-0.26085 0.1459,-0.26085 -0.24073,0 -0.70032,0.11739 -1.02129,0.26085 -0.36785,0.16442 -0.42179,0.26085 -0.1459,0.26085 0.24073,0 0.70031,-0.11738 1.02129,-0.26085 z m 55.61287,-0.39847 c -0.17447,-0.18148 -0.33823,-1.0197 -0.36392,-1.86271 -0.0365,-1.1992 -0.0732,-1.30601 -0.16836,-0.49084 -0.16302,1.39606 0.16529,3.12336 0.54703,2.87796 0.20664,-0.13284 0.20197,-0.299 -0.0147,-0.52441 z m -53.03228,-0.23237 c 0.61688,-0.17817 1.07191,-0.37564 1.01118,-0.43881 -0.0607,-0.0632 -0.76242,0.0712 -1.5593,0.2985 -0.79688,0.22735 -1.25191,0.42481 -1.01118,0.43881 0.24073,0.014 0.94242,-0.12033 1.5593,-0.2985 z m 5.15205,-1.79727 c 0.53339,-0.35855 0.0727,-0.35855 -0.7295,0 -0.3848,0.17199 -0.4345,0.26653 -0.1459,0.27753 0.24074,0.009 0.63466,-0.11571 0.8754,-0.27753 z m 53.686,-4.37732 c 1.12516,-0.615 2.7253,-1.32808 3.55586,-1.58464 0.83057,-0.25656 1.79847,-0.66298 2.15089,-0.90317 0.35241,-0.24018 1.70407,-0.56284 3.00368,-0.71702 1.2996,-0.15417 2.86227,-0.42018 3.47258,-0.59112 0.61032,-0.17094 4.04891,-0.3617 7.64131,-0.42391 l 6.53164,-0.11311 0.0494,-1.72267 c 0.03,-1.04439 -0.0907,-1.84367 -0.30655,-2.02998 -0.89304,-0.77091 -16.32517,0.25117 -18.36145,1.21609 -0.32098,0.1521 -1.4371,0.56135 -2.48028,0.90944 -2.67523,0.89268 -5.99391,2.88493 -7.61564,4.57178 -1.52366,1.58484 -2.88907,4.09799 -2.88907,5.31756 0,0.72287 0.12892,0.64134 1.60092,-1.01245 1.02858,-1.1556 2.33231,-2.19839 3.64667,-2.9168 z m -3.05911,3.77029 c 0.29048,-0.33387 0.46249,-0.60703 0.38225,-0.60703 -0.0803,0 -0.38357,0.27316 -0.67405,0.60703 -0.29048,0.33386 -0.46249,0.60703 -0.38225,0.60703 0.0802,0 0.38357,-0.27317 0.67405,-0.60703 z m -47.12532,-0.60703 c 0.5334,-0.35855 0.0727,-0.35855 -0.72949,0 -0.38481,0.17199 -0.43451,0.26653 -0.1459,0.27753 0.24073,0.009 0.63466,-0.11571 0.87539,-0.27753 z m 48.47563,-0.83467 c 0.36296,-0.48139 0.35264,-0.49213 -0.11017,-0.11459 -0.28086,0.2291 -0.51065,0.46812 -0.51065,0.53115 0,0.2498 0.23962,0.089 0.62082,-0.41656 z m -3.42251,-1.51757 c 0.26526,-0.54254 0.41664,-0.98643 0.3364,-0.98643 -0.16807,0 -1.03628,1.68263 -1.03628,2.00836 0,0.31691 0.15823,0.0859 0.69988,-1.02193 z m -39.50897,0.17643 c 0.3042,-0.1955 0.2152,-0.21939 -0.29179,-0.0783 -0.40122,0.11163 -0.92646,0.32954 -1.16719,0.48425 -0.3042,0.1955 -0.2152,0.21939 0.29179,0.0783 0.40123,-0.11163 0.92646,-0.32954 1.16719,-0.48425 z m 4.24825,-1.93839 c 0.53408,-0.44506 0.52477,-0.45138 -0.16308,-0.11064 -0.8932,0.44247 -1.05874,0.58266 -0.688,0.58266 0.15657,0 0.53955,-0.21241 0.85108,-0.47202 z m 36.64065,-0.36265 c 0.36295,-0.48139 0.35263,-0.49213 -0.11018,-0.11459 -0.28085,0.22911 -0.51064,0.46812 -0.51064,0.53115 0,0.2498 0.23962,0.089 0.62082,-0.41656 z m 12.13925,-0.86628 c -0.097,-0.10086 -0.34864,-0.11164 -0.55928,-0.0239 -0.23278,0.0969 -0.16364,0.16881 0.17629,0.18337 0.3076,0.0132 0.47995,-0.0585 0.38299,-0.15941 z m 3.79944,-0.63288 c -0.28085,-0.0763 -0.74043,-0.0763 -1.02129,0 -0.28085,0.0764 -0.0511,0.13881 0.51065,0.13881 0.56171,0 0.7915,-0.0625 0.51064,-0.13881 z m 18.16441,-0.56024 c 0,-0.36034 -0.83236,-0.0885 -0.98351,0.32122 -0.13914,0.37716 -0.0643,0.40314 0.40648,0.14108 0.31737,-0.17667 0.57703,-0.38471 0.57703,-0.4623 z m -16.26217,0.26686 c -0.19755,-0.0831 -0.59148,-0.0882 -0.87539,-0.0113 -0.28391,0.077 -0.12227,0.14498 0.35919,0.15116 0.48147,0.006 0.71376,-0.0568 0.5162,-0.13991 z m 6.5599,-0.31365 c -0.28086,-0.0763 -0.74044,-0.0763 -1.0213,0 -0.28085,0.0763 -0.0511,0.13881 0.51065,0.13881 0.56171,0 0.7915,-0.0625 0.51065,-0.13881 z m 2.77207,0.008 c -0.20061,-0.0842 -0.52888,-0.0842 -0.72949,0 -0.20061,0.0842 -0.0365,0.15309 0.36475,0.15309 0.40122,0 0.56535,-0.0689 0.36474,-0.15309 z m 2.19189,-0.008 c -0.27899,-0.076 -0.80422,-0.0787 -1.16719,-0.006 -0.36297,0.0726 -0.13471,0.13475 0.50724,0.13812 0.64196,0.003 0.93893,-0.056 0.65995,-0.13199 z m 2.90521,-2.22224 c -0.0699,-1.17 -0.24415,-2.16022 -0.38716,-2.20048 -0.14301,-0.0403 -0.2986,0.917 -0.34576,2.12726 -0.0726,1.86313 -0.0132,2.20049 0.38717,2.20049 0.40312,0 0.45414,-0.31393 0.34575,-2.12727 z m -28.51386,1.04359 c 0,-0.0835 -0.26261,-0.006 -0.58359,0.17312 -0.32098,0.17868 -0.5836,0.39316 -0.5836,0.47663 0,0.0835 0.26262,0.006 0.5836,-0.17312 0.32098,-0.17868 0.58359,-0.39316 0.58359,-0.47663 z m 31.75365,-0.74414 c 1.68678,-0.93364 9.30575,-4.72189 14.38117,-7.15051 1.54158,-0.73766 3.14237,-1.34119 3.5573,-1.34119 0.41494,0 0.82493,-0.11864 0.91109,-0.26365 0.0862,-0.14501 0.68299,-0.35119 1.32629,-0.45819 0.6433,-0.107 1.5982,-0.38729 2.122,-0.62287 0.98453,-0.4428 3.45359,-1.4388 6.49651,-2.62064 1.97986,-0.76896 4.14731,-1.74736 6.71135,-3.02956 0.96293,-0.48153 2.93257,-1.28312 4.37696,-1.7813 11.62033,-4.00796 16.5982,-6.58049 20.58495,-10.63817 1.67632,-1.70614 2.88497,-3.7855 2.89836,-4.98633 0.004,-0.40449 -0.29574,-0.16321 -1.0133,0.81429 -1.07106,1.45905 -4.60639,4.06897 -7.58833,5.60201 -4.0624,2.08852 -9.27054,3.92868 -21.30122,7.52623 -3.69124,1.1038 -8.15575,2.55532 -9.92112,3.2256 -1.76538,0.67029 -3.80067,1.43076 -4.52287,1.68994 -2.41209,0.86563 -18.21827,9.10441 -19.62339,10.22844 -1.37898,1.10313 -1.38604,1.11799 -1.38604,2.91597 0,0.99395 0.075,1.80719 0.16655,1.80719 0.0916,0 0.91228,-0.41277 1.82374,-0.91726 z m -30.72463,0.0653 c -0.0898,-0.0934 -0.3253,-1.9e-4 -0.52323,0.20723 -0.28604,0.29976 -0.25253,0.33462 0.16334,0.16991 0.28778,-0.11398 0.44973,-0.28369 0.35989,-0.37714 z m 3.05615,-1.27268 c 0.24073,-0.16182 0.30639,-0.29422 0.1459,-0.29422 -0.16049,0 -0.48876,0.1324 -0.72949,0.29422 -0.24074,0.16182 -0.30639,0.29422 -0.1459,0.29422 0.16048,0 0.48876,-0.1324 0.72949,-0.29422 z m 3.13075,-1.09392 c -0.097,-0.10085 -0.34864,-0.11163 -0.55928,-0.0239 -0.23278,0.0969 -0.16364,0.1688 0.17629,0.18337 0.3076,0.0132 0.47995,-0.0586 0.38299,-0.15941 z m 34.51115,-1.3342 c 0.88268,-0.48504 1.47357,-0.8819 1.31309,-0.8819 -0.16049,0 -1.014,0.39686 -1.89669,0.8819 -0.88269,0.48505 -1.47358,0.88191 -1.31309,0.88191 0.16049,0 1.014,-0.39686 1.89669,-0.88191 z m -29.39862,0.39283 c -0.3611,-0.0723 -0.95199,-0.0723 -1.31309,0 -0.3611,0.0724 -0.0657,0.13154 0.65655,0.13154 0.7222,0 1.01764,-0.0592 0.65654,-0.13154 z m 3.11251,-0.58485 c 0.25071,-0.2299 -1.3122,-0.0578 -1.87237,0.2062 -0.40673,0.19167 -0.22987,0.219 0.5836,0.0902 0.64195,-0.10168 1.2219,-0.23504 1.28877,-0.29636 z m 11.55033,0.19202 c -0.0992,-0.16693 -0.33673,-0.30142 -0.52787,-0.29886 -0.20882,0.003 -0.17283,0.12208 0.0902,0.29886 0.56058,0.37683 0.66159,0.37683 0.4377,0 z m 1.38603,0.10251 c -0.20061,-0.0842 -0.52888,-0.0842 -0.72949,0 -0.20061,0.0842 -0.0365,0.15309 0.36475,0.15309 0.40122,0 0.56535,-0.0689 0.36474,-0.15309 z m -56.35267,-0.63366 c 0.36296,-0.48139 0.35264,-0.49213 -0.11017,-0.11459 -0.28085,0.22911 -0.51065,0.46812 -0.51065,0.53115 0,0.2498 0.23963,0.089 0.62082,-0.41656 z m 50.73557,0.11147 c 0.40122,-0.053 -0.7149,-0.1007 -2.48028,-0.10596 -1.76538,-0.005 -2.83144,0.0767 -2.36903,0.18216 0.78788,0.17967 3.19959,0.14177 4.84931,-0.0762 z m 2.99093,-0.0848 c -0.20062,-0.0842 -0.52889,-0.0842 -0.7295,0 -0.20061,0.0842 -0.0365,0.15309 0.36475,0.15309 0.40122,0 0.56536,-0.0689 0.36475,-0.15309 z m 20.06108,-1.46832 c 0.7222,-0.40225 1.18178,-0.73136 1.02129,-0.73136 -0.16048,0 -0.88268,0.32911 -1.60488,0.73136 -0.7222,0.40224 -1.18178,0.73136 -1.02129,0.73136 0.16048,0 0.88268,-0.32912 1.60488,-0.73136 z m 2.62618,-1.21406 c 0.40122,-0.23857 0.59819,-0.43376 0.4377,-0.43376 -0.16049,0 -0.62007,0.19519 -1.02129,0.43376 -0.40123,0.23857 -0.59819,0.43376 -0.4377,0.43376 0.16049,0 0.62007,-0.19519 1.02129,-0.43376 z m 3.64747,-1.21528 0.8754,-0.42911 -0.8754,0.18442 c -0.48146,0.10143 -1.13801,0.29204 -1.45899,0.42356 l -0.58359,0.23914 0.58359,0.006 c 0.32098,0.003 0.97753,-0.18755 1.45899,-0.42357 z m 8.32088,-2.99038 c 2.00355,-0.72724 4.69927,-1.87566 5.99047,-2.55205 1.29121,-0.67638 3.65477,-1.65966 5.25236,-2.18506 1.59759,-0.5254 3.36429,-1.20092 3.926,-1.50115 0.56171,-0.30023 1.39789,-0.64072 1.85817,-0.75665 0.46028,-0.11593 0.77455,-0.27561 0.69838,-0.35484 -0.0762,-0.0792 -1.50325,0.34624 -3.17126,0.9455 -1.66802,0.59926 -3.75496,1.33511 -4.63765,1.63524 -0.88268,0.30013 -1.99881,0.75893 -2.48028,1.01957 -1.47902,0.80066 -4.58187,2.22049 -6.34659,2.90414 -3.49638,1.35449 -4.88761,1.93832 -4.88761,2.05106 0,0.17675 -0.086,0.20404 3.79801,-1.20576 z m -73.08415,-3.4901 c 0.66052,-0.54935 0.69065,-0.6121 0.13009,-0.27095 -1.97365,1.20117 -3.79336,2.41753 -3.79336,2.53561 0,0.20497 2.70323,-1.46619 3.66327,-2.26466 z m 6.54964,-3.83169 c 1.68513,-0.95177 3.19519,-1.87458 3.35568,-2.05069 0.16048,-0.17611 -0.75868,0.26875 -2.04259,0.98858 -4.25905,2.38785 -6.41618,3.67737 -6.71134,4.01199 -0.16049,0.18195 0.29909,-0.018 1.02129,-0.44429 0.7222,-0.4263 2.69183,-1.55382 4.37696,-2.50559 z m 68.42655,-0.7649 c 0.36785,-0.16442 0.42179,-0.26085 0.1459,-0.26085 -0.24073,0 -0.70032,0.11738 -1.02129,0.26085 -0.36786,0.16442 -0.42179,0.26085 -0.1459,0.26085 0.24073,0 0.70031,-0.11738 1.02129,-0.26085 z m 18.53535,-0.18975 c 0.65186,-0.2713 1.13324,-0.54732 1.06973,-0.61338 -0.0635,-0.0661 -0.69267,0.14627 -1.39814,0.47183 -1.56218,0.72092 -1.31729,0.82647 0.32841,0.14155 z m 2.91178,-1.32783 c 0.56171,-0.31987 0.88998,-0.58158 0.72949,-0.58158 -0.16049,0 -0.75138,0.26171 -1.31309,0.58158 -0.56171,0.31988 -0.88998,0.58159 -0.72949,0.58159 0.16049,0 0.75138,-0.26171 1.31309,-0.58159 z m -80.37858,-2.84649 c 14.52294,-7.46956 29.43771,-12.88093 47.69724,-17.305495 3.54815,-0.85977 12.6774,-2.27416 17.81667,-2.76031 3.33651,-0.31562 8.82492,-0.50641 15.73609,-0.54702 l 10.61264,-0.0624 0.37889,1.51757 c 0.75212,3.012496 0.55917,10.499095 -0.31923,12.385985 -0.70372,1.51166 -3.86942,4.7377 -6.19688,6.31499 -1.0149,0.68779 -1.84527,1.31083 -1.84527,1.38454 0,0.49379 4.27866,-2.79082 6.00576,-4.61046 2.69015,-2.8343 3.04362,-3.81544 3.24597,-9.00991 0.13618,-3.495989 0.077,-4.671785 -0.30345,-6.033175 -0.82954,-2.9681 -0.25457,-2.8322 -11.06471,-2.61528 -12.83979,0.25764 -19.12985,0.80718 -28.54716,2.49405 -11.71911,2.09919 -28.73304,7.449915 -42.49839,13.365385 -3.3482,1.43884 -14.23516,6.83448 -15.5445,7.70394 -1.51999,1.00934 -0.92027,0.73318 4.82633,-2.22245 z m 64.25068,2.66381 c -0.097,-0.10085 -0.34864,-0.11164 -0.55928,-0.024 -0.23278,0.0969 -0.16364,0.16881 0.17629,0.18337 0.30761,0.0132 0.47995,-0.0586 0.38299,-0.15941 z m 1.68391,-0.42366 c 0.36785,-0.16441 0.42179,-0.26084 0.1459,-0.26084 -0.24073,0 -0.70031,0.11738 -1.02129,0.26084 -0.36785,0.16442 -0.42179,0.26085 -0.1459,0.26085 0.24073,0 0.70032,-0.11738 1.02129,-0.26085 z m 17.52699,-0.94273 c 0.0902,-0.15176 -0.20551,-0.11237 -0.65708,0.0875 -1.21105,0.53613 -1.54152,0.92616 -0.44909,0.53005 0.51822,-0.1879 1.01599,-0.46582 1.10617,-0.61758 z m -15.12573,0.15233 c -0.097,-0.10085 -0.34864,-0.11164 -0.55928,-0.024 -0.23278,0.0969 -0.16364,0.16881 0.17629,0.18337 0.3076,0.0132 0.47995,-0.0585 0.38299,-0.15941 z m 1.16719,-0.30351 c -0.097,-0.10086 -0.34864,-0.11164 -0.55928,-0.024 -0.23278,0.0969 -0.16364,0.16881 0.17629,0.18338 0.3076,0.0132 0.47995,-0.0586 0.38299,-0.15941 z m 2.04258,-0.60703 c -0.097,-0.10086 -0.34864,-0.11164 -0.55928,-0.024 -0.23278,0.0969 -0.16363,0.16881 0.17629,0.18338 0.30761,0.0132 0.47995,-0.0586 0.38299,-0.15941 z m 2.62618,-0.91055 c -0.097,-0.10085 -0.34864,-0.11164 -0.55928,-0.024 -0.23278,0.0969 -0.16364,0.16881 0.17629,0.18337 0.30761,0.0132 0.47995,-0.0586 0.38299,-0.15941 z m 16.74871,-9.75673 c 0.36296,-0.4814 0.35264,-0.49213 -0.11017,-0.1146 -0.48606,0.3965 -0.64063,0.64575 -0.40047,0.64575 0.0606,0 0.29038,-0.23902 0.51064,-0.53115 z m -89.91089,5.53914 c 0,-0.2504 0.19696,-0.45527 0.43769,-0.45527 0.24074,0 0.4377,0.20487 0.4377,0.45527 0,0.2504 -0.19696,0.45527 -0.4377,0.45527 -0.24073,0 -0.43769,-0.20487 -0.43769,-0.45527 z"
       id="path877"
       inkscape:connector-curvature="0" />
  </g>
</svg>
