<?xml version="1.0" encoding="UTF-8" standalone="no"?>
<!-- Created with Inkscape (http://www.inkscape.org/) -->

<svg
   xmlns:dc="http://purl.org/dc/elements/1.1/"
   xmlns:cc="http://creativecommons.org/ns#"
   xmlns:rdf="http://www.w3.org/1999/02/22-rdf-syntax-ns#"
   xmlns:svg="http://www.w3.org/2000/svg"
   xmlns="http://www.w3.org/2000/svg"
   xmlns:sodipodi="http://sodipodi.sourceforge.net/DTD/sodipodi-0.dtd"
   xmlns:inkscape="http://www.inkscape.org/namespaces/inkscape"
   width="297mm"
   height="210mm"
   viewBox="0 0 297 210"
   version="1.1"
   id="svg6283"
   inkscape:version="0.92.2 (5c3e80d, 2017-08-06)"
   sodipodi:docname="skvoz.svg">
  <defs
     id="defs6277" />
  <sodipodi:namedview
     id="base"
     pagecolor="#ffffff"
     bordercolor="#666666"
     borderopacity="1.0"
     inkscape:pageopacity="0.0"
     inkscape:pageshadow="2"
     inkscape:zoom="0.49497475"
     inkscape:cx="471.13369"
     inkscape:cy="450.31639"
     inkscape:document-units="mm"
     inkscape:current-layer="layer1"
     showgrid="false"
     inkscape:window-width="1366"
     inkscape:window-height="705"
     inkscape:window-x="-8"
     inkscape:window-y="-8"
     inkscape:window-maximized="1" />
  <metadata
     id="metadata6280">
    <rdf:RDF>
      <cc:Work
         rdf:about="">
        <dc:format>image/svg+xml</dc:format>
        <dc:type
           rdf:resource="http://purl.org/dc/dcmitype/StillImage" />
        <dc:title></dc:title>
      </cc:Work>
    </rdf:RDF>
  </metadata>
  <g
     inkscape:label="Layer 1"
     inkscape:groupmode="layer"
     id="layer1"
     transform="translate(0,-87)">
    <path
       style="fill:#000000;stroke-width:0.10809967"
       d="m 272.15038,218.77656 c -1.90993,-0.42998 -6.07249,-1.85221 -8.60748,-2.94093 -0.89183,-0.383 -2.42415,-0.97936 -3.40515,-1.32521 -5.14247,-1.81298 -18.69322,-5.90298 -23.24143,-7.0149 -6.6115,-1.61636 -36.78838,-8.00654 -71.29173,-15.09654 -11.20865,-2.30324 -16.46218,-3.29789 -25.40342,-4.80957 -5.7748,-0.97634 -10.6581,-1.83761 -16.59329,-2.92653 -10.08848,-1.85095 -17.98618,-2.73873 -30.754346,-3.45711 -3.239812,-0.18229 -16.522132,-0.25908 -19.728194,-0.11405 -6.005761,0.27165 -10.647759,0.85331 -13.091204,1.64037 -1.766774,0.56911 -4.669954,2.32601 -6.449216,3.90289 -2.589217,2.29466 -4.389923,5.21976 -5.373387,8.72859 -0.704772,2.51449 -0.982871,4.83361 -1.138866,9.49714 -0.187915,5.61778 -0.407487,6.53029 -1.719363,7.14549 l -0.604123,0.2833 -3.02679,-0.004 c -3.882212,-0.005 -4.635438,-0.15537 -5.452901,-1.08641 -0.455864,-0.51919 -0.734304,-1.17713 -0.979559,-2.3146 -0.453015,-2.10105 -0.60236,-5.07714 -0.751312,-14.97179 -0.05996,-3.98349 -0.139309,-7.98352 -0.176319,-8.88899 -0.0634,-1.55135 -0.0787,-1.64017 -0.265107,-1.54041 -0.1088,0.0582 -0.314146,0.1059 -0.456325,0.1059 -0.142184,0 -0.375005,0.12399 -0.517381,0.27554 -0.36884,0.39262 -1.167263,0.90365 -2.822332,1.80643 -2.250073,1.22733 -3.279984,1.66429 -4.091065,1.73572 -0.386457,0.0341 -1.043163,0.19124 -1.459345,0.34937 -1.127776,0.42846 -2.264331,0.6033 -4.486136,0.69009 -1.099914,0.0429 -2.420542,0.14417 -2.934727,0.22492 -0.766694,0.1204 -1.048683,0.12209 -1.567445,0.008 -0.416479,-0.0905 -1.389562,-0.13094 -2.848605,-0.11832 -5.2805778,0.0456 -8.2722954,-0.84857 -9.0740487,-2.71228 -0.2573667,-0.59827 -0.5908965,-2.5401 -0.4810894,-2.80093 0.037644,-0.0894 0.1329385,-0.57604 0.2117768,-1.0814 0.1967367,-1.26112 0.5955411,-2.58907 1.3148002,-4.37803 0.6645493,-1.65291 0.8921758,-2.51375 0.8109757,-3.067 -0.028986,-0.1974 -0.4869614,-1.23511 -1.0177504,-2.30602 -0.5307921,-1.0709 -1.0160333,-2.20084 -1.078316,-2.51098 -0.1558958,-0.77626 0.027429,-1.42802 1.0206235,-3.62862 1.3245042,-2.93467 1.4295755,-3.48562 0.9101074,-4.77225 -0.1595507,-0.39517 -0.381422,-1.10053 -0.4930477,-1.56744 -0.1116216,-0.46691 -0.4529875,-1.58085 -0.7585814,-2.47541 -0.7253054,-2.12319 -0.8769594,-3.12324 -0.6437908,-4.2454 0.1802241,-0.86736 0.325584,-1.19327 1.8494068,-4.14656 0.5116238,-0.99155 0.9632199,-1.97872 1.0035433,-2.19367 0.094366,-0.50301 -0.1086533,-1.05127 -0.9818882,-2.65161 -1.3035961,-2.38902 -1.7984511,-4.22198 -1.412606,-5.2323 0.2390201,-0.62587 0.9529954,-1.27446 1.7180011,-1.5607 1.5610776,-0.58407 3.660642,-0.83343 8.4531298,-1.00396 3.941874,-0.14025 15.58727,-0.0592 17.169579,0.11954 1.266273,0.14304 2.171497,0.45459 2.419216,0.83265 0.09791,0.14945 0.233539,0.61966 0.301391,1.04493 l 0.123363,0.77322 0.07043,-0.70266 c 0.03873,-0.38644 0.110902,-1.31222 0.160364,-2.05727 0.117681,-1.77247 0.420796,-2.47236 1.564827,-3.61322 1.829599,-1.82451 4.613289,-2.84894 7.43179,-2.73499 1.489684,0.0601 2.279446,0.31909 3.000101,0.98338 0.638542,0.58858 0.896796,1.13281 0.98733,2.08061 0.111441,1.16673 0.411609,1.4276 1.966086,1.70855 4.002387,0.72341 12.721224,0.80794 96.524955,0.93581 64.40799,0.0984 77.42249,0.16555 81.50714,0.42138 1.04047,0.0652 5.00503,0.28941 8.81013,0.49832 3.80511,0.20894 8.15881,0.47744 9.67492,0.59671 12.66951,0.99661 30.26986,3.39954 37.99703,5.18766 3.92649,0.90863 5.20626,1.36805 5.64117,2.02519 1.1857,1.79152 1.77605,8.57147 0.89649,10.29556 -0.98448,1.92977 -4.90746,2.57069 -9.18611,1.50078 -1.64534,-0.41143 -3.02788,-1.09539 -3.94127,-1.94981 -1.02682,-0.96055 -1.15322,-1.29406 -1.31174,-3.4612 -0.2438,-3.33273 -0.55809,-3.80787 -3.30475,-4.99632 -0.61444,-0.26586 -1.53064,-0.62795 -2.03601,-0.80464 -4.35255,-1.52189 -16.38821,-2.93156 -33.40279,-3.91226 -2.05119,-0.11824 -4.06995,-0.24108 -4.48614,-0.273 -2.11284,-0.16205 -16.75572,-0.65323 -23.99812,-0.805 -5.19776,-0.10888 -6.57951,-0.12908 -26.53847,-0.38714 -6.74811,-0.0873 -17.15812,-0.23076 -23.13332,-0.31889 -62.898728,-0.92779 -96.018592,-1.01028 -107.342957,-0.26735 -2.257834,0.14812 -3.712471,0.35675 -4.055742,0.58167 -0.509782,0.33402 -0.245337,1.04633 0.464614,1.25149 0.227011,0.0656 1.983111,0.14527 4.031831,0.18289 3.20699,0.0589 3.690712,0.0458 4.154069,-0.11203 0.684822,-0.23333 1.003302,-0.22491 1.434395,0.0378 0.194666,0.11868 0.465546,0.21579 0.601953,0.21579 0.589836,0 1.349756,0.32882 1.688982,0.73083 0.187592,0.22231 0.453736,0.52583 0.591434,0.67447 0.137697,0.14864 0.352527,0.47289 0.4774,0.72056 0.29552,0.58616 0.69893,0.86221 1.544062,1.05665 1.572947,0.36186 3.16659,0.40442 18.416062,0.49183 15.200119,0.0871 16.983456,0.13383 18.750308,0.49107 1.429679,0.28906 1.821089,0.53958 3.505939,2.24406 1.00949,1.02126 1.69679,1.62574 2.03145,1.78663 1.12807,0.54233 2.92084,0.71101 9.97988,0.93902 7.27496,0.235 15.57668,0.66803 20.70109,1.07981 4.39525,0.35318 13.18688,0.9478 19.99845,1.35261 16.34804,0.97156 21.86426,1.31326 27.07895,1.67736 6.74435,0.47093 11.9239,0.75602 20.59298,1.13349 7.8443,0.34157 13.12927,0.67487 17.8905,1.12827 2.57474,0.24519 7.45779,0.57606 11.24237,0.76177 5.96493,0.29271 7.59721,0.47421 8.33345,0.92664 0.32234,0.19806 0.55166,0.60181 0.79413,1.39807 0.20032,0.65791 0.5173,1.08099 0.80986,1.08099 0.31539,0 0.53526,-0.28294 0.77072,-0.99185 0.18366,-0.55298 0.68085,-1.06203 1.03725,-1.06203 0.39579,0 0.79907,0.53948 0.94009,1.25757 0.1348,0.68626 0.49976,1.22872 0.8267,1.22872 0.30406,0 0.68525,-0.50057 0.87301,-1.1464 0.18819,-0.64736 0.6444,-1.2318 0.96153,-1.2318 0.0964,0 0.2914,0.11603 0.43322,0.25782 0.23434,0.23435 0.32903,0.48142 0.53664,1.40002 0.10092,0.4464 0.5277,0.82846 0.92553,0.82846 0.42974,0 0.79294,-0.38504 0.97432,-1.03294 0.16595,-0.59264 0.48269,-1.02095 0.75503,-1.02095 0.27292,0 0.58919,0.42865 0.75609,1.02474 0.1543,0.5511 0.62869,1.02915 1.02128,1.02915 0.3918,0 0.78554,-0.38996 0.9776,-0.96815 0.24325,-0.73238 0.54107,-1.08574 0.91503,-1.08574 0.41155,0 0.53528,0.18384 0.66475,0.98778 0.0608,0.3768 0.18792,0.77082 0.28274,0.8756 0.23296,0.25741 0.81232,0.24549 1.0541,-0.0217 0.2668,-0.29482 0.14378,-0.57025 -0.21452,-0.48032 -0.37263,0.0935 -0.64646,-0.16945 -0.86661,-0.83224 -0.28303,-0.85217 -0.95955,-1.19957 -1.54179,-0.79177 -0.13333,0.0934 -0.41372,0.53079 -0.62307,0.97197 -0.38269,0.80642 -0.65843,1.03264 -1.06737,0.87572 -0.17723,-0.0679 -0.38383,-0.72045 -0.38472,-1.21492 -0.001,-0.49207 -0.38337,-0.80256 -0.98865,-0.80256 -0.63901,0 -0.90691,0.28376 -0.99218,1.05087 -0.0812,0.73013 -0.23246,1.00303 -0.55608,1.00303 -0.38224,0 -0.67161,-0.44911 -0.87319,-1.35519 -0.34412,-1.54672 0.0872,-1.88758 2.81494,-2.22466 0.65175,-0.0806 6.87858,-0.14736 18.8634,-0.20239 19.34437,-0.0888 19.36181,-0.0894 20.28868,-0.66222 0.51165,-0.3162 0.59405,-0.59099 0.40009,-1.33382 -0.28388,-1.08705 -0.13028,-1.19415 1.71242,-1.19415 1.10316,0 1.17324,0.0136 1.43924,0.27962 0.43911,0.43913 0.52973,1.8326 0.38765,5.96156 -0.094,2.73125 -0.15809,3.5512 -0.33414,4.27359 -0.41538,1.70448 -0.88143,2.23404 -2.13358,2.42429 -1.48659,0.22586 -1.86436,0.32087 -2.21469,0.55695 -0.84892,0.57208 -0.15805,1.16903 1.59384,1.37716 1.16094,0.13793 1.64522,0.3514 1.93375,0.8524 0.18399,0.31947 0.21373,0.55311 0.19955,1.56745 -0.008,0.65562 -0.0951,1.87305 -0.19085,2.70541 -0.67324,5.84914 -0.93299,8.03647 -0.98411,8.28745 -0.0915,0.44931 -0.6662,0.66544 -1.91143,0.71887 -1.78434,0.0765 -1.97442,-0.13518 -1.79848,-2.00316 0.0548,-0.58171 0.12954,-1.59277 0.16609,-2.24678 0.1001,-1.79048 0.80146,-1.60766 -6.48517,-1.69052 -3.33813,-0.0379 -6.94494,-0.0995 -8.01513,-0.13662 -1.07018,-0.0372 -3.42946,-0.1168 -5.24283,-0.17698 -12.57831,-0.41737 -18.65189,-1.35523 -20.25294,-3.1274 l -0.39409,-0.43623 v -1.02025 c 0,-0.56113 -0.0431,-1.04692 -0.0959,-1.0795 -0.12841,-0.0793 -0.30635,0.14806 -0.37513,0.47948 -0.0307,0.1483 -0.0834,0.40003 -0.11695,0.55936 -0.0869,0.41256 -0.3458,0.62914 -0.75219,0.62914 -0.51592,0 -0.83832,-0.39511 -0.94124,-1.15341 -0.0937,-0.69024 -0.37731,-1.15306 -0.73952,-1.20662 -0.4039,-0.0597 -0.86408,0.20349 -1.19402,0.68305 -0.5214,0.75783 -1.02638,1.13647 -1.51564,1.13647 -0.49554,0 -0.6977,-0.22942 -0.80968,-0.91883 -0.16843,-1.03717 -0.48469,-1.30912 -1.13271,-0.97401 -0.23621,0.12215 -0.42804,0.35903 -0.60663,0.74914 -0.14365,0.31376 -0.34949,0.65041 -0.45742,0.74809 -0.60815,0.55036 -3.14176,0.54016 -22.72001,-0.0915 -16.57469,-0.53469 -29.74443,-1.09018 -31.94346,-1.34736 -2.23508,-0.26139 -6.53095,-0.52313 -16.0528,-0.97804 -3.77537,-0.18038 -7.52102,-0.37694 -8.32366,-0.43679 -3.9506,-0.29461 -7.14756,-0.42523 -15.7285,-0.64259 -13.21196,-0.33466 -19.24449,-0.5382 -30.53816,-1.03039 -6.57285,-0.28644 -9.57526,-0.33114 -10.49728,-0.15629 -0.68332,0.1296 -1.30053,0.5182 -2.62124,1.65038 -0.52652,0.45136 -1.17858,0.92467 -1.44903,1.05179 -0.66559,0.31288 -1.801643,0.51702 -3.631467,0.65256 -1.440463,0.10677 -13.691698,0.35097 -15.798329,0.31498 -3.442559,-0.0588 -13.636913,0.012 -15.907282,0.11035 l -2.719127,0.11788 -0.956261,0.38467 c -1.54311,0.62071 -1.792347,0.77195 -2.361557,1.4331 -0.620669,0.72093 -1.218414,1.15413 -1.837693,1.33183 -0.237819,0.0681 -0.55401,0.20547 -0.702648,0.30495 -0.148636,0.0995 -0.513474,0.21139 -0.810748,0.24866 -0.297273,0.0373 -0.856689,0.11635 -1.243144,0.17568 -0.386457,0.0593 -1.052158,0.10888 -1.479335,0.11012 -0.427176,0.001 -0.913626,0.0574 -1.080997,0.12502 -0.16737,0.0675 -1.036254,0.1585 -1.930852,0.20206 -1.665882,0.0811 -2.214469,0.21941 -2.358413,0.59453 -0.318426,0.82981 -0.391114,9.66484 -0.08258,10.03624 0.37024,0.44564 0.820227,0.15618 3.310829,-2.12978 2.433413,-2.23346 3.706426,-3.19183 5.296884,-3.9877 3.471878,-1.73732 6.818277,-2.23007 17.566194,-2.58654 5.448011,-0.18069 21.760749,-0.18445 24.700775,-0.005 8.579571,0.52164 15.317371,1.42661 27.133001,3.64431 4.61987,0.8671 9.91693,1.78599 18.1067,3.14094 11.79806,1.95195 20.53624,3.61054 31.07866,5.89907 6.00589,1.30375 13.33697,2.81999 16.91758,3.49896 12.49002,2.36844 38.03024,8.04047 47.49783,10.54841 6.74482,1.78668 16.31138,4.54776 21.6684,6.25387 1.6848,0.53659 3.22564,1.00605 3.42408,1.0433 0.3431,0.0643 0.38032,0.0383 0.75899,-0.53206 1.56249,-2.35327 4.98005,-13.37229 7.40599,-23.87864 1.87086,-8.10231 1.82145,-7.95572 2.85129,-8.45958 0.8063,-0.39448 2.33441,-0.48734 6.05748,-0.36809 3.62417,0.11607 4.58937,0.2961 5.44193,1.01497 1.66173,1.40115 1.36049,4.72158 -1.26668,13.96234 -0.94827,3.33542 -3.88213,13.0581 -4.65998,15.44305 -2.1978,6.7385 -3.62486,9.4032 -5.4867,10.2451 -0.65355,0.29552 -2.44354,0.36445 -3.4691,0.13355 z M 42.791636,211.04592 c 1.125288,-0.14224 1.647867,-0.45913 2.092034,-1.26857 1.019765,-1.85838 1.276911,-6.3165 1.180089,-20.45902 -0.03277,-4.78612 -0.109553,-9.39516 -0.170624,-10.24236 -0.204174,-2.83211 -0.688485,-3.9313 -1.924932,-4.36883 -0.560828,-0.19844 -5.185856,-0.20356 -5.83521,-0.006 -1.23779,0.37573 -1.826834,1.60169 -2.085016,4.33951 -0.128152,1.35892 -0.31919,12.89047 -0.3216,19.41255 -0.0039,10.2798 0.438005,12.25638 2.835958,12.68785 0.543078,0.0977 3.17309,0.0388 4.229301,-0.0947 z M 274.69687,173.68134 c 1.44101,-0.68381 2.30442,-3.8686 2.30442,-8.50011 0,-1.83132 -0.21003,-3.61206 -0.55734,-4.72551 -0.14358,-0.46027 -0.59177,-1.08099 -0.78057,-1.08099 -0.21881,0 -0.57739,0.44332 -0.83175,1.0283 -0.31041,0.7139 -0.60833,1.02559 -0.98026,1.02559 -0.36572,0 -0.52546,-0.25631 -0.52546,-0.84311 0,-0.555 -0.33519,-0.99459 -0.75836,-0.99459 -0.48407,0 -0.99069,0.36705 -1.49639,1.08414 -0.58512,0.8297 -0.74855,0.81475 -1.06133,-0.097 -0.29724,-0.86658 -0.60133,-1.20319 -1.0869,-1.20319 -0.49349,0 -0.93217,0.4917 -1.22577,1.37397 -0.12732,0.38259 -0.28947,0.67992 -0.37077,0.67992 -0.0794,0 -0.25794,-0.2963 -0.39657,-0.65843 -0.48645,-1.27077 -1.47419,-1.78299 -2.07085,-1.07391 -0.1488,0.17685 -0.32953,0.50521 -0.40162,0.72967 -0.18954,0.59031 -0.40964,0.80041 -0.79987,0.76361 -0.3024,-0.0285 -0.3308,-0.003 -0.3308,0.29311 0,0.7498 1.01513,0.2523 1.24772,-0.61151 0.0601,-0.22307 0.23389,-0.55376 0.38623,-0.73481 0.22126,-0.26294 0.36163,-0.32923 0.6973,-0.32923 0.50319,0 0.70468,0.24304 0.80658,0.9729 0.0901,0.64518 0.23529,0.9236 0.55846,1.07085 0.23746,0.1082 0.30764,0.0816 0.62704,-0.23781 0.19781,-0.19781 0.41281,-0.55709 0.47778,-0.79843 0.16975,-0.63034 0.49898,-1.00751 0.87948,-1.00751 0.36484,0 0.52377,0.20336 0.85459,1.09332 0.45057,1.21213 0.97598,1.27628 1.46401,0.17872 0.42196,-0.94899 0.66939,-1.27204 0.97433,-1.27204 0.3056,0 0.52888,0.2907 0.76176,0.99187 0.42728,1.28643 1.88544,1.4492 1.88544,0.21046 0,-0.88039 0.71765,-0.87219 1.15915,0.0132 0.62013,1.24375 0.53744,4.74184 -0.2038,8.62151 -0.39736,2.07994 -1.03628,3.67538 -1.47185,3.67538 -0.17613,0 -0.55972,-0.49416 -0.71698,-0.92364 l -0.15658,-0.4276 -0.007,0.72969 c -0.005,0.59203 0.0331,0.77043 0.20858,0.94585 0.26288,0.26288 0.44795,0.27026 0.93856,0.0374 z m -12.7969,-0.14801 c 0.15287,-0.12026 0.38155,-0.49726 0.50816,-0.83778 0.54743,-1.47253 0.99259,-1.49754 1.52019,-0.0854 0.13189,0.35301 0.35386,0.75589 0.49324,0.8953 0.23874,0.23872 0.26866,0.24346 0.51563,0.0817 0.14446,-0.0946 0.39392,-0.48179 0.55562,-0.86225 0.59352,-1.39649 1.11842,-1.48908 1.67998,-0.29634 0.44914,0.95392 0.69418,1.21536 1.1392,1.21536 0.45618,0 0.68993,-0.32471 0.68993,-0.95844 v -0.47795 l -0.3833,0.502 c -0.21081,0.2761 -0.42377,0.502 -0.47322,0.502 -0.16285,0 -0.33358,-0.28845 -0.49758,-0.84072 -0.10754,-0.36195 -0.28923,-0.65626 -0.54256,-0.87871 -0.62638,-0.54995 -1.0619,-0.41009 -1.5557,0.49959 -0.15238,0.28073 -0.40752,0.58331 -0.56697,0.67238 -0.26453,0.14778 -0.30944,0.14425 -0.51347,-0.0404 -0.12391,-0.11214 -0.22359,-0.33633 -0.22359,-0.50287 0,-1.20521 -0.99889,-1.23945 -1.98062,-0.0678 -1.00283,1.19677 -1.03433,1.22552 -1.151,1.0505 -0.0594,-0.0892 -0.10876,-0.44342 -0.10966,-0.7872 -0.005,-1.94885 -1.62682,-2.39703 -2.21927,-0.61334 -0.23117,0.69594 -0.46756,0.89335 -0.95932,0.80111 -0.5043,-0.0946 -0.66886,0.20001 -0.28521,0.51068 0.48157,0.38993 1.09841,-0.009 1.62446,-1.05258 0.2794,-0.5539 0.45653,-0.77689 0.67731,-0.85277 0.45704,-0.15704 0.62455,0.0914 0.73488,1.08962 0.0864,0.78024 0.12538,0.87942 0.47436,1.20176 0.44716,0.41301 0.48469,0.41888 0.84856,0.13266 z m 9.7014,-0.14735 c 0.43252,-0.29391 0.91171,-1.1045 1.02977,-1.74194 0.0723,-0.39056 0.0631,-0.41836 -0.0949,-0.28742 -0.0963,0.0797 -0.27405,0.40965 -0.39507,0.73314 -0.32567,0.87043 -0.52037,1.12172 -0.86911,1.12172 -0.34509,0 -0.55825,-0.26795 -0.76674,-0.96382 -0.17073,-0.56983 -0.63893,-1.09048 -0.97919,-1.08887 -0.24423,10e-4 -0.24108,0.0114 0.0828,0.26666 0.37764,0.29772 0.53966,0.64748 0.61835,1.335 0.0995,0.86945 0.64783,1.11905 1.37413,0.62553 z m -16.12615,-0.44149 c 0.3319,-0.32458 -0.33723,-0.67695 -0.92017,-0.48457 -0.45411,0.14989 -0.48758,0.47082 -0.0655,0.62817 0.34292,0.12783 0.77211,0.0653 0.9857,-0.1436 z m -4.20164,-0.55013 c 0,-0.0857 -0.0729,-0.15578 -0.16215,-0.15578 -0.16282,0 -0.22222,0.2282 -0.0931,0.35739 0.10092,0.10093 0.25517,-0.0211 0.25517,-0.20161 z m 1.081,0 c 0,-0.0857 -0.0728,-0.15578 -0.16216,-0.15578 -0.16282,0 -0.22222,0.2282 -0.093,0.35739 0.10092,0.10093 0.25516,-0.0211 0.25516,-0.20161 z m 0.82181,-1.62757 c 0.13148,-0.033 0.34085,-0.005 0.46532,0.0612 0.29497,0.15786 0.30083,-0.0281 0.009,-0.31891 -0.28529,-0.28531 -0.49379,-0.27274 -0.81566,0.0491 -0.17915,0.17915 -0.26309,0.38105 -0.2584,0.62157 l 0.006,0.35626 0.17639,-0.35459 c 0.0969,-0.19501 0.28396,-0.38157 0.41542,-0.41457 z m 2.96001,0.35054 c -10e-4,-0.0671 -0.0475,-0.19446 -0.10356,-0.28313 -0.1601,-0.25327 -0.37023,0.0289 -0.28233,0.37907 0.0595,0.23734 0.0998,0.26479 0.22989,0.15682 0.0868,-0.072 0.15695,-0.18573 0.15604,-0.25276 z m -5.40331,-0.34447 c 0,-0.0857 -0.0729,-0.15576 -0.16216,-0.15576 -0.16282,0 -0.22223,0.22819 -0.093,0.35739 0.10092,0.10093 0.25519,-0.0211 0.25519,-0.20163 z m 6.3995,-0.0694 c -0.10092,-0.10092 -0.15956,-0.0999 -0.26395,0.004 -0.10686,0.10687 -0.10164,0.15439 0.0261,0.23332 0.21678,0.13396 0.4132,-0.0625 0.23782,-0.23783 z m 3.82402,-9.10664 c 0.091,-0.36213 -0.025,-0.50603 -0.3434,-0.42615 -0.38361,0.0963 -0.64156,-0.18505 -0.91041,-0.99296 -0.23208,-0.69742 -0.69401,-1.24132 -1.1872,-1.39784 -0.29408,-0.0934 -0.66962,0.22761 -0.62568,0.53473 0.0267,0.18727 0.0963,0.21651 0.44223,0.18612 0.52563,-0.0462 0.66003,0.0739 1.12336,1.00273 0.20929,0.41961 0.50616,0.89669 0.6597,1.06019 0.35625,0.37932 0.75063,0.39486 0.8414,0.0331 z m 0.45849,-1.75444 c -0.0498,-0.42083 -0.30445,-0.45795 -0.30445,-0.0444 0,0.23048 0.0522,0.33331 0.16933,0.33331 0.11999,0 0.15936,-0.0842 0.13512,-0.28894 z m 1.58729,-0.0353 c 0,-0.13873 -0.0608,-0.27251 -0.13513,-0.29727 -0.0891,-0.0297 -0.13511,0.0715 -0.13511,0.29727 0,0.22581 0.0459,0.32699 0.13511,0.29727 0.0744,-0.0248 0.13513,-0.15853 0.13513,-0.29727 z M 41.352682,141.64786 c 0.164009,-8.6e-4 0.787404,-0.33681 1.513396,-0.81554 0.678977,-0.44772 1.45888,-0.89457 1.733115,-0.99297 0.850843,-0.30536 1.414405,-1.49615 1.625878,-3.43549 0.253991,-2.32922 -0.0403,-3.73489 -0.856486,-4.09098 -0.900329,-0.3928 -2.846077,-0.48338 -6.405448,-0.2982 -2.865496,0.14908 -3.131252,0.40367 -3.219608,3.0843 -0.122152,3.70607 0.741114,5.3711 3.265857,6.29903 0.51547,0.18946 1.535853,0.35064 1.848206,0.29196 0.11891,-0.0223 0.3417,-0.0414 0.49509,-0.0421 z"
       id="path6841"
       inkscape:connector-curvature="0" />
  </g>
</svg>
