<?xml version="1.0" encoding="UTF-8" standalone="no"?>
<!-- Created with Inkscape (http://www.inkscape.org/) -->

<svg
   xmlns:dc="http://purl.org/dc/elements/1.1/"
   xmlns:cc="http://creativecommons.org/ns#"
   xmlns:rdf="http://www.w3.org/1999/02/22-rdf-syntax-ns#"
   xmlns:svg="http://www.w3.org/2000/svg"
   xmlns="http://www.w3.org/2000/svg"
   xmlns:sodipodi="http://sodipodi.sourceforge.net/DTD/sodipodi-0.dtd"
   xmlns:inkscape="http://www.inkscape.org/namespaces/inkscape"
   width="297mm"
   height="210mm"
   viewBox="0 0 297 210"
   version="1.1"
   id="svg1797"
   inkscape:version="0.92.2 (5c3e80d, 2017-08-06)"
   sodipodi:docname="spusk1.svg">
  <defs
     id="defs1791" />
  <sodipodi:namedview
     id="base"
     pagecolor="#ffffff"
     bordercolor="#666666"
     borderopacity="1.0"
     inkscape:pageopacity="0.0"
     inkscape:pageshadow="2"
     inkscape:zoom="0.35"
     inkscape:cx="-578.33749"
     inkscape:cy="343.73117"
     inkscape:document-units="mm"
     inkscape:current-layer="layer1"
     showgrid="false"
     inkscape:window-width="1366"
     inkscape:window-height="705"
     inkscape:window-x="-8"
     inkscape:window-y="-8"
     inkscape:window-maximized="1" />
  <metadata
     id="metadata1794">
    <rdf:RDF>
      <cc:Work
         rdf:about="">
        <dc:format>image/svg+xml</dc:format>
        <dc:type
           rdf:resource="http://purl.org/dc/dcmitype/StillImage" />
        <dc:title></dc:title>
      </cc:Work>
    </rdf:RDF>
  </metadata>
  <g
     inkscape:label="Layer 1"
     inkscape:groupmode="layer"
     id="layer1"
     transform="translate(0,-87)">
    <path
       style="fill:#000000;stroke-width:0.7619766"
       d="m 450.04974,287.69912 c 1.04771,-0.88142 26.42151,-20.65181 56.38624,-43.9342 74.44848,-57.84597 86.74613,-67.70868 96.05054,-77.0325 12.72725,-12.7538 24.28959,-31.41845 30.00986,-48.44377 2.34016,-6.96506 3.41912,-15.85658 2.02844,-16.71607 -3.69793,-2.285439 -55.77862,30.05462 -150.94813,93.73281 -23.25932,15.56287 -52.89995,35.53726 -65.86805,44.3875 -12.9681,8.85024 -23.74871,15.92101 -23.95691,15.71281 -0.6321,-0.63211 1.21032,-2.01186 17.4372,-13.05846 134.99968,-91.9022 217.81453,-144.686975 223.54913,-142.486404 1.84535,0.708124 2.32996,4.192204 1.36546,9.816774 -1.2555,7.32147 -3.42525,13.38892 -8.5291,23.85057 -8.18409,16.77535 -18.84334,30.77443 -31.72958,41.67134 -17.82874,15.07639 -145.21073,114.16612 -146.7134,114.12752 -0.54265,-0.014 -0.12942,-0.74651 0.9183,-1.62792 z m -31.6692,-33.30645 c 0.98088,-1.89682 4.20079,-4.85741 15.94365,-14.65965 7.25684,-6.05757 137.74507,-95.99031 144.62407,-99.67518 2.79255,-1.49587 5.3176,-2.48065 5.61125,-2.18837 1.31917,1.31301 -4.83158,8.38758 -12.59354,14.48502 -1.88589,1.48147 -35.4349,25.02169 -74.55334,52.31159 -68.39892,47.71662 -74.83892,51.92131 -79.52377,51.92131 -0.35379,0 -0.13254,-0.98762 0.49168,-2.19472 z m 6.55335,-1.43868 c 1.45065,-0.74112 34.92488,-23.89058 74.38716,-51.44326 46.28318,-32.31504 73.81119,-52.02105 77.55787,-55.52003 3.19452,-2.98334 5.64023,-5.59223 5.43491,-5.79756 -0.72685,-0.72684 -8.18218,4.21204 -54.16151,35.87989 -84.50114,58.19944 -93.42238,64.59463 -105.11541,75.35197 -3.36359,3.09442 -2.5115,3.7812 1.89698,1.52899 z"
       id="path2353"
       inkscape:connector-curvature="0" />
    <path
       style="fill:#000000;stroke-width:0.73754215"
       d="m 47.127767,281.32547 c -0.0018,-1.18133 -3.728906,-23.58748 -8.2816,-49.79143 l -8.277649,-47.64357 -0.484865,-28.28418 -0.484871,-28.28418 9.941274,-12.64217 9.941273,-12.64217 11.472799,0.50742 c 6.310042,0.27909 14.243388,0.50743 17.629687,0.50743 h 6.156914 v 28.02381 28.02381 l -9.425696,51.31532 -9.425711,51.31531 -7.80312,9.69966 c -4.291718,5.33483 -8.042061,9.69968 -8.334105,9.69968 -0.292034,0 -0.530971,0.5272 -0.530971,1.17156 0,0.64436 -0.470114,1.17157 -1.044697,1.17157 -0.674404,0 -1.046108,-0.76133 -1.048662,-2.14787 z m 11.819703,-13.82982 5.895793,-7.46126 8.855834,-48.2145 c 4.870708,-26.51796 8.784146,-48.29487 8.696518,-48.39314 -0.175525,-0.19683 -12.616932,14.64001 -15.513454,18.50038 -1.645342,2.19282 -2.608185,6.95132 -10.084214,49.83739 -4.545843,26.07718 -8.26234,47.76455 -8.258877,48.19413 0.0036,0.42956 1.020229,-0.52009 2.25946,-2.11035 1.239231,-1.59027 4.906253,-6.24895 8.14894,-10.35265 z m -2.893382,-39.28105 7.831026,-45.10518 -0.01915,-27.53173 -0.01915,-27.53173 H 47.380021 30.913243 l 0.461555,27.53173 0.461554,27.53173 7.798445,45.10518 c 4.289137,24.80786 7.97614,45.10518 8.193316,45.10518 0.217176,0 3.918836,-20.29732 8.225894,-45.10518 z m 22.787274,-63.15744 4.506452,-5.55559 -0.01528,-26.85766 -0.01528,-26.85766 -9.00576,10.54408 -9.00578,10.54407 -0.0054,27.33647 -0.0054,27.33648 4.520127,-5.46731 c 2.486064,-3.007 6.54802,-7.9673 9.026567,-11.02288 z m -5.724623,-49.33886 8.921603,-10.71308 -7.528679,-0.48641 c -4.140781,-0.26754 -11.446305,-0.50774 -16.234501,-0.53383 l -8.70581,-0.0474 -6.964642,9.00585 c -3.830561,4.95321 -7.692539,10.02612 -8.582177,11.27313 l -1.617527,2.2673 15.895055,-0.0262 15.895055,-0.0263 8.921623,-10.71309 z"
       id="path2366"
       inkscape:connector-curvature="0" />
  </g>
</svg>
