<?xml version="1.0" encoding="UTF-8" standalone="no"?>
<svg
   xmlns:dc="http://purl.org/dc/elements/1.1/"
   xmlns:cc="http://creativecommons.org/ns#"
   xmlns:rdf="http://www.w3.org/1999/02/22-rdf-syntax-ns#"
   xmlns:svg="http://www.w3.org/2000/svg"
   xmlns="http://www.w3.org/2000/svg"
   id="svg8"
   version="1.1"
   viewBox="0 0 210 297"
   height="297mm"
   width="210mm">
  <defs
     id="defs2" />
  <metadata
     id="metadata5">
    <rdf:RDF>
      <cc:Work
         rdf:about="">
        <dc:format>image/svg+xml</dc:format>
        <dc:type
           rdf:resource="http://purl.org/dc/dcmitype/StillImage" />
        <dc:title></dc:title>
      </cc:Work>
    </rdf:RDF>
  </metadata>
  <g
     id="layer1">
    <path
       id="path21"
       d="m 107.08811,251.87188 c -0.18067,-0.10578 -0.54122,-0.31309 -0.80122,-0.46094 -0.25999,-0.14786 -1.37617,-0.88014 -2.48041,-1.62741 -2.09459,-1.41749 -3.16688,-2.30731 -5.038371,-4.181 -1.452884,-1.45461 -1.605382,-1.62762 -3.779966,-4.2883 -0.35694,-0.43671 -0.827724,-0.97781 -1.046189,-1.20241 -0.218467,-0.22465 -0.397234,-0.48467 -0.397234,-0.57795 0,-0.0932 -0.348761,-0.51465 -0.774972,-0.93641 -0.426236,-0.42177 -0.774974,-0.8766 -0.774974,-1.01075 0,-0.13407 -0.0882,-0.24388 -0.195882,-0.24388 -0.107688,0 -0.310703,-0.26156 -0.450982,-0.58123 -0.140255,-0.31967 -0.400847,-0.73525 -0.579043,-0.92348 -0.178291,-0.18827 -0.32399,-0.39052 -0.32399,-0.44952 0,-0.19684 -0.842867,-1.83315 -1.081801,-2.10011 -0.521133,-0.58226 -0.591167,-0.72625 -0.672967,-1.38375 -0.04683,-0.3763 -0.131459,-0.90392 -0.188037,-1.17252 -0.07963,-0.37809 -0.03019,-0.56101 0.218466,-0.80977 0.176865,-0.17687 0.369372,-0.51265 0.428042,-0.7464 0.05872,-0.23369 0.234868,-0.56252 0.391432,-0.73065 0.156659,-0.16807 0.284767,-0.39145 0.284767,-0.49631 0,-0.1809 0.454905,-1.13536 0.619955,-1.3007 0.292992,-0.29341 1.394951,-2.67037 1.394951,-3.00888 0,-0.11577 0.104123,-0.41043 0.231541,-0.6546 0.127419,-0.24419 0.232017,-0.5633 0.232491,-0.70919 0.0024,-0.62338 0.653949,-2.98982 1.068964,-3.88157 0.437527,-0.9401 0.584463,-1.51049 0.9637,-3.74117 0.248443,-1.46135 0.04541,-11.7807 -0.263633,-13.39566 -0.12005,-0.6271 -0.218228,-1.61348 -0.218228,-2.192 0,-0.57849 -0.104598,-1.34835 -0.232492,-1.71078 -0.127895,-0.3624 -0.235582,-0.91171 -0.239291,-1.22068 -0.0024,-0.30895 -0.114107,-0.84072 -0.245282,-1.18171 -0.379641,-0.98693 -1.084914,-3.42285 -1.512932,-5.22544 -0.216802,-0.91333 -0.701517,-2.34315 -1.076975,-3.17736 -0.375481,-0.83422 -1.040079,-2.3333 -1.476893,-3.33126 -0.436838,-0.99797 -0.986403,-2.11447 -1.221296,-2.48108 -0.552727,-0.86278 -1.829412,-2.66346 -2.448938,-3.4541 -0.267199,-0.34098 -0.828103,-1.1082 -1.24647,-1.70492 -0.710741,-1.01375 -0.730187,-1.06582 -0.296082,-0.79321 0.255503,0.16048 0.605239,0.41891 0.777136,0.57428 0.305829,0.27641 0.982741,0.66238 2.720749,1.55136 0.474872,0.24289 0.991347,0.58301 1.147721,0.75579 0.15642,0.17283 0.348476,0.31418 0.426876,0.31418 0.319974,0 2.963154,2.128 3.45664,2.78286 0.291971,0.38747 0.664337,0.87885 0.827534,1.09197 0.790996,1.03302 2.221367,3.4508 2.483883,4.19858 0.518091,1.4758 1.277374,3.14876 1.659749,3.65698 0.204203,0.27137 0.371203,0.56656 0.371203,0.65601 0,0.22555 1.103314,2.00869 2.190939,3.54091 0.499901,0.70425 0.908931,1.32056 0.908931,1.36958 0,0.0492 0.36616,0.46213 0.8137,0.91803 0.44755,0.45591 1.21478,1.25197 1.70494,1.76903 0.49016,0.51707 1.01517,0.94014 1.16664,0.94014 0.15142,0 0.50454,0.2092 0.78455,0.46499 0.28001,0.25575 0.55903,0.46498 0.62008,0.46498 0.14382,0 0.64484,0.5847 0.64484,0.75271 0,0.25842 0.57669,0.64222 0.96501,0.64222 0.63555,0 3.68481,-2.65588 3.68481,-3.20944 0,-0.0789 0.61028,-0.76807 1.35617,-1.53166 0.7459,-0.76353 1.61877,-1.75768 1.93964,-2.20921 0.95628,-1.34557 2.49466,-4.93471 2.9003,-6.76659 0.24624,-1.11198 1.02552,-2.81158 1.7867,-3.8967 0.41017,-0.58469 0.90196,-1.4467 1.0929,-1.91556 0.24664,-0.60562 0.53167,-0.9871 0.98443,-1.31743 0.35052,-0.25575 0.88844,-0.76402 1.19536,-1.12951 0.6191,-0.7372 3.3185,-2.66785 3.73019,-2.66785 0.0411,0 -0.14145,0.27303 -0.40579,0.60669 -0.26428,0.33366 -0.72118,1.20364 -1.01532,1.93322 -0.29997,0.74415 -0.82872,1.68744 -1.20427,2.14851 -0.65187,0.80033 -0.79195,1.07662 -1.19831,2.3638 -0.10769,0.34098 -0.35582,0.9687 -0.55144,1.39492 -0.47299,1.03051 -1.11249,2.94954 -1.23956,3.71986 -0.0564,0.34098 -0.36784,1.42205 -0.6924,2.40239 -1.17012,3.53424 -1.50025,4.95403 -1.85595,7.98216 -0.0901,0.76722 -0.23059,1.67391 -0.31219,2.0149 -0.24077,1.00614 -0.17331,6.57633 0.11078,9.14461 0.14143,1.27871 0.26331,2.98749 0.27086,3.79734 0.019,2.05226 0.30071,3.19066 1.28402,5.19121 0.5659,1.15133 0.82193,1.86046 1.11311,3.08301 0.19469,0.81703 0.56725,1.62024 1.15058,2.47979 0.20254,0.29837 0.48588,0.90242 0.62974,1.34235 0.19541,0.59699 0.52483,1.06666 1.29949,1.85206 1.41447,1.43408 1.47585,1.55456 1.28928,2.53124 -0.0842,0.44117 -0.19612,1.12777 -0.24868,1.52584 -0.0797,0.60417 -1.76043,4.2445 -2.59975,5.63099 -1.85147,3.05834 -3.43189,5.09333 -5.81462,7.48705 -1.91598,1.92476 -2.3269,2.29719 -3.82994,3.47102 -1.66595,1.30105 -1.75467,1.3639 -1.92609,1.3639 -0.0932,0 -0.16926,0.0559 -0.16926,0.12385 0,0.126 -2.24611,1.65874 -2.64779,1.80685 -0.12077,0.0445 -0.3674,-0.005 -0.5481,-0.11124 z M 86.802504,233.64295 c -0.340988,-0.15926 -1.038464,-0.48466 -1.549946,-0.72293 -0.845861,-0.394 -1.65276,-0.83541 -3.106714,-1.69942 -0.286883,-0.17045 -0.982599,-0.57746 -1.545976,-0.90435 -0.563401,-0.32688 -1.062235,-0.69306 -1.108544,-0.81372 -0.04636,-0.12077 -0.183283,-0.21941 -0.304213,-0.21941 -0.248751,0 -3.001665,-2.15855 -3.001665,-2.35359 0,-0.0696 -0.08059,-0.12623 -0.178766,-0.12623 -0.09842,0 -0.536491,-0.33129 -0.973708,-0.73623 -0.437195,-0.40491 -1.274903,-1.15468 -1.861528,-1.66617 -1.231541,-1.07377 -2.720749,-2.57908 -2.720749,-2.75015 0,-0.0644 -0.209195,-0.11719 -0.464984,-0.11719 -0.455,0 -0.464983,0.0166 -0.464983,0.77962 0,0.94702 0.477797,2.16762 1.873579,4.78651 0.154995,0.29087 0.339847,0.56987 0.410713,0.61997 0.07084,0.0502 0.381733,0.47473 0.690818,0.9436 0.500951,0.75989 1.102127,1.41824 2.276828,2.49337 0.340204,0.31136 0.348096,0.35032 0.09937,0.48956 -0.185186,0.10364 -0.399134,0.088 -0.679623,-0.0502 -0.225122,-0.11078 -0.758047,-0.28627 -1.184282,-0.39011 -0.953431,-0.23224 -2.323231,-0.72209 -2.944873,-1.05322 -0.255742,-0.13622 -0.551562,-0.24813 -0.657396,-0.24863 -0.105786,0 -0.279537,-0.14049 -0.386013,-0.31094 -0.106498,-0.17045 -0.311344,-0.30999 -0.455236,-0.30999 -0.143822,0 -0.353802,-0.0872 -0.466435,-0.19374 -0.112679,-0.1065 -0.570745,-0.44526 -1.017971,-0.75263 -1.10108,-0.75679 -1.936862,-1.45607 -2.885967,-2.41466 -1.79777,-1.81574 -2.423549,-2.6296 -3.199449,-4.16106 -0.212286,-0.41915 -0.473208,-0.85594 -0.579612,-0.97064 -0.1065,-0.11482 -0.23487,-0.37292 -0.285196,-0.57379 -0.0504,-0.20087 -0.346931,-0.53266 -0.65894,-0.73729 -0.312011,-0.20469 -0.881164,-0.5738 -1.264775,-0.82038 -1.090644,-0.70112 -2.162389,-1.59814 -3.216637,-2.69229 -0.934199,-0.9696 -2.250369,-2.76967 -2.46168,-3.36677 -0.0561,-0.15879 -0.226311,-0.56993 -0.37793,-0.91387 -0.151666,-0.34395 -0.31579,-0.81474 -0.364641,-1.04621 -0.04897,-0.23154 -0.124091,-0.59176 -0.167357,-0.80065 -0.04326,-0.20895 -0.778514,-1.08766 -1.634051,-1.95281 -1.552465,-1.56996 -2.782248,-3.05443 -2.782248,-3.35848 0,-0.0885 -0.108639,-0.25088 -0.241454,-0.36108 -0.132887,-0.11031 -0.340632,-0.41518 -0.461846,-0.6777 -0.121237,-0.26253 -0.285052,-0.58194 -0.364047,-0.70981 -0.07893,-0.1279 -0.329814,-0.68585 -0.557386,-1.23996 -0.2275,-0.55408 -0.506942,-1.21668 -0.62081,-1.47242 -0.535825,-1.2034 -1.085747,-2.95136 -1.544027,-4.90786 -0.113155,-0.48291 -0.260876,-0.96735 -0.328341,-1.07654 -0.06751,-0.10919 -0.242381,-0.62079 -0.388675,-1.13689 -0.444706,-1.56899 -0.935649,-2.73436 -1.86595,-4.42927 -0.421409,-0.76773 -1.529858,-2.12974 -2.207126,-2.71204 -0.353327,-0.30377 -0.747065,-0.64247 -0.874935,-0.75267 -0.416823,-0.35921 -1.607927,-0.84249 -2.534019,-1.02815 -1.743404,-0.34951 -4.114394,0.17448 -5.09181,1.12531 -0.153331,0.14917 -0.348572,0.27123 -0.433818,0.27123 -0.08535,0 -0.154995,0.0765 -0.154995,0.16981 0,0.0934 -0.156897,0.38981 -0.348738,0.65872 -0.308468,0.43246 -0.348737,0.67682 -0.348737,2.11635 0,1.44964 0.04232,1.70237 0.387485,2.31345 0.446276,0.79011 0.862503,1.2443 1.402321,1.5302 0.208958,0.11073 0.58936,0.31998 0.845078,0.46499 0.330671,0.18749 0.823182,0.26366 1.70494,0.26366 0.984429,0 1.239933,0.0468 1.239933,0.22657 0,0.33189 -1.07108,0.97746 -2.425309,1.4618 -1.075643,0.38472 -1.341108,0.41843 -2.867376,0.36416 -1.603409,-0.057 -2.298412,-0.21228 -3.696906,-0.82543 -0.255741,-0.11214 -0.713973,-0.30325 -1.018281,-0.42467 -0.304284,-0.12143 -0.862264,-0.41999 -1.239932,-0.66343 -0.37767,-0.24346 -0.799506,-0.51382 -0.937408,-0.60082 -2.667262,-1.68245 -4.462394,-3.62228 -6.887632,-7.44284 -0.450958,-0.71041 -1.773737,-3.3671 -1.773737,-3.56238 0,-0.0949 -0.394475,-0.76213 -0.876623,-1.48255 -2.100842,-3.13899 -3.8183338,-7.1526 -4.2415023,-9.91193 -0.097941,-0.63934 -0.2768983,-1.55612 -0.397447,-2.03727 -0.2788476,-1.11291 -0.2783246,-2.79412 0.00114,-3.71485 0.1193363,-0.39316 0.3001,-1.265 0.4017498,-1.93742 0.1015071,-0.67241 0.2524604,-1.34959 0.3351876,-1.50483 0.082727,-0.15523 0.2535065,-0.67834 0.3795228,-1.16245 0.1259925,-0.4841 0.2952741,-0.94645 0.3761234,-1.02743 0.080825,-0.081 0.1469119,-0.24225 0.1469119,-0.35833 0,-0.19417 0.3283178,-0.9765 1.0958738,-2.61127 0.164503,-0.35033 0.299077,-0.68546 0.299077,-0.74472 0,-0.0593 0.130747,-0.40037 0.290639,-0.758 0.604265,-1.35184 0.714354,-2.16565 0.51298,-3.7922 -0.215852,-1.74448 -0.235345,-6.33294 -0.03067,-7.24257 0.392003,-1.74167 0.845742,-3.16168 1.386726,-4.33981 0.156658,-0.34098 0.370869,-0.84665 0.476204,-1.12369 0.105311,-0.27706 0.252817,-0.50372 0.327723,-0.50372 0.07488,0 0.136215,-0.0795 0.136215,-0.17649 0,-0.097 0.401036,-0.76595 0.891219,-1.48643 1.364404,-2.00549 1.361052,-1.99709 1.315314,-3.28915 -0.02139,-0.63508 0.02995,-1.50691 0.116484,-1.93741 0.08653,-0.43046 0.227499,-1.13144 0.313032,-1.55766 0.581491,-2.89362 2.627134,-5.71599 8.593973,-11.85701 2.569178,-2.64415 2.789309,-2.95847 4.749752,-6.7813 1.163886,-2.26957 1.67513,-3.71297 2.154615,-6.08313 0.272215,-1.34554 0.359792,-4.82486 0.16379,-6.509718 -0.177578,-1.526109 -0.73021,-3.809372 -1.076071,-4.44498 -0.08439,-0.15528 -0.333167,-0.680848 -0.552608,-1.167951 -0.836804,-1.857482 -3.736677,-5.028384 -7.216757,-7.891268 -1.501688,-1.235348 -3.36488,-3.073196 -3.839847,-3.787606 -0.714093,-1.074078 -1.463297,-2.693778 -1.676105,-3.623619 -0.108401,-0.473614 -0.269624,-1.140105 -0.358294,-1.481092 -0.08867,-0.340977 -0.16284,-0.900616 -0.164979,-1.24363 -0.0024,-0.549116 -0.113632,-0.737453 -0.923739,-1.57563 -1.18307,-1.224123 -1.520873,-1.942516 -1.808231,-3.845429 -0.713213,-4.723083 -0.625636,-9.007578 0.264513,-12.941943 0.08677,-0.383606 0.256763,-1.169015 0.377716,-1.745348 0.121,-0.576334 0.31655,-1.238931 0.434698,-1.472436 0.299078,-0.591102 0.520563,-1.698184 0.720582,-3.601922 0.394523,-3.754589 0.535017,-4.637654 0.936957,-5.889744 0.232729,-0.724595 0.475182,-1.561558 0.53901,-1.859921 0.06394,-0.298361 0.246304,-0.785558 0.405411,-1.082658 0.159273,-0.2971 0.289378,-0.626532 0.289378,-0.732072 0,-0.196096 0.226549,-0.728583 1.238887,-2.912566 1.142419,-2.464517 1.34434,-2.843899 1.753055,-3.293609 0.483526,-0.532017 0.790116,-0.460082 0.660558,0.154995 -0.620406,2.945474 -0.625113,3.349713 -0.07274,6.220621 0.121238,0.629419 1.263919,3.242188 1.533114,3.50521 0.04375,0.04262 0.34137,0.45846 0.661629,0.924082 1.28006,1.861046 4.189607,4.823745 6.210789,6.324249 2.101151,1.559873 3.894215,2.748912 4.706748,3.121208 0.187087,0.08577 0.679337,0.394225 1.09371,0.68548 0.414373,0.291252 0.923834,0.581945 1.132126,0.64598 0.208244,0.06404 0.474207,0.195075 0.590905,0.291205 0.344316,0.28359 2.115391,1.237976 4.437623,2.391304 2.023963,1.005193 2.735845,1.343761 4.107308,1.953403 0.298365,0.132625 0.647103,0.301997 0.774974,0.376373 0.127894,0.07438 0.563804,0.285021 0.968716,0.468095 0.404911,0.18307 1.032639,0.467989 1.394951,0.633139 0.362288,0.165145 0.990016,0.444138 1.394927,0.619971 0.404912,0.175843 1.050089,0.459195 1.433676,0.629689 0.383612,0.170495 0.993915,0.441735 1.356203,0.602768 3.031237,1.347288 5.420436,2.532052 5.812914,2.882547 0.414065,0.369766 0.9124,1.376449 2.456213,4.961821 0.40377,0.93771 1.036206,2.205711 1.405387,2.817783 0.369206,0.612069 0.671279,1.187479 0.671279,1.278698 0,0.09118 0.0611,0.165835 0.135502,0.165835 0.07464,0 0.405837,0.24777 0.736223,0.550608 1.296131,1.18804 2.592285,1.619294 4.86683,1.619294 1.577973,0 3.710266,-0.287377 4.13681,-0.557545 0.188751,-0.119574 0.433153,-0.21742 0.543004,-0.21742 0.276019,0 2.40168,-1.04272 2.521753,-1.237026 0.05372,-0.08691 0.232966,-0.157919 0.398445,-0.157919 0.165454,0 0.300837,-0.102172 0.300837,-0.227047 0,-0.124876 0.139543,-0.301684 0.309989,-0.392931 0.396519,-0.212214 0.426187,-0.927912 0.03875,-0.934749 -0.686897,-0.01212 -2.639044,-0.320891 -3.022371,-0.478048 -0.234394,-0.09611 -0.424048,-0.253469 -0.421362,-0.349684 0.0072,-0.22284 0.577569,-0.638787 1.080065,-0.786284 0.213237,-0.06255 0.910594,-0.375926 1.549946,-0.696382 0.639353,-0.320456 1.416989,-0.629948 1.728071,-0.68776 0.311106,-0.05781 0.771454,-0.207792 1.023035,-0.333296 0.251557,-0.125492 0.799125,-0.26919 1.216803,-0.319314 0.417653,-0.05014 1.017592,-0.187801 1.333143,-0.305953 1.527601,-0.571956 8.953006,-0.554631 10.070987,0.02353 0.232017,0.120003 0.774093,0.218182 1.204536,0.218182 0.726477,0 0.782675,-0.02715 0.782675,-0.378335 0,-0.208077 -0.06989,-0.421442 -0.154994,-0.474126 -0.08535,-0.05268 -0.154995,-0.171398 -0.154995,-0.263795 0,-0.199354 2.764276,-0.04659 3.586532,0.198189 0.286431,0.08527 1.009034,0.250591 1.605762,0.367358 1.569422,0.307108 3.641022,1.02837 5.424762,1.888709 1.06991,0.516044 2.27393,0.700195 2.4729,0.378227 0.049,-0.07901 0.34938,-0.228617 0.66788,-0.332449 0.31848,-0.103813 0.61394,-0.235012 0.65654,-0.291511 0.12432,-0.164812 2.12961,-1.092277 2.36165,-1.092277 0.11624,0 0.27752,-0.06264 0.3585,-0.139209 0.3763,-0.355787 2.99235,-1.243887 4.79704,-1.628497 0.51148,-0.108996 1.07863,-0.246168 1.26035,-0.304809 0.4057,-0.130937 0.61045,0.256297 0.28037,0.530238 -0.12266,0.101912 -0.22322,0.39609 -0.22322,0.653718 v 0.468417 l 0.99983,-0.09338 c 0.54992,-0.05134 1.36945,-0.197476 1.82119,-0.324699 0.97255,-0.273925 4.17535,-0.556724 6.30512,-0.556724 1.99715,0 4.76929,0.284853 5.42341,0.557285 0.28745,0.119716 0.67375,0.217681 0.85844,0.217681 0.18471,0 0.60145,0.135454 0.92616,0.300999 0.3247,0.16555 0.81027,0.347965 1.07899,0.405378 0.53979,0.115318 0.58421,0.136999 2.85696,1.394758 1.36691,0.756442 1.89393,1.179432 1.89393,1.520019 0,0.0422 -0.61028,0.110136 -1.35617,0.151001 -0.74593,0.04089 -1.93161,0.199068 -2.63489,0.351559 -1.14608,0.248486 -1.2787,0.313852 -1.2787,0.630174 0,0.235393 0.15475,0.433015 0.46498,0.593383 0.25574,0.132244 0.46499,0.308405 0.46499,0.391463 0,0.08303 0.15879,0.151025 0.35298,0.151025 0.19423,0 0.50355,0.105429 0.68752,0.234322 0.184,0.128869 1.00247,0.407856 1.81886,0.619971 2.72113,0.707008 6.98836,0.411796 8.28229,-0.572976 0.20326,-0.154733 0.49502,-0.281312 0.64828,-0.281312 0.15333,0 0.32179,-0.135929 0.37452,-0.302062 0.0528,-0.16612 0.21443,-0.342219 0.35917,-0.3913 0.54867,-0.185945 1.92905,-2.515635 3.1249,-5.273884 0.18471,-0.426231 0.5058,-1.130669 0.71336,-1.565419 0.20753,-0.434748 0.37738,-0.85722 0.37738,-0.938828 0,-0.08161 0.18424,-0.370758 0.40939,-0.642552 0.36252,-0.437589 1.06823,-0.845078 2.61299,-1.508789 0.25574,-0.109875 0.86169,-0.380208 1.3466,-0.600726 0.48488,-0.22051 0.93925,-0.400943 1.00974,-0.400943 0.0706,0 0.37123,-0.129725 0.66834,-0.288293 0.2971,-0.15856 0.71451,-0.339385 0.92765,-0.401831 0.37468,-0.10978 0.9712,-0.364791 2.37382,-1.014803 0.3679,-0.170494 0.78075,-0.309986 0.91742,-0.309986 0.13669,0 0.44594,-0.101864 0.68728,-0.226359 0.83054,-0.428451 2.20232,-1.013591 2.37619,-1.013591 0.0958,0 0.57094,-0.182166 1.05582,-0.404795 0.48488,-0.22265 1.17803,-0.5365 1.54032,-0.697471 2.44957,-1.088363 4.69985,-2.130086 4.99855,-2.313995 0.12789,-0.07873 0.79047,-0.426408 1.47242,-0.772622 0.68198,-0.346211 1.51895,-0.799467 1.85991,-1.007236 0.34102,-0.20777 0.8118,-0.464125 1.04621,-0.569677 0.2344,-0.105548 0.42624,-0.244951 0.42624,-0.309772 0,-0.06483 0.26155,-0.259507 0.58123,-0.432626 0.88729,-0.480518 1.09639,-0.623717 2.43703,-1.66897 0.68421,-0.533488 1.40639,-1.091464 1.60483,-1.239947 0.1985,-0.148482 1.17951,-1.07285 2.1802,-2.054144 1.59107,-1.560269 3.06181,-3.333625 3.70313,-4.465114 0.63634,-1.122648 1.08742,-2.013707 1.19135,-2.353338 0.0652,-0.212856 0.20064,-0.491608 0.30112,-0.619479 0.57327,-0.729452 1.06564,-2.540625 1.32724,-4.882288 0.17521,-1.567495 0.11126,-2.036012 -0.56579,-4.146073 -0.12576,-0.391969 0.29389,-0.343962 0.67741,0.0775 0.90315,0.992458 3.14653,4.913696 3.14653,5.499861 0,0.116341 0.11458,0.433125 0.25465,0.703951 0.27495,0.531689 0.53827,1.463703 0.98941,3.502151 0.15809,0.713666 0.33144,1.411135 0.38552,1.549931 0.18518,0.475567 0.56338,3.507106 0.69845,5.599628 0.13479,2.087666 0.23083,2.626005 0.67703,3.797337 0.1298,0.340985 0.23927,0.814018 0.243,1.051183 0.005,0.237176 0.11577,0.69052 0.24871,1.007458 0.23905,0.569367 0.4249,2.544227 0.62312,6.620985 0.11292,2.320131 -0.26402,7.247668 -0.63458,8.297942 -0.12671,0.359231 -0.23036,0.809012 -0.23036,0.999516 0,0.391385 -0.49248,1.170575 -1.2927,2.045194 -1.25596,1.372769 -1.34217,1.498605 -1.34217,1.959005 0,0.857617 -0.94208,3.31148 -1.82556,4.755062 -0.57513,0.939746 -0.98061,1.395945 -3.43747,3.867377 -2.20572,2.218828 -3.44477,3.534099 -4.03659,4.284941 -0.56133,0.712198 -2.28571,3.463408 -2.61341,4.169652 -0.19778,0.426228 -0.49316,1.05395 -0.65639,1.394937 -0.16332,0.340985 -0.44214,1.344537 -0.61972,2.230117 -0.54978,2.741854 -0.22013,7.21468 0.72641,9.85935 0.9234,2.57968 2.7579,5.7219 4.93161,8.44714 1.05444,1.32201 1.62546,1.97198 3.5168,4.00306 0.3069,0.32956 1.10206,1.25507 1.76701,2.05667 0.665,0.8016 1.25087,1.49233 1.30196,1.53495 0.41045,0.34242 2.1853,3.60849 2.1853,4.02138 0,0.0942 0.14049,0.57048 0.31232,1.05852 0.37819,1.0746 0.64448,3.85529 0.5154,5.38239 l -0.0943,1.11527 0.67948,1.01764 c 1.15577,1.73095 1.87419,2.91654 1.95532,3.22682 0.0428,0.16351 0.12434,0.29728 0.18116,0.29728 0.0998,0 0.56145,0.94019 1.25552,2.55739 0.66543,1.55037 1.0442,2.9803 1.23164,4.6498 0.16355,1.4575 0.15571,1.94397 -0.0552,3.35213 -0.13574,0.90598 -0.35128,1.89764 -0.47918,2.20369 -0.26354,0.63075 -0.30989,2.1471 -0.0789,2.57884 0.0844,0.15792 0.25662,0.659 0.38248,1.11352 0.12599,0.45451 0.44363,1.41924 0.70617,2.14384 0.92731,2.55922 1.74039,5.87113 1.94067,7.90465 0.0544,0.5541 0.19778,1.30632 0.31805,1.67159 0.30046,0.91194 0.2686,2.06616 -0.0948,3.43272 -0.16855,0.63356 -0.30633,1.29004 -0.30633,1.4588 0,0.65426 -1.12918,4.21545 -1.70297,5.37079 -0.63988,1.28838 -0.89778,1.74269 -1.04741,1.84506 -0.16164,0.11062 -0.89297,2.19918 -1.02731,2.93393 -0.0521,0.28387 -0.19279,0.73722 -0.31308,1.00746 -0.12028,0.27024 -0.40256,0.90985 -0.62725,1.42133 -0.22465,0.51147 -0.47703,1.03457 -0.56076,1.16245 -0.0836,0.12786 -0.26061,0.46933 -0.39312,0.75879 -0.13242,0.28949 -0.3229,0.61495 -0.4231,0.72327 -0.10031,0.10831 -0.39148,0.55017 -0.64722,0.98195 -0.25574,0.43174 -0.5155,0.7863 -0.57724,0.78792 -0.0618,0.002 -0.21228,0.19473 -0.33454,0.42915 -0.35478,0.68032 -2.53842,2.76896 -3.6495,3.49072 -1.41762,0.9209 -1.58649,1.02223 -2.02594,1.21564 -0.213,0.0938 -0.51964,0.2397 -0.68119,0.32421 -0.3932,0.2057 -1.89949,0.7296 -2.57365,0.8951 -1.32501,0.32526 -3.70641,0.65675 -4.19362,0.58372 -2.18441,-0.32744 -3.69166,-0.91374 -4.54643,-1.76852 -0.49784,-0.49786 -0.30143,-0.89733 0.36882,-0.75013 1.07576,0.23628 2.76352,-0.59399 3.54727,-1.74504 0.33501,-0.492 0.40407,-0.79406 0.45728,-2.00007 0.0454,-1.02933 0.002,-1.54152 -0.15928,-1.85992 -0.6423,-1.27187 -0.928,-1.56618 -2.20273,-2.26921 -0.75533,-0.41655 -0.86041,-0.43233 -2.49349,-0.37432 -1.43895,0.0511 -1.81194,0.11896 -2.39082,0.43489 -0.65271,0.35625 -1.7713,1.35611 -2.10399,1.88066 -0.0854,0.13443 -0.38167,0.5689 -0.65874,0.9655 -0.27703,0.39658 -0.50373,0.75226 -0.50373,0.7904 0,0.0381 -0.21538,0.54029 -0.47838,1.11592 -1.13294,2.47849 -1.49994,3.41791 -1.61787,4.14112 -0.0551,0.33805 -0.19897,0.80538 -0.3194,1.03852 -0.12053,0.23313 -0.22227,0.58428 -0.22608,0.78033 -0.005,0.19613 -0.11243,0.63541 -0.24181,0.9764 -0.12932,0.34099 -0.33766,1.034 -0.46308,1.53998 -0.12551,0.506 -0.28653,0.99423 -0.35796,1.08496 -0.0713,0.0908 -0.1802,0.44393 -0.24179,0.78492 -0.0616,0.34099 -0.20539,0.79434 -0.31982,1.00746 -0.11435,0.21324 -0.47412,0.93574 -0.79952,1.60586 -0.83941,1.72876 -0.93317,1.90239 -1.72766,3.19893 -0.79667,1.3001 -0.79525,1.29803 -1.3394,1.92131 -0.21561,0.24685 -0.39188,0.49658 -0.39188,0.55491 0,0.1493 -1.82157,1.91918 -2.51008,2.43884 -0.34553,0.26075 -0.6129,0.61665 -0.67413,0.89718 -0.34142,1.56438 -2.51788,5.03543 -3.82122,6.09405 -0.28146,0.22869 -0.721,0.61468 -0.97675,0.85785 -0.25573,0.24321 -0.73598,0.59192 -1.06722,0.77496 -0.99786,0.55143 -1.16465,0.65819 -1.49449,0.95669 -0.17401,0.15762 -0.4012,0.43895 -0.50477,0.62545 -0.62017,1.11643 -0.84639,1.45911 -1.71768,2.60219 -1.11924,1.46836 -1.70918,2.14944 -2.89553,3.34295 -1.70694,1.71722 -3.79173,3.42257 -4.18416,3.42257 -0.0815,0 -0.1481,0.0673 -0.1481,0.14952 0,0.0823 -0.47079,0.45299 -1.04619,0.82378 -1.55803,1.00402 -2.01712,1.26758 -3.29361,1.89089 -0.63935,0.31215 -1.29338,0.63849 -1.45339,0.72519 -0.33471,0.18139 -1.86231,0.59536 -2.19653,0.59536 -0.44422,0 -0.21228,-0.46854 0.4338,-0.87658 1.44188,-0.91054 1.90058,-1.21994 1.94319,-1.31063 0.0245,-0.052 0.25785,-0.33113 0.51864,-0.61998 1.1257,-1.24695 1.91009,-2.74806 2.43911,-4.66798 0.44933,-1.63063 0.43724,-1.82446 -0.11363,-1.82446 -0.38927,0 -0.84738,0.27713 -1.73344,1.04864 -0.49874,0.43422 -1.06706,0.90346 -1.4115,1.16535 -0.19992,0.15215 -0.64271,0.49052 -0.98369,0.75199 -0.34099,0.26147 -1.00359,0.72181 -1.47245,1.02301 -0.46885,0.30115 -1.04143,0.67767 -1.2724,0.83669 -0.23106,0.15903 -0.5166,0.28912 -0.6347,0.28912 -0.11815,0 -0.33271,0.13027 -0.47689,0.28964 -0.14406,0.15927 -0.6955,0.51721 -1.22522,0.79534 -0.52969,0.27816 -1.24207,0.66755 -1.58306,0.86536 -1.17751,0.68304 -4.69679,2.35318 -5.3741,2.55037 l -0.41435,0.12052 0.22465,-0.63676 c 0.12361,-0.35021 0.36233,-0.76501 0.53059,-0.92177 0.16831,-0.15665 0.30593,-0.35203 0.30593,-0.43396 0,-0.0818 0.12956,-0.14904 0.28769,-0.14904 0.15832,0 0.6074,-0.24412 0.99814,-0.54248 0.39077,-0.29839 0.79366,-0.54246 0.89533,-0.54246 0.10175,0 0.29768,-0.12505 0.43553,-0.27776 0.13788,-0.15285 0.55449,-0.37562 0.92586,-0.49525 0.37136,-0.11957 0.70848,-0.30421 0.74918,-0.41023 0.0406,-0.10602 0.27005,-0.23582 0.50965,-0.28848 0.43719,-0.096 1.70831,-1.14681 1.70831,-1.41221 0,-0.078 0.1745,-0.32967 0.38749,-0.55952 0.213,-0.22988 0.38749,-0.49065 0.38749,-0.57964 0,-0.0889 0.092,-0.16165 0.20444,-0.16165 0.52285,0 1.32085,-1.33056 1.81356,-3.02384 0.39508,-1.35777 0.59517,-1.63503 1.37641,-1.90736 0.97618,-0.34033 4.10286,-3.3138 5.08239,-4.83338 0.30221,-0.46887 0.80045,-1.16166 1.10719,-1.53954 1.29303,-1.59299 3.43536,-6.68155 3.43536,-8.15982 0,-0.2882 0.0989,-0.57008 0.22441,-0.6404 0.18614,-0.10413 0.24742,-1.15077 0.3592,-6.13479 0.0742,-3.30505 0.0806,-6.44293 0.0142,-6.97306 -0.62758,-5.01088 -0.97805,-6.81907 -1.50509,-7.76472 -0.38605,-0.69273 -0.42461,-0.87274 -0.30285,-1.41378 0.0911,-0.40476 0.0792,-0.86209 -0.0347,-1.31744 -0.22703,-0.90938 -0.20919,-7.8263 0.0238,-9.06711 0.0958,-0.51148 0.18947,-1.31357 0.20777,-1.78243 0.0328,-0.83691 0.29537,-1.89725 0.87613,-3.53989 0.16094,-0.45511 0.29328,-0.97823 0.29411,-1.16246 0.005,-0.90716 2.63718,-5.47564 3.84495,-6.67107 2.35414,-2.33012 3.26825,-3.15352 3.75972,-3.38675 0.29458,-0.13978 0.70522,-0.43471 0.91252,-0.65539 0.20729,-0.22064 0.79912,-0.63771 1.31512,-0.92675 0.51603,-0.28906 1.40168,-0.8368 1.96817,-1.2172 0.56649,-0.38042 1.36856,-0.81513 1.78243,-0.96603 1.27293,-0.46415 3.52892,-1.48635 3.78701,-1.71592 0.13455,-0.11972 0.35715,-0.21764 0.49458,-0.21764 0.13741,0 0.2933,-0.0702 0.34641,-0.15613 0.22131,-0.35807 1.48019,-0.80002 2.71167,-0.95192 0.7246,-0.0893 1.34588,-0.18989 1.38066,-0.22336 0.0347,-0.0333 0.13978,0.003 0.23345,0.0804 0.0937,0.0777 0.58823,0.0944 1.0992,0.0374 0.511,-0.0571 1.69628,-0.0647 2.634,-0.0166 0.93772,0.0479 1.76261,0.0579 1.83309,0.0221 0.11625,-0.0589 1.87107,-0.0521 4.87028,0.019 0.61798,0.0147 1.12364,0.0688 1.12369,0.12046 5e-5,0.0516 0.57383,0.21777 1.27506,0.36929 0.70127,0.15153 1.38129,0.3299 1.5112,0.39643 0.86497,0.44288 5.14504,2.00783 5.49136,2.00783 0.42454,0 1.45176,0.52039 2.35415,1.19264 0.26377,0.19653 0.54574,0.35729 0.62654,0.35729 0.19017,0 2.5362,2.30598 2.5362,2.49287 0,0.0782 0.0735,0.14202 0.16332,0.14202 0.0896,0 0.41979,0.17436 0.73344,0.38748 0.9314,0.6329 1.89322,0.40956 1.89322,-0.43959 0,-0.31375 -0.53107,-1.474 -0.75653,-1.65283 -0.34553,-0.27406 -0.96505,-1.28973 -0.83746,-1.373 0.0836,-0.0547 0.19373,-0.6061 0.24437,-1.22538 0.0575,-0.70457 0.18162,-1.21567 0.33177,-1.36569 0.60664,-0.60666 0.93849,-3.07173 0.71825,-5.33553 -0.37487,-3.85319 -0.47583,-4.38034 -1.12026,-5.85032 -1.0882,-2.48224 -1.82882,-3.52705 -3.70859,-5.2317 l -0.85456,-0.77497 0.13241,-1.16244 c 0.0728,-0.63935 0.16879,-2.04509 0.21371,-3.12386 0.0732,-1.76954 0.0419,-2.11068 -0.32073,-3.48736 -0.49113,-1.86397 -1.04067,-3.01575 -2.41741,-5.06657 -1.00952,-1.5038 -1.87229,-2.32808 -3.52456,-3.36722 -0.32922,-0.20706 -0.67437,-0.67034 -3.13498,-4.20798 -0.51695,-0.74319 -1.04073,-1.63707 -1.16398,-1.98641 -0.12314,-0.34933 -0.35092,-0.82235 -0.50596,-1.05114 -0.43835,-0.64688 -1.37938,-3.12438 -1.49735,-3.94208 -0.0585,-0.40492 -0.16878,-0.73623 -0.24532,-0.73623 -0.0766,0 -0.26299,-0.34873 -0.4144,-0.77496 -0.21205,-0.59738 -0.35,-0.77496 -0.60153,-0.77496 -0.24982,0 -0.3722,0.1544 -0.52219,0.65872 -0.27144,0.91277 -0.7534,1.9349 -1.27382,2.70155 -0.25263,0.37218 -0.43981,0.85546 -0.43981,1.13562 0,0.33529 -0.14525,0.63309 -0.46504,0.95277 -0.25576,0.25577 -0.50743,0.63401 -0.55926,0.84053 -0.0518,0.20654 -0.145,0.37551 -0.20705,0.37551 -0.13765,0 -0.93851,1.55593 -0.93851,1.8234 0,0.10534 -0.0564,0.19151 -0.12528,0.19151 -0.0689,0 -0.3543,0.43593 -0.63417,0.96871 -0.27984,0.53279 -0.64194,1.08452 -0.80462,1.22604 -0.1626,0.14154 -0.29582,0.40807 -0.29582,0.5923 0,0.18423 -0.0872,0.42773 -0.19374,0.54113 -0.10649,0.1134 -0.52505,0.55879 -0.92996,0.98979 -0.76268,0.81179 -0.89633,1.23453 -0.51189,1.61899 0.2256,0.2256 0.7109,1.02673 1.14501,1.89021 0.12861,0.25573 0.27801,0.49985 0.33207,0.54247 0.0539,0.0425 0.26609,0.53086 0.47119,1.08497 0.31539,0.85213 0.37689,1.31808 0.39887,3.02236 0.0245,1.90419 0.0758,2.31336 0.36037,2.86737 0.0656,0.12788 0.11054,1.35837 0.0996,2.73444 -0.0166,1.96083 -0.0742,2.61449 -0.27136,3.02237 -0.13836,0.28622 -0.37634,0.83428 -0.52874,1.2179 -0.15239,0.3836 -0.39836,0.87608 -0.54648,1.0944 -0.14811,0.2183 -0.31636,0.58448 -0.37391,0.81371 -0.0575,0.22921 -0.16689,0.41679 -0.24279,0.41679 -0.0761,0 -0.13812,0.0948 -0.13812,0.21086 0,0.11596 -0.17448,0.46779 -0.38748,0.78184 -0.213,0.31404 -0.38751,0.64136 -0.38751,0.72737 0,0.23844 -1.71514,2.30923 -1.91611,2.31341 -0.097,0.002 -0.38145,0.281 -0.63225,0.61996 -0.25076,0.33897 -0.54718,0.61632 -0.65872,0.61632 -0.1115,0 -0.20278,0.0698 -0.20278,0.155 0,0.0853 -0.0642,0.15499 -0.14263,0.15499 -0.0784,0 -0.42452,0.27899 -0.76894,0.61998 -0.34451,0.34107 -0.67831,0.62006 -0.74186,0.62006 -0.0635,0 -0.50679,0.27443 -0.98497,0.60985 -0.47817,0.33544 -1.05663,0.65685 -1.28543,0.71429 -0.22869,0.0574 -0.41602,0.15901 -0.41602,0.2258 0,0.0667 -0.19184,0.1692 -0.42621,0.22763 -0.23439,0.0585 -0.63548,0.20361 -0.89122,0.32256 -1.29947,0.60452 -4.97972,1.27808 -7.51719,1.37579 -7.31144,0.28154 -7.77942,0.28695 -8.64147,0.1001 -0.48983,-0.10616 -1.37883,-0.3011 -1.97556,-0.43316 -1.08442,-0.24001 -4.9632,-1.48782 -7.59466,-2.44323 -2.38766,-0.86688 -4.87829,-2.14338 -6.986,-3.58045 -1.66577,-1.13572 -2.37758,-1.75369 -4.00141,-3.47388 -1.08636,-1.15084 -2.16236,-2.38992 -2.3911,-2.75352 -0.22869,-0.3636 -0.82563,-1.23083 -1.32639,-1.92714 -0.50076,-0.69631 -1.21521,-1.74145 -1.58765,-2.32251 -0.74467,-1.16173 -1.16942,-1.34126 -1.76482,-0.74586 -0.26368,0.26365 -0.28969,0.40374 -0.17211,0.92676 0.0761,0.33888 0.28567,0.86568 0.46561,1.17068 0.17995,0.30499 0.32717,0.64778 0.32717,0.76175 0,0.11399 0.2092,0.43125 0.46498,0.70502 0.25574,0.27375 0.46499,0.54339 0.46499,0.5992 0,0.0558 0.17448,0.28948 0.38749,0.51932 0.21322,0.22983 0.38747,0.45133 0.38747,0.49222 0,0.0409 0.38362,0.64745 0.85248,1.34794 0.46886,0.70048 0.85244,1.36406 0.85244,1.47464 0,0.11059 0.0873,0.25684 0.19375,0.32502 0.1065,0.0682 0.56228,0.5332 1.01271,1.0334 0.45044,0.50022 1.07817,1.08523 1.39496,1.30006 0.31679,0.21482 0.68057,0.51064 0.80844,0.65736 0.30145,0.34586 1.75712,1.24044 2.01847,1.24044 0.11102,0 0.8007,0.3698 1.53279,0.82179 2.33998,1.44472 6.28512,3.27971 8.38323,3.89928 1.06559,0.31465 2.53027,0.81056 3.25486,1.10203 0.7246,0.29146 1.94518,0.63265 2.71239,0.75821 0.76721,0.12556 1.91803,0.33744 2.55738,0.47085 2.06373,0.43064 3.73689,0.54803 4.24738,0.29799 0.25909,-0.12692 0.91161,-0.22045 1.53777,-0.22045 h 1.0877 l -0.68528,0.45219 c -0.73592,0.4856 -3.90889,1.78875 -5.18011,2.12751 -0.93795,0.24994 -1.97002,0.27056 -2.19669,0.0439 -0.0916,-0.0915 -0.40181,-0.14378 -0.68973,-0.11624 -0.47584,0.0454 -0.52762,0.0998 -0.56951,0.59733 -0.0347,0.41177 0.0421,0.62706 0.30998,0.86929 0.41296,0.37336 1.59436,0.78366 2.62104,0.91028 0.89189,0.10999 2.97696,1.08704 2.89023,1.35434 -0.0991,0.30511 -2.49566,1.46271 -3.80829,1.83945 -0.98029,0.28133 -1.70793,0.35433 -4.09804,0.41105 -2.16324,0.0513 -2.90612,0.11781 -2.90612,0.2601 0,0.10514 0.10388,0.53355 0.23083,0.95199 0.1645,0.54208 0.23131,1.50484 0.23249,3.34835 0.002,2.49971 -0.0119,2.60199 -0.36557,3.01446 l -0.36728,0.42694 -0.1084,-0.37955 c -0.10317,-0.36143 -0.26718,-0.75867 -0.78046,-1.89076 -0.12552,-0.27705 -0.37273,-0.84781 -0.54914,-1.26835 -0.47875,-1.14124 -1.48091,-2.44718 -3.35426,-4.37085 -1.87829,-1.92877 -2.8991,-2.69169 -3.60162,-2.69169 -0.86847,0 -0.99498,0.89396 -0.24133,1.70493 0.19802,0.21311 0.49917,0.71304 0.66908,1.11095 0.16997,0.39791 0.52037,0.87976 0.77873,1.07077 0.45541,0.33666 1.08499,1.69312 0.78587,1.69312 -0.2557,0 -1.46012,-0.50793 -1.71084,-0.72152 -0.13455,-0.11465 -0.35856,-0.20845 -0.4977,-0.20845 -0.13907,0 -0.37776,-0.12478 -0.53026,-0.27732 -0.30885,-0.30887 -1.53138,-1.11762 -1.68949,-1.11762 -0.0559,0 -0.23272,-0.15158 -0.3935,-0.33683 -0.26624,-0.307 -0.47725,-0.34312 -2.38182,-0.4077 -1.38438,-0.047 -2.0897,-0.0166 -2.0897,0.0897 0,0.12031 -1.21742,0.65477 -1.49147,0.65477 -0.0238,0 0.13669,-0.38878 0.35421,-0.86392 0.37981,-0.82963 0.39276,-0.95431 0.3261,-3.13863 -0.0383,-1.25108 -0.15712,-2.62341 -0.26422,-3.04964 -0.46715,-1.8585 -0.63971,-2.55741 -0.93625,-3.79183 -0.1733,-0.72155 -0.52398,-1.75816 -0.7792,-2.30356 -0.25521,-0.54538 -0.46403,-1.12903 -0.46403,-1.29698 0,-0.16792 -0.20919,-0.78207 -0.46499,-1.36475 -0.25574,-0.58269 -0.46498,-1.1594 -0.46498,-1.2816 0,-0.3174 -0.73634,-1.67068 -1.15804,-2.12825 -0.19635,-0.21313 -0.40382,-0.54235 -0.46096,-0.73163 -0.13955,-0.46221 -1.46572,-1.78161 -2.88188,-2.86719 -0.91661,-0.70263 -1.27472,-0.8874 -1.72714,-0.89121 -0.43922,-0.004 -0.59374,0.0675 -0.67029,0.30869 -0.15951,0.50256 0.0701,1.20723 0.50464,1.54908 0.22132,0.17401 0.54716,0.51696 0.72434,0.76208 0.1771,0.24512 1.11535,1.34127 2.08491,2.43587 1.21352,1.36999 1.90178,2.29349 2.20865,2.96353 0.24521,0.53533 0.44649,1.05878 0.44733,1.1632 0.002,0.10443 0.17757,0.5682 0.3929,1.03064 0.21537,0.46244 0.45654,1.13163 0.5362,1.48711 0.26022,1.16105 0.34834,4.2472 0.15905,5.56441 -0.56127,3.90295 -0.62488,4.17259 -1.17554,4.98349 -0.2937,0.43246 -0.53397,0.86147 -0.53397,0.95332 0,0.0918 -0.17378,0.5401 -0.38596,0.99611 -0.2237,0.48061 -0.38901,1.12228 -0.39323,1.52658 -0.005,0.61453 -0.11743,0.83567 -0.93481,1.8599 -0.51018,0.63937 -1.28339,1.63325 -1.71826,2.20867 -0.43486,0.5754 -0.86927,1.04857 -0.96536,1.05148 -0.096,0.003 -0.52343,0.49872 -0.94965,1.1018 -0.42623,0.6031 -1.00553,1.3505 -1.28735,1.66092 -0.28181,0.31038 -0.60606,0.73872 -0.72056,0.95183 -0.22561,0.41967 -1.38654,1.54995 -1.59219,1.54995 -0.0694,0 -0.29768,-0.31388 -0.50723,-0.69748 -0.20967,-0.3836 -0.44109,-0.69746 -0.5145,-0.69746 -0.0735,0 -0.4735,-0.3313 -0.88903,-0.73622 -0.41557,-0.40492 -1.07791,-1.01243 -1.4719,-1.35003 -0.39401,-0.33761 -0.85929,-0.89558 -1.03402,-1.23994 -0.17473,-0.34438 -0.7266,-1.06462 -1.22645,-1.60053 -0.49989,-0.5359 -0.90884,-1.04078 -0.90884,-1.12194 0,-0.15136 -0.22845,-0.45604 -0.96049,-1.28101 -0.229878,-0.25909 -0.504922,-0.68627 -0.611184,-0.94927 -0.106261,-0.263 -0.251319,-0.51835 -0.322398,-0.56744 -0.241692,-0.16688 -1.215994,-1.76898 -1.312462,-2.15815 -0.05278,-0.2131 -0.137641,-0.42235 -0.188513,-0.46499 -0.198498,-0.16657 -0.790686,-1.48836 -0.790282,-1.76414 3.08e-4,-0.16041 -0.131461,-0.50913 -0.292826,-0.77496 -0.161175,-0.26578 -0.338967,-0.69974 -0.394833,-0.96431 -0.180667,-0.85632 -0.125279,-6.599 0.07251,-7.50111 0.102933,-0.46885 0.235344,-1.16632 0.294799,-1.54993 0.119573,-0.77347 0.655185,-2.07095 0.92312,-2.23654 0.09485,-0.0587 0.172587,-0.27864 0.172587,-0.48886 0,-0.61439 1.754362,-3.82449 2.322303,-4.2493 0.289479,-0.21652 0.932559,-1.35484 0.932559,-1.65072 0,-0.64994 -0.16379,-0.82917 -0.75814,-0.82917 -0.479392,0 -0.6167,0.08 -0.864049,0.50372 -0.378025,0.64754 -1.070913,1.52585 -1.913209,2.42528 -0.902653,0.96387 -2.565992,3.86391 -3.325037,5.79727 l -0.620621,1.58079 0.07512,3.71983 c 0.07084,3.50543 0.09723,3.77433 0.458185,4.6651 l 0.383088,0.94526 -0.398755,-0.2081 c -0.484143,-0.25265 -3.038701,-0.27788 -5.030644,-0.0497 -1.158156,0.13267 -1.587743,0.26797 -2.702278,0.85118 -0.728855,0.38138 -1.413327,0.69343 -1.521014,0.69343 -0.107688,0 -0.626183,0.36617 -1.152191,0.81371 -1.533305,1.30463 -1.498478,1.28648 -1.85285,0.96577 -0.401369,-0.36323 -0.387177,-0.57327 0.08962,-1.32873 0.261398,-0.41413 0.380212,-0.79584 0.348738,-1.12063 -0.04326,-0.44462 -0.102933,-0.49717 -0.614606,-0.5398 -0.500618,-0.0419 -0.617887,0.0217 -1.003828,0.54246 -0.240336,0.32434 -0.71761,0.9109 -1.060571,1.30344 -0.823112,0.94206 -1.879333,2.86169 -2.13952,3.88846 l -0.208482,0.82259 -0.27502,-0.41962 c -0.234869,-0.35829 -0.264537,-0.67554 -0.20349,-2.16991 0.03946,-0.96265 0.163553,-2.04364 0.276185,-2.40218 0.184473,-0.588 0.176389,-0.68294 -0.08201,-0.96871 -0.21181,-0.23403 -0.478296,-0.31681 -1.02004,-0.31681 -0.58791,0 -1.082632,0.17842 -2.494628,0.89957 -1.934414,0.988 -4.544337,1.86929 -6.754103,2.28068 -1.050967,0.19566 -1.981934,0.24967 -3.526102,0.20454 -1.564257,-0.0457 -2.098133,-0.0138 -2.098133,0.12494 0,0.21789 0.887249,1.14007 1.096896,1.14007 0.07869,0 0.143346,0.0872 0.143584,0.19374 3.09e-4,0.10655 0.192079,0.32289 0.426235,0.48077 0.234156,0.15784 0.656754,0.66352 0.939048,1.1237 0.282295,0.46016 0.57871,0.83667 0.658727,0.83667 0.07987,0 0.145486,0.0972 0.145486,0.21589 0,0.11874 0.09937,0.25403 0.220844,0.30063 0.121476,0.0467 0.342342,0.35048 0.490942,0.6753 0.148576,0.32483 0.350284,0.69521 0.448153,0.82309 0.09794,0.12787 0.485,0.92995 0.860291,1.78241 0.375292,0.85246 0.719442,1.58481 0.764775,1.62743 0.04541,0.0425 0.09675,0.21699 0.114106,0.38749 0.01664,0.17047 0.240385,1.21121 0.495318,2.3127 0.431988,1.86655 0.862169,5.42781 0.689417,5.70733 -0.04207,0.068 -0.09961,0.94165 -0.128132,1.9415 -0.127657,4.47839 -0.275734,6.80769 -0.460253,7.24273 -0.173537,0.40897 -0.361552,1.43954 -1.004279,5.50226 -0.08773,0.5541 -0.235583,1.32133 -0.328509,1.70492 -0.22536,0.92932 -0.312223,8.02388 -0.123377,10.07457 0.233442,2.53616 1.062354,6.31888 1.508559,6.88521 0.07251,0.0917 0.217752,0.44597 0.323158,0.78696 0.105311,0.34098 0.39343,1.05607 0.640161,1.58911 0.246732,0.533 0.448581,1.02242 0.448581,1.0876 0,0.0652 0.298507,0.46603 0.663363,0.8908 0.364807,0.42476 0.750891,0.97282 0.857961,1.21792 0.106974,0.24508 0.436267,0.74052 0.731612,1.10093 0.295322,0.36039 0.536966,0.73527 0.536966,0.83307 0,0.0977 0.05563,0.17782 0.123615,0.17782 0.06799,0 0.364452,0.24188 0.658704,0.53754 0.294276,0.29567 0.59188,0.53979 0.661366,0.54248 0.232016,0.01 1.842914,1.77369 2.479841,2.71637 1.639782,2.42702 3.34774,4.40239 4.45638,5.15409 0.389317,0.26398 1.226288,0.70853 1.859935,0.98791 0.633624,0.27936 1.396188,0.6577 1.694551,0.84074 0.298365,0.18305 0.803001,0.41832 1.121429,0.52285 0.46981,0.15429 0.639162,0.32675 0.898279,0.91501 0.175677,0.39872 0.537085,1.00395 0.803215,1.34495 0.936338,1.19965 0.932155,1.13233 0.04445,0.71743 z M 60.651448,159.94077 c -0.06133,-0.32047 0.01426,-0.39587 0.561071,-0.55967 0.347526,-0.10411 1.48191,-0.59769 2.520849,-1.09682 1.739267,-0.83556 1.963415,-0.99397 2.827961,-1.99847 1.264585,-1.46929 1.417012,-2.1574 0.550897,-2.48671 -0.220844,-0.084 -1.188181,-0.15266 -2.149623,-0.15266 -1.314696,0 -1.955808,-0.0726 -2.586056,-0.29277 -1.264038,-0.44161 -4.480318,-1.99335 -4.480318,-2.16158 0,-0.0866 1.266938,-0.17239 3.06112,-0.20744 2.721342,-0.0532 3.114178,-0.0291 3.539129,0.21617 0.393121,0.22698 0.612823,0.25076 1.237413,0.13409 0.417701,-0.0781 0.804807,-0.11383 0.860267,-0.0797 0.158561,0.098 1.898042,-0.25507 2.107808,-0.4279 0.103884,-0.0856 0.609448,-0.16512 1.123711,-0.17695 0.514263,-0.0116 0.935007,-0.0668 0.935007,-0.12215 0,-0.0554 0.156897,-0.13838 0.348738,-0.18451 4.470143,-1.07493 8.078831,-2.46564 10.345793,-3.98705 0.468858,-0.31467 1.218466,-0.75721 1.665787,-0.98346 0.447322,-0.22624 1.339586,-0.89107 1.982789,-1.4774 0.643205,-0.58633 1.462916,-1.26528 1.821567,-1.50878 0.358651,-0.24349 0.744284,-0.5299 0.856916,-0.63646 0.11268,-0.10657 0.30445,-0.19374 0.426235,-0.19374 0.121714,0 0.221319,-0.0684 0.221319,-0.15202 0,-0.0836 0.174488,-0.19582 0.387486,-0.24931 0.213237,-0.0536 0.387487,-0.14765 0.387487,-0.20924 0,-0.0616 0.191842,-0.21099 0.426235,-0.33194 0.234393,-0.12098 0.635454,-0.4114 0.891195,-0.64545 0.255741,-0.23403 0.517306,-0.42583 0.58123,-0.42623 0.06395,0 0.116245,-0.077 0.116245,-0.17002 0,-0.0931 0.139543,-0.34662 0.30999,-0.56337 0.170446,-0.21676 0.309989,-0.52417 0.309989,-0.68318 0,-0.159 0.06989,-0.28909 0.154995,-0.28909 0.08535,0 0.154994,-0.099 0.154994,-0.22 0,-0.121 0.338991,-0.59179 0.753293,-1.04621 0.414325,-0.4544 0.80262,-0.98313 0.862906,-1.17494 0.06038,-0.1918 0.174725,-0.34872 0.254148,-0.34872 0.07963,0 0.144535,-0.11435 0.144535,-0.2541 0,-0.13975 0.199211,-0.57788 0.442709,-0.97357 0.604598,-0.98261 0.861623,-1.74955 0.74376,-2.21919 -0.12314,-0.49021 -0.353064,-0.58211 -1.179599,-0.47125 -0.498027,0.0668 -0.683973,0.17336 -0.790211,0.45279 -0.07631,0.201 -0.210383,0.36545 -0.29777,0.36545 -0.08748,0 -0.158798,0.10224 -0.158798,0.22723 0,0.23381 -0.472639,1.3395 -0.63165,1.4777 -0.04898,0.0425 -0.223459,0.32033 -0.387487,0.61713 -0.164028,0.2968 -0.385489,0.63308 -0.49206,0.74728 -0.106499,0.11423 -0.193744,0.30729 -0.193744,0.42907 0,0.12179 -0.06989,0.22141 -0.154994,0.22141 -0.08535,0 -0.154995,0.10795 -0.154995,0.2399 0,0.13194 -0.174487,0.40148 -0.387486,0.599 -0.212999,0.1975 -0.387463,0.40987 -0.387463,0.47188 0,0.0621 -0.122188,0.27263 -0.27124,0.46801 -0.14929,0.19538 -0.375862,0.512 -0.503733,0.70358 -0.206342,0.30908 -1.221034,1.35849 -1.859934,1.92348 -0.127895,0.11308 -0.6191,0.45126 -1.091666,0.75152 -0.472544,0.30028 -0.951886,0.65764 -1.065161,0.79416 -0.113392,0.13652 -0.302096,0.24821 -0.419531,0.24821 -0.117434,0 -0.213711,0.0523 -0.213711,0.11625 -9.5e-5,0.0639 -0.366258,0.31991 -0.813722,0.56885 -0.447464,0.24891 -0.967147,0.61508 -1.154876,0.81372 -0.1878,0.19861 -0.449294,0.36111 -0.58123,0.36111 -0.131935,0 -0.239908,0.0592 -0.239908,0.13149 0,0.0722 -0.261542,0.24194 -0.58123,0.37691 -0.319664,0.135 -0.790448,0.36539 -1.046189,0.51195 -0.718134,0.41159 -0.954501,0.51619 -1.74552,0.77236 -0.716137,0.23192 -1.067609,0.368 -1.780584,0.68941 -0.19184,0.0865 -1.150834,0.43756 -2.131151,0.7802 -4.059979,1.41907 -5.373344,1.71859 -7.284698,1.66134 -1.24666,-0.0373 -2.04997,-0.0347 -5.192271,0.0171 -1.493724,0.0247 -2.653663,-0.0252 -2.916893,-0.1253 -0.240336,-0.0914 -0.610826,-0.12256 -0.823302,-0.0692 -0.218228,0.0548 -0.635025,-0.007 -0.957947,-0.14267 -0.584391,-0.24499 -2.019185,-0.48039 -4.020849,-0.65963 -0.618362,-0.0554 -1.16303,-0.16334 -1.210336,-0.23991 -0.0473,-0.0766 -0.43515,-0.13919 -0.861861,-0.13919 -0.426711,0 -1.102648,-0.13191 -1.502044,-0.29314 -0.399421,-0.16122 -1.144679,-0.38358 -1.656161,-0.49413 -0.680526,-0.14708 -1.11249,-0.35946 -1.610517,-0.79182 -0.374292,-0.32494 -0.767508,-0.59081 -0.873793,-0.59081 -0.219418,0 -1.828176,-1.06743 -1.907171,-1.26541 -0.02853,-0.0712 -0.112443,-0.12952 -0.186612,-0.12952 -0.07417,0 -0.302548,-0.15694 -0.507274,-0.34874 -0.462178,-0.43297 -2.067061,-1.85716 -2.582846,-2.29207 -0.211097,-0.1779 -0.641873,-0.46859 -0.957496,-0.64598 -0.315623,-0.17739 -0.611207,-0.47131 -0.656849,-0.65319 -0.04564,-0.18186 -0.329673,-0.61886 -0.631199,-0.97111 -0.301502,-0.35225 -0.54821,-0.70015 -0.54821,-0.77311 0,-0.0729 -0.155232,-0.41061 -0.34484,-0.75032 -0.292777,-0.52444 -0.349165,-0.88088 -0.373555,-2.36136 -0.01664,-0.95902 0.01664,-1.74373 0.0737,-1.74381 0.05634,-6e-5 0.09937,-0.88933 0.09581,-1.97616 -0.0047,-1.18541 0.08131,-2.34811 0.212761,-2.90599 0.415847,-1.76361 0.559312,-2.24739 0.666501,-2.24739 0.05919,0 0.154756,-0.279 0.212285,-0.61998 0.05753,-0.34099 0.165216,-0.61998 0.2391,-0.61998 0.07393,0 0.179718,-0.24135 0.23487,-0.53634 0.05539,-0.29497 0.285171,-0.73863 0.510745,-0.98591 0.225597,-0.24727 0.619384,-0.80668 0.875125,-1.24315 0.255741,-0.43648 0.509723,-0.7949 0.564422,-0.79651 0.05468,-0.002 0.145487,-0.18626 0.201589,-0.41035 0.0561,-0.22408 0.273047,-0.65875 0.481791,-0.96594 0.49099,-0.72255 0.478296,-0.95793 -0.08131,-1.50694 -0.253364,-0.24863 -0.462607,-0.50935 -0.464985,-0.57937 -0.0024,-0.07 -0.09152,-0.22356 -0.198021,-0.34115 -0.1065,-0.11761 -0.368113,-0.43255 -0.581206,-0.69985 -0.213237,-0.26732 -0.499906,-0.60984 -0.637332,-0.76115 -0.137403,-0.15131 -0.38152,-0.51143 -0.542481,-0.80026 -0.160937,-0.28884 -0.334831,-0.56002 -0.386417,-0.60264 -0.05159,-0.0425 -0.183758,-0.35648 -0.293706,-0.69748 -0.109827,-0.34097 -0.245803,-0.65483 -0.301882,-0.69746 -0.0561,-0.0426 -0.258665,-0.33544 -0.450221,-0.65071 -0.29544,-0.48631 -0.878453,-0.89881 -1.017116,-0.71964 -0.764371,0.98783 -1.330648,1.82746 -1.330648,1.973 0,0.32221 -4.782081,5.15801 -5.734752,5.79915 -0.298365,0.20081 -1.065563,0.70132 -1.704916,1.11226 -1.524082,0.97959 -2.135763,1.56753 -3.437742,3.30429 -1.769221,2.36005 -2.393026,4.01703 -2.558314,6.79549 -0.09081,1.5256 -0.0794,1.60222 0.385728,2.59613 0.263585,0.56326 0.552655,1.02413 0.642395,1.02413 0.08962,0 0.163077,0.0722 0.163077,0.16063 0,0.27257 -1.279608,1.4738 -2.014906,1.89145 -0.709243,0.40286 -1.704916,1.37442 -1.704916,1.66364 0,0.0875 -0.06966,0.1591 -0.154995,0.1591 -0.08535,0 -0.154995,0.14019 -0.154995,0.31151 0,0.17133 -0.139542,0.43095 -0.309989,0.57691 -0.170446,0.14599 -0.309989,0.35456 -0.309989,0.46347 0,0.10893 -0.07417,0.19804 -0.164741,0.19804 -0.09058,0 -0.144772,0.12206 -0.120049,0.27124 0.02449,0.14917 -0.0095,0.35647 -0.07417,0.46065 -0.259759,0.41401 -0.448961,3.07173 -0.433368,6.08782 0.01664,3.26177 0.105311,4.43497 0.345363,4.58334 0.208244,0.12871 0.16379,1.35148 -0.0618,1.69816 -0.295702,0.45451 -0.608211,1.44572 -0.507298,1.60901 0.04849,0.0785 0.01188,0.16798 -0.08059,0.19891 -0.115057,0.0383 -0.133123,0.41834 -0.05658,1.19339 l 0.111967,1.13715 0.705034,-0.0795 c 0.389175,-0.0439 0.786336,-0.19068 0.886536,-0.3277 0.09984,-0.13651 0.295869,-0.24822 0.435649,-0.24822 0.139781,0 0.254148,-0.061 0.254148,-0.13562 0,-0.0746 0.209195,-0.17746 0.464985,-0.22861 0.275043,-0.055 0.464983,-0.19047 0.464983,-0.33164 0,-0.29574 0.885014,-0.85271 1.356178,-0.8535 0.191842,0 0.348738,-0.0703 0.348738,-0.15556 0,-0.0853 0.139543,-0.155 0.309989,-0.155 0.170448,0 0.30999,-0.0697 0.30999,-0.15499 0,-0.0853 0.09604,-0.15499 0.213474,-0.15499 0.117434,0 0.303809,-0.10881 0.414159,-0.24175 0.218466,-0.26329 1.335996,-0.8432 1.624828,-0.8432 0.09865,0 0.295749,-0.12862 0.438003,-0.28581 0.142156,-0.15719 0.658726,-0.37254 1.14772,-0.47856 0.488994,-0.10602 1.183307,-0.28971 1.542885,-0.40816 0.359578,-0.11848 0.952433,-0.24662 1.317454,-0.28476 0.364998,-0.0381 1.221605,-0.1762 1.903581,-0.30683 0.681976,-0.13058 1.518923,-0.19945 1.859911,-0.15297 0.340988,0.0464 1.212832,0.0662 1.937432,0.0439 5.836758,-0.17967 7.678127,-0.057 9.84206,0.65553 0.511483,0.16845 1.347003,0.37906 1.856726,0.46806 0.509723,0.089 1.065778,0.25918 1.235678,0.37819 0.169971,0.11903 0.415466,0.21701 0.54569,0.2178 0.130272,0.002 0.585485,0.17297 1.01172,0.38266 0.426235,0.20964 0.862145,0.38338 0.968717,0.38605 0.106498,0.003 0.193743,0.0668 0.193743,0.14259 0,0.0758 0.244116,0.18354 0.542457,0.2395 0.298365,0.0561 0.542481,0.16836 0.542481,0.24975 0,0.0814 0.113393,0.14797 0.252199,0.14797 0.339323,0 2.585604,1.09335 2.72945,1.32854 0.06276,0.10274 0.289521,0.2308 0.503732,0.28454 0.214187,0.0538 0.389459,0.19293 0.389459,0.3093 0,0.11634 0.469477,0.44499 1.04329,0.73033 0.573812,0.28534 1.368992,0.85143 1.767057,1.25795 0.398065,0.40653 0.800409,0.73916 0.894119,0.73916 0.09366,0 0.170447,0.0827 0.170447,0.18373 0,0.26464 0.633979,0.90121 0.897541,0.90121 0.152143,0 0.200876,-0.11835 0.152856,-0.37037 z m 17.393933,-20.44011 c 0.298342,-0.0871 0.751724,-0.24768 1.007442,-0.35677 1.750772,-0.74689 2.371915,-1.03152 2.712381,-1.24292 0.212998,-0.13231 0.579304,-0.32072 0.813721,-0.41868 0.234394,-0.098 0.426236,-0.23257 0.426236,-0.29912 0,-0.0665 0.104597,-0.12102 0.232492,-0.12102 0.127894,0 0.232491,-0.0638 0.232491,-0.14171 0,-0.078 0.366163,-0.36679 0.813721,-0.64189 0.86015,-0.52873 0.985381,-0.66368 1.777541,-1.91547 0.860838,-1.3603 1.077783,-1.84186 1.332668,-2.9582 0.292921,-1.28279 0.476561,-4.5723 0.255243,-4.5723 -0.08225,0 -0.14929,-0.13536 -0.14929,-0.30083 0,-0.16548 -0.05776,-0.33651 -0.128132,-0.38009 -0.0706,-0.0435 -0.252722,-0.51848 -0.404935,-1.05535 -0.501689,-1.76971 -0.505254,-1.77466 -1.848144,-2.56811 -1.369515,-0.80917 -2.792161,-1.43003 -3.278968,-1.43096 -0.168782,-3e-4 -0.535349,-0.1398 -0.814458,-0.30998 -0.279109,-0.17016 -0.610398,-0.3094 -0.736224,-0.3094 -0.331908,0 -0.283174,0.61955 0.07916,1.00513 0.349735,0.37227 0.455332,1.00032 0.569795,3.388 0.0794,1.65637 0.07322,1.69561 -0.42305,2.70368 -0.868089,1.76338 -2.505944,3.21168 -4.099132,3.62472 -0.425022,0.11021 -0.820496,0.26798 -0.878857,0.35064 -0.05848,0.0827 -0.836471,0.14354 -1.729164,0.13526 -1.354538,-0.0126 -1.785742,-0.0802 -2.606286,-0.40903 -1.957163,-0.78423 -2.648505,-1.24439 -3.439073,-2.289 -1.379927,-1.82333 -1.543242,-2.27505 -1.647578,-4.55709 -0.07987,-1.74703 -0.05539,-2.08673 0.184472,-2.5551 0.152143,-0.29709 0.276613,-0.6513 0.276613,-0.78714 0,-0.13583 0.220368,-0.57959 0.489612,-0.98614 0.444064,-0.67041 1.110993,-1.19257 2.958994,-2.31669 0.462772,-0.28151 0.592996,-1.00978 0.232492,-1.30021 -0.321756,-0.2592 -1.662531,-0.53204 -3.125874,-0.63608 -0.789761,-0.0562 -1.406672,-0.17187 -1.439288,-0.27003 -0.199448,-0.60038 -0.436884,-0.71256 -1.119146,-0.52885 -0.515737,0.13888 -0.77338,0.13705 -1.123472,-0.008 -0.3606,-0.14934 -0.580303,-0.14655 -1.065351,0.0135 -0.573075,0.18913 -0.7812,0.4118 -1.485998,1.58982 -0.09675,0.16158 -0.253626,0.37164 -0.348738,0.46676 -0.09509,0.0951 -0.173062,0.33431 -0.173062,0.53153 0,0.19722 -0.06728,0.4797 -0.149526,0.62772 -0.230115,0.41424 -0.80041,2.49447 -0.944897,3.44649 -0.241858,1.59347 -0.473233,5.34449 -0.372843,6.04475 0.18376,1.28183 0.653164,2.2939 1.955071,4.21534 1.384421,2.04317 3.467148,4.27478 4.600392,4.92926 0.369039,0.21312 0.789521,0.49787 0.934413,0.63282 0.14501,0.1349 0.592759,0.37106 0.995222,0.52477 0.402487,0.1537 0.731779,0.33975 0.731779,0.41341 0,0.0736 0.133599,0.13393 0.297081,0.13393 0.163314,0 0.322516,0.0764 0.353587,0.16962 0.06728,0.20203 1.165216,0.43222 2.139211,0.44855 0.383611,0.006 0.83697,0.11852 1.007464,0.2491 0.254148,0.19467 0.784648,0.23224 2.944873,0.20858 1.449176,-0.0159 2.879,-0.10015 3.177365,-0.18728 z m 62.860079,-0.8935 c 0.50582,-0.088 1.19866,-0.25589 1.53964,-0.37318 0.34099,-0.1173 1.38719,-0.43298 2.3249,-0.70153 0.93772,-0.26855 1.87929,-0.59333 2.0924,-0.72171 0.21324,-0.12839 0.84063,-0.44672 1.39452,-0.7074 1.97926,-0.93155 3.50162,-2.16392 4.82353,-3.90466 1.1822,-1.55679 1.77029,-2.72684 2.00126,-3.98192 0.25312,-1.37525 0.0578,-7.69324 -0.26761,-8.65512 -0.23582,-0.69699 -0.90078,-1.78594 -1.74597,-2.85911 -0.25903,-0.3289 -0.47098,-0.68666 -0.47098,-0.79504 0,-0.34717 -1.21799,-1.47461 -1.5885,-1.47038 -0.31042,0.004 -1.36611,0.23454 -3.52016,0.77027 -0.38026,0.0945 -0.76542,0.2334 -0.8559,0.30848 -0.0906,0.075 -0.52039,0.16771 -0.95532,0.20582 -0.58285,0.051 -0.91821,0.18279 -1.27529,0.50093 -0.26644,0.23741 -0.48445,0.52483 -0.48445,0.6387 0,0.11387 0.26806,0.4685 0.59571,0.78809 0.3276,0.31958 0.6868,0.75542 0.79817,0.96853 0.11126,0.21312 0.49473,0.84083 0.85193,1.39494 0.3572,0.5541 0.73037,1.24455 0.82924,1.53432 0.19564,0.57294 0.24847,2.99518 0.0694,3.17427 -0.26183,0.26184 -0.66426,1.62367 -0.66441,2.24823 -9e-5,0.6227 -0.0748,0.7527 -0.8913,1.55274 -1.24886,1.22352 -2.26182,1.875 -2.91543,1.875 -0.34441,0 -0.63118,0.11087 -0.80165,0.30998 -0.21727,0.25366 -0.45723,0.30999 -1.32059,0.30999 -1.58683,0 -3.31388,-0.79636 -4.69814,-2.16642 -0.34648,-0.34291 -0.69519,-0.62378 -0.77495,-0.62418 -0.18566,-0.002 -1.1525,-0.9028 -1.1525,-1.07498 0,-0.0714 -0.24293,-0.39928 -0.53981,-0.72835 -0.60273,-0.66809 -0.81187,-1.1309 -0.57681,-1.27642 0.20301,-0.12561 0.16189,-3.43894 -0.0459,-3.70587 -0.45138,-0.57989 -0.6013,-0.65334 -1.33367,-0.65334 -0.87669,0 -1.82427,0.42226 -3.11698,1.38902 -2.11121,1.57885 -2.84881,4.78244 -1.82351,7.91994 0.49835,1.52506 0.76855,2.02082 2.25939,4.14589 0.85787,1.22281 1.06065,1.41132 2.19933,2.04448 0.68988,0.38361 1.41633,0.851 1.61432,1.03864 0.19803,0.18763 0.67298,0.47723 1.05554,0.64352 0.7966,0.34633 3.03008,0.66832 3.95816,0.57066 0.34529,-0.0363 0.973,-0.009 1.39495,0.0623 1.08221,0.18104 1.0054,0.18085 2.01741,0.004 z m -29.38154,-9.88736 c 1.78046,-0.89741 2.64695,-1.41047 3.38833,-2.00625 0.34283,-0.27551 0.67365,-0.50092 0.73515,-0.50092 0.11839,0 2.09423,-1.98866 3.78117,-3.80555 0.55413,-0.59678 1.25159,-1.19768 1.54995,-1.33534 1.66058,-0.76613 1.76264,-0.83574 1.88255,-1.28406 0.0668,-0.24957 0.22844,-0.5137 0.35933,-0.58697 0.13099,-0.0733 0.23803,-0.23189 0.23803,-0.35253 0,-0.12064 0.13954,-0.29398 0.30998,-0.38523 0.17044,-0.0913 0.30998,-0.26179 0.30998,-0.37901 0,-0.11722 0.26427,-0.55069 0.58724,-0.96326 0.323,-0.41258 0.77641,-1.0765 1.00759,-1.47539 0.2313,-0.3989 0.5153,-0.82025 0.63138,-0.93634 0.31016,-0.31016 2.43561,-4.10086 2.80524,-5.00312 0.17473,-0.42624 0.43919,-0.94741 0.58791,-1.15819 0.14857,-0.21078 0.27039,-0.44068 0.27039,-0.51089 0,-0.0702 0.25253,-0.66499 0.56118,-1.3217 0.56293,-1.19776 1.14375,-3.01862 1.14375,-3.58568 0,-0.7731 -1.19818,-0.97266 -3.25488,-0.54214 -0.68839,0.14411 -1.43106,0.2034 -1.82116,0.14538 -0.5179,-0.077 -0.6587,-0.0498 -0.6587,0.12744 0,0.28053 -0.331,0.41356 -1.02901,0.41356 -0.71601,0 -1.91586,0.30927 -1.91586,0.49382 0,0.0809 -0.14811,0.10001 -0.32935,0.0425 -0.18114,-0.0575 -0.37296,-0.0431 -0.42624,0.0318 -0.10601,0.14929 -2.30024,0.75048 -3.89423,1.067 -0.55408,0.11002 -1.53055,0.41462 -2.1699,0.67686 -0.63935,0.26226 -1.24963,0.47705 -1.35618,0.47735 -0.1065,3.1e-4 -0.19375,0.0634 -0.19375,0.14021 0,0.20071 -1.04728,0.79028 -1.40381,0.79028 -0.1657,0 -0.30112,0.0697 -0.30112,0.155 0,0.0853 -0.13954,0.15499 -0.30999,0.15499 -0.17045,0 -0.30999,0.10203 -0.30999,0.22671 0,0.12469 -0.40104,0.50168 -0.8912,0.83775 -1.36105,0.93315 -3.0126,2.7967 -3.2236,3.63739 -0.058,0.23161 -0.21966,0.47958 -0.35908,0.55107 -0.28051,0.14384 -0.6409,0.0644 -0.6409,-0.14126 0,-0.0727 -0.32184,-0.60748 -0.7152,-1.18828 -1.18186,-1.74495 -2.85806,-3.14841 -3.76029,-3.14841 -0.25676,0 -2.940211,-1.2343 -3.90724,-1.79719 -0.291161,-0.16946 -0.878121,-0.43387 -1.304355,-0.58754 -0.426236,-0.15367 -1.017996,-0.38848 -1.315053,-0.52179 -0.611944,-0.27464 -1.379927,-0.49311 -2.165289,-0.61591 -0.294489,-0.046 -0.63077,-0.17905 -0.747278,-0.29558 -0.116484,-0.1165 -0.422075,-0.21183 -0.679052,-0.21183 -0.478059,0 -1.732398,-0.27972 -3.564519,-0.7949 -0.567347,-0.15949 -1.177626,-0.29001 -1.356202,-0.29001 -0.17853,0 -0.324681,-0.0779 -0.324681,-0.17306 0,-0.0951 -0.126468,-0.13998 -0.281201,-0.0995 -0.154756,0.0404 -0.695194,0.0126 -1.201185,-0.0618 -0.50599,-0.0745 -1.412494,-0.17021 -2.014477,-0.21281 -1.017711,-0.0721 -1.120074,-0.0503 -1.45935,0.31094 l -0.364903,0.38841 0.290139,1.28011 c 0.159511,0.70408 0.379951,1.4545 0.489707,1.66761 0.109828,0.21313 0.199925,0.49772 0.200637,0.63246 4.52e-4,0.13474 0.174963,0.58809 0.387796,1.00745 0.212761,0.41937 0.387106,0.85106 0.387463,0.9593 3.08e-4,0.10827 0.164741,0.45699 0.365496,0.77498 0.200638,0.31797 0.417915,0.75251 0.482814,0.96563 0.0649,0.21312 0.239243,0.52698 0.387463,0.69746 0.148338,0.1705 0.433176,0.72847 0.633148,1.23996 0.199924,0.51147 0.419388,0.99621 0.487614,1.07719 0.06822,0.081 0.124091,0.2728 0.124091,0.42623 0,0.15346 0.09295,0.27899 0.206342,0.27899 0.113394,0 0.305259,0.19182 0.426236,0.42624 0.121,0.23442 0.307112,0.51841 0.413659,0.63103 0.1065,0.11266 0.193743,0.32448 0.193743,0.4707 0,0.26266 0.272477,0.58554 2.5949,3.07507 0.651952,0.69888 1.281129,1.45342 1.39816,1.67676 0.16593,0.31674 0.310085,0.39587 0.655114,0.35968 0.385323,-0.0404 0.722959,0.23295 2.619289,2.12058 3.073885,3.05978 3.370609,3.31214 6.039864,5.13684 0.68436,0.46782 2.15726,1.16468 2.70345,1.27908 0.23866,0.05 1.84284,0.0895 3.56483,0.0878 l 3.13093,-0.003 1.31744,-0.66405 z M 44.993049,115.37184 c 0.191842,-0.16001 0.348738,-0.35896 0.348738,-0.44211 0,-0.29703 0.42488,-0.96273 0.790496,-1.23849 0.905577,-0.68303 5.140329,-1.16153 10.551636,-1.19226 4.674252,-0.0266 4.888534,-0.065 4.701162,-0.84423 -0.05278,-0.21944 -0.182333,-0.46873 -0.287667,-0.55398 -0.105548,-0.0853 -0.341796,-0.39911 -0.525199,-0.69747 -0.183521,-0.29836 -0.476917,-0.63025 -0.65226,-0.73752 -0.175439,-0.10729 -0.318786,-0.3028 -0.318786,-0.43447 0,-0.13168 -0.174487,-0.49601 -0.387486,-0.80964 -0.405981,-0.59743 -0.494271,-0.96324 -0.232492,-0.96324 0.08535,0 0.154995,-0.1395 0.154995,-0.30998 0,-0.17049 -0.06966,-0.31 -0.154995,-0.31 -0.08535,0 -0.154994,-0.096 -0.154994,-0.21352 0,-0.11743 -0.108639,-0.30368 -0.24143,-0.41389 -0.132887,-0.11021 -0.340632,-0.41518 -0.46187,-0.6777 -0.263325,-0.57023 -0.568869,-1.06375 -0.734584,-1.18653 -0.264323,-0.19586 -1.218466,-1.79571 -1.297842,-2.17617 -0.0466,-0.22301 -0.252104,-0.58615 -0.456854,-0.80694 -0.204678,-0.22082 -0.372272,-0.47858 -0.372272,-0.57283 0,-0.25368 -0.799791,-1.901517 -1.040342,-2.14345 -0.217515,-0.218634 -0.943969,-1.74173 -1.619383,-3.394731 -0.113156,-0.277045 -0.255742,-0.50373 -0.316765,-0.50373 -0.06086,0 -0.197071,-0.296426 -0.302382,-0.658722 -0.105311,-0.362288 -0.352209,-0.874545 -0.548686,-1.138331 -0.196595,-0.263775 -0.357248,-0.54567 -0.357248,-0.62642 0,-0.08071 -0.244117,-0.405637 -0.542481,-0.721946 -0.298365,-0.31632 -0.542481,-0.655571 -0.542481,-0.753888 0,-0.09832 -0.174488,-0.407353 -0.387486,-0.686775 -0.212999,-0.279402 -0.387487,-0.547554 -0.387487,-0.595878 0,-0.0484 -0.369728,-0.454688 -0.821661,-0.903003 -0.451909,-0.448324 -0.95519,-1.041154 -1.118363,-1.317406 -0.163314,-0.276259 -0.385703,-0.502285 -0.494461,-0.502285 -0.108877,0 -0.284886,-0.139496 -0.391361,-0.309984 -0.106499,-0.170494 -0.26399,-0.312189 -0.350045,-0.314887 -0.197784,-0.0057 -1.008915,-0.713215 -1.008915,-0.879382 0,-0.0683 -0.209195,-0.321673 -0.464983,-0.563044 -0.255741,-0.241381 -0.464985,-0.52054 -0.464985,-0.620349 0,-0.0998 -0.255883,-0.390321 -0.56863,-0.645581 -0.312746,-0.255259 -0.678933,-0.594723 -0.813721,-0.754354 -0.134789,-0.15963 -0.337256,-0.368882 -0.449936,-0.464978 -0.11268,-0.09614 -0.334665,-0.292129 -0.493345,-0.435609 -0.15856,-0.143489 -0.484999,-0.385924 -0.725122,-0.538756 -0.240123,-0.152831 -0.492369,-0.366738 -0.560548,-0.475348 -0.06822,-0.108615 -0.347145,-0.311341 -0.619955,-0.450525 -0.514263,-0.26236 -2.465079,-1.922886 -3.296915,-2.806287 -0.261803,-0.278025 -0.558218,-0.505494 -0.658727,-0.505494 -0.100556,0 -0.182807,-0.05722 -0.182807,-0.127086 0,-0.250399 -0.885348,-1.112866 -1.142396,-1.112866 -0.144297,0 -0.301407,-0.101959 -0.349214,-0.226596 -0.04778,-0.124614 -0.234393,-0.273379 -0.414538,-0.330559 -0.423834,-0.134527 -1.349167,-1.100597 -2.36129,-2.465218 -0.442567,-0.596724 -1.163007,-1.465911 -1.600985,-1.931526 -0.437955,-0.465617 -0.796297,-0.928945 -0.796297,-1.029621 0,-0.100675 -0.104598,-0.223197 -0.232492,-0.272265 -0.127894,-0.04906 -0.233205,-0.178577 -0.233918,-0.287821 -5.94e-4,-0.109234 -0.244854,-0.455502 -0.542481,-0.769484 -0.297627,-0.313983 -0.541126,-0.676038 -0.541126,-0.804567 0,-0.128537 -0.06205,-0.272021 -0.137878,-0.318868 -0.07583,-0.04686 -0.185899,-0.277643 -0.244426,-0.512875 -0.05872,-0.235226 -0.212999,-0.671812 -0.342962,-0.970176 -0.130033,-0.298361 -0.298982,-0.699406 -0.375528,-0.891212 -0.328223,-0.822284 -0.538369,-1.208984 -0.720179,-1.325144 -0.106736,-0.06818 -0.19398,-0.285115 -0.19398,-0.482099 0,-0.196977 -0.159512,-0.594564 -0.354348,-0.883511 -0.194932,-0.288945 -0.450507,-0.769471 -0.568012,-1.067834 -0.117435,-0.298361 -0.306781,-0.652586 -0.420602,-0.78717 -0.113869,-0.134574 -0.207055,-0.355477 -0.207055,-0.490879 0,-0.135406 -0.150954,-0.583264 -0.335354,-0.995251 -0.184472,-0.411988 -0.322446,-0.805838 -0.306685,-0.875227 0.01664,-0.06939 -0.04469,-0.398998 -0.134551,-0.73247 -0.08986,-0.333472 -0.197785,-1.288031 -0.239933,-2.121244 -0.103409,-2.043646 -0.171397,-2.393936 -0.647767,-3.338098 -0.568916,-1.127528 -0.832668,-2.927966 -0.959017,-6.546474 -0.05943,-1.704929 -0.121476,-3.122154 -0.137404,-3.149395 -0.01664,-0.02724 -0.181619,-0.02724 -0.367921,0 -0.426022,0.06228 -1.104194,1.187627 -1.343081,2.228613 -0.336258,1.465504 -0.643037,4.242173 -0.643037,5.820259 0,1.382807 -0.192793,2.518877 -0.470665,2.77269 -0.08843,0.08073 -0.332549,0.875648 -0.595113,1.937416 -0.08439,0.340986 -0.302073,1.143078 -0.483907,1.782424 -1.253221,4.406792 -1.188228,8.67303 0.172825,11.351158 0.07512,0.14803 0.13669,0.384142 0.13669,0.524704 0,0.140565 0.174249,0.417167 0.387485,0.614677 0.213,0.1975 0.387487,0.419033 0.387487,0.492275 0,0.07324 0.124091,0.268375 0.275853,0.433633 0.612656,0.667311 1.27407,1.9472 1.27407,2.465404 0,0.293071 0.07845,0.727943 0.174249,0.966383 0.208958,0.519637 0.346551,0.874157 0.619622,1.595975 0.404911,1.070316 2.604361,4.173232 3.812819,5.378994 0.666001,0.664523 1.872297,1.657753 2.680646,2.207187 3.393216,2.306328 6.023703,4.981687 7.728334,7.86015 0.771858,1.303382 1.723577,3.647366 1.723577,4.245019 0,0.230329 0.104597,0.715331 0.232492,1.077745 0.127895,0.362433 0.232492,0.855269 0.232492,1.095203 0,0.239945 0.173299,0.91642 0.384896,1.503274 0.541267,1.500606 0.861598,3.221176 1.002281,5.383686 0.12837,1.97304 0.443042,3.79733 0.65509,3.79733 0.07013,0 0.127657,0.20925 0.127657,0.46499 0,0.25574 0.06966,0.46497 0.154995,0.46497 0.08535,0 0.154995,0.13539 0.154995,0.30085 0,0.16545 0.06965,0.34395 0.154994,0.39662 0.08535,0.0527 0.154995,0.22113 0.154995,0.37434 0,0.15322 0.244092,0.59828 0.542457,0.98902 0.298364,0.39076 0.542481,0.81926 0.542481,0.95225 0,0.13297 0.06822,0.24178 0.151904,0.24178 0.08344,0 0.288143,0.26719 0.454737,0.59373 0.166643,0.32655 0.795703,1.04146 1.398042,1.58868 0.60234,0.54722 1.095184,1.117 1.095209,1.2662 4.7e-5,0.35553 0.44713,0.34048 0.891242,-0.0301 z m 123.507671,-0.89996 c 0.11315,-0.14918 0.20824,-0.39549 0.21086,-0.54735 0.002,-0.15186 0.10958,-0.31624 0.23748,-0.36531 0.1279,-0.0491 0.23249,-0.15254 0.23249,-0.22997 0,-0.0774 0.31389,-0.46368 0.69747,-0.85837 0.38364,-0.3947 0.69748,-0.77789 0.69748,-0.85156 0,-0.0736 0.2092,-0.35284 0.46499,-0.62045 0.25574,-0.26762 0.46498,-0.57586 0.46498,-0.68499 0,-0.10914 0.0872,-0.29378 0.19374,-0.41031 0.1065,-0.11655 0.32535,-0.45282 0.48624,-0.74729 0.16093,-0.29448 0.55784,-1.02364 0.88209,-1.62036 0.32427,-0.59673 0.76777,-1.71269 0.98555,-2.4799 0.21775,-0.76721 0.52834,-1.70879 0.6901,-2.09241 0.5717,-1.35564 0.7678,-1.96527 1.49572,-4.649801 0.40451,-1.491806 0.97851,-3.409846 1.27555,-4.262311 0.29701,-0.852467 0.67365,-1.968419 0.83697,-2.479898 0.16331,-0.511471 0.44052,-1.278685 0.61606,-1.704922 0.17544,-0.42623 0.39316,-0.984202 0.48361,-1.239945 0.8536,-2.413387 1.64507,-3.675746 2.53869,-4.049112 0.29353,-0.12264 0.57135,-0.32116 0.6174,-0.441126 0.0459,-0.119954 0.28669,-0.262702 0.5348,-0.317204 0.24811,-0.05451 0.50383,-0.181358 0.56826,-0.281924 0.0644,-0.100556 0.5008,-0.385517 0.96966,-0.633222 0.46884,-0.247693 1.08157,-0.648188 1.36158,-0.889984 0.28001,-0.241797 0.60087,-0.439624 0.71304,-0.439624 0.11221,0 0.36225,-0.206604 0.55577,-0.459131 0.19351,-0.252525 0.59122,-0.538126 0.88378,-0.634677 0.61031,-0.201421 2.22056,-1.702587 2.22056,-2.07013 0,-0.135264 0.0908,-0.245919 0.20183,-0.245919 0.11102,0 0.32395,-0.339561 0.4732,-0.754577 0.14929,-0.415024 0.39077,-0.885813 0.53676,-1.04621 0.48793,-0.536117 0.85354,-2.407732 0.76696,-3.926149 -0.0772,-1.356842 -0.0739,-1.373494 0.32226,-1.553993 0.92889,-0.423231 2.15813,-1.347251 2.73622,-2.05681 1.02651,-1.259973 1.27507,-1.845047 1.38316,-3.255599 0.0538,-0.703209 0.17092,-2.115527 0.26031,-3.138484 0.22559,-2.584684 -0.13052,-7.420921 -0.62887,-8.538748 -0.23226,-0.520858 -0.38425,-1.298628 -0.4821,-2.465775 -0.0787,-0.937711 -0.21158,-2.402398 -0.29561,-3.254861 -0.0839,-0.852463 -0.19469,-2.177657 -0.24576,-2.944873 -0.0511,-0.767216 -0.15238,-1.534435 -0.22512,-1.704927 -0.0727,-0.170493 -0.21205,-0.571537 -0.30985,-0.891211 -0.0977,-0.319674 -0.24214,-0.581225 -0.32078,-0.581225 -0.0787,0 -0.14287,-0.174369 -0.14287,-0.387481 0,-0.213118 -0.0652,-0.387485 -0.14454,-0.387485 -0.0797,0 -0.19421,-0.156943 -0.25478,-0.348735 -0.0606,-0.191794 -0.2746,-0.564561 -0.47544,-0.828346 -0.20088,-0.263786 -0.36517,-0.597274 -0.36517,-0.741081 0,-0.277288 -0.40732,-0.516082 -0.58211,-0.34128 -0.15975,0.159844 -0.18186,2.558651 -0.0309,3.368854 0.0858,0.460313 0.0749,0.909654 -0.0302,1.239947 -0.16902,0.531613 -0.44517,2.853831 -0.50444,4.24316 -0.019,0.429147 -0.11197,1.091741 -0.20825,1.472437 -0.32094,1.270254 -0.80677,3.620949 -1.056,5.109476 -0.1355,0.80984 -0.38073,1.703101 -0.54474,1.985025 -0.16403,0.281924 -0.29825,0.706321 -0.29825,0.943108 0,0.236795 -0.12931,0.843088 -0.2873,1.347333 -0.15809,0.504246 -0.37007,1.213235 -0.47122,1.575533 -0.10127,0.362295 -0.24257,0.658719 -0.31427,0.658719 -0.0715,0 -0.20943,0.313865 -0.30599,0.697471 -0.0965,0.383609 -0.24438,0.697469 -0.32839,0.697469 -0.0839,0 -0.15286,0.109138 -0.15286,0.242507 0,0.572398 -1.34367,3.06658 -1.87334,3.477333 -0.0549,0.04263 -0.29509,0.495981 -0.53362,1.007458 -0.23853,0.511477 -0.5269,0.985735 -0.6408,1.053906 -0.11386,0.06818 -0.20705,0.193054 -0.20705,0.277515 0,0.177744 -0.64121,1.123472 -0.81372,1.200136 -0.0639,0.02843 -0.11625,0.118504 -0.11625,0.200232 0,0.0817 -0.14715,0.302573 -0.32679,0.490811 -0.17972,0.188251 -0.39479,0.53121 -0.47792,0.762154 -0.0832,0.230947 -0.26744,0.456801 -0.40954,0.501909 -0.14217,0.0451 -0.34991,0.288759 -0.46176,0.541454 -0.11197,0.252696 -0.33492,0.501196 -0.4957,0.552225 -0.16069,0.05104 -0.33545,0.228713 -0.38819,0.394837 -0.0528,0.166144 -0.16094,0.302059 -0.24042,0.302059 -0.0797,0 -0.14453,0.09069 -0.14453,0.201517 0,0.232397 -3.34151,3.673321 -3.5672,3.673321 -0.0825,0 -0.23701,0.139496 -0.34361,0.309987 -0.1065,0.170494 -0.2821,0.309984 -0.39029,0.309984 -0.10816,0 -0.31617,0.139496 -0.46215,0.309987 -0.14597,0.170494 -0.32911,0.309987 -0.40693,0.309987 -0.0779,0 -0.30315,0.174369 -0.50064,0.387486 -0.19755,0.213118 -0.43218,0.387477 -0.52149,0.387477 -0.0894,0 -0.29144,0.122071 -0.44911,0.271245 -0.15761,0.149171 -0.72182,0.504042 -1.25358,0.788586 -0.96087,0.514146 -1.14026,0.642281 -2.04246,1.458819 -0.259,0.234417 -0.51788,0.42906 -0.57526,0.432523 -0.0573,0.0038 -0.34579,0.212714 -0.64092,0.464979 -0.29515,0.252282 -0.62804,0.458684 -0.73972,0.458684 -0.11173,0 -0.53568,0.348738 -0.94224,0.774966 -0.40655,0.426238 -0.82142,0.774964 -0.92195,0.774964 -0.18756,0 -1.74179,1.519056 -1.74179,1.702294 0,0.05605 -0.20919,0.336167 -0.46496,0.622613 -0.25573,0.286442 -0.46498,0.580347 -0.46498,0.653104 0,0.07274 -0.2092,0.336845 -0.46499,0.586837 -0.25573,0.249994 -0.46498,0.526633 -0.46498,0.614757 0,0.08807 -0.0696,0.1602 -0.15499,0.1602 -0.0854,0 -0.155,0.104621 -0.155,0.232491 0,0.127871 -0.0528,0.232493 -0.11696,0.232493 -0.0644,0 -0.28282,0.435919 -0.48545,0.968709 -0.20254,0.532791 -0.5185,1.108211 -0.70192,1.278704 -0.34218,0.318056 -1.33048,1.800719 -1.33048,1.996005 0,0.144606 -0.6655,1.089654 -0.8137,1.155525 -0.0639,0.02843 -0.11624,0.14028 -0.11624,0.248607 0,0.108307 -0.17425,0.385081 -0.38747,0.615034 -0.21323,0.229972 -0.38748,0.584762 -0.38748,0.788449 0,0.203704 -0.0616,0.408487 -0.13717,0.455095 -0.0753,0.04667 -0.18423,0.399456 -0.24197,0.784107 -0.0578,0.384656 -0.15643,0.699386 -0.21919,0.699386 -0.13787,0 -0.48661,0.924526 -0.48661,1.289702 0,0.143129 -0.0647,0.260238 -0.14383,0.260238 -0.18256,0 -1.00238,1.7212 -1.58562,3.32863 -0.24673,0.67993 -0.51653,1.30417 -0.59953,1.38719 -0.0829,0.0831 -0.15096,0.30977 -0.15096,0.50387 0,0.2054 -0.16189,0.45903 -0.38748,0.6068 -0.21324,0.13963 -0.38749,0.33654 -0.38749,0.43756 0,0.10102 -0.0794,0.26306 -0.17639,0.36012 -0.17853,0.17843 -1.0635,2.17615 -1.0635,2.40046 0,0.0668 -0.17449,0.48294 -0.38748,0.9247 -0.45847,0.95035 -0.48112,1.37132 -0.11625,2.15952 0.32544,0.703 0.92947,0.91851 1.50934,0.53854 0.20516,-0.13443 0.48224,-0.20254 0.61566,-0.15136 0.13335,0.0512 0.33002,0.0207 0.43691,-0.0682 0.41822,-0.34709 9.2274,-0.54492 10.01236,-0.22486 0.48747,0.19879 1.75223,1.39177 2.23483,2.10805 0.3246,0.48179 0.53746,0.51851 0.82322,0.14207 z m -29.44063,-3.7586 c 0.56402,-0.25573 1.13791,-0.46616 1.27528,-0.46762 0.1374,-8.7e-4 0.59854,-0.2095 1.02477,-0.46233 0.42624,-0.25284 0.89703,-0.46088 1.04622,-0.46234 0.14905,-8.6e-4 0.27124,-0.0723 0.27124,-0.15763 0,-0.0853 0.0927,-0.155 0.20634,-0.155 0.11339,0 0.94278,-0.48821 1.84291,-1.08495 0.90014,-0.59672 1.714,-1.08495 1.80861,-1.08495 0.0947,0 0.17212,-0.0554 0.17212,-0.12314 0,-0.0678 0.33639,-0.37969 0.74754,-0.69322 0.72279,-0.55121 1.3891,-1.12078 2.19733,-1.87829 0.21324,-0.19976 0.54443,-0.41221 0.73623,-0.47213 0.19183,-0.0599 0.34873,-0.16334 0.34873,-0.22981 0,-0.1924 0.56235,-0.78823 0.74395,-0.78823 0.0908,0 0.2061,-0.12925 0.25629,-0.28724 0.0502,-0.15799 0.30177,-0.47488 0.55917,-0.70423 0.25741,-0.22936 0.71145,-0.79757 1.00901,-1.26269 0.29753,-0.465142 0.60857,-0.845709 0.69119,-0.845709 0.0828,0 0.15025,-0.08914 0.15025,-0.198051 0,-0.108916 0.50566,-0.764363 1.12371,-1.456527 0.61803,-0.692164 1.40268,-1.7202 1.74366,-2.284532 1.60165,-2.650702 1.91321,-3.127574 2.67483,-4.093972 0.44815,-0.568709 0.89801,-1.313014 0.99964,-1.653999 0.10151,-0.340988 0.27128,-0.673409 0.37703,-0.738718 0.18922,-0.116936 1.14077,-1.451845 1.14077,-1.600495 0,-0.08886 0.1909,-0.323109 0.90908,-1.115264 0.28686,-0.316446 0.72611,-0.871779 0.97613,-1.234076 0.25003,-0.362286 0.52099,-0.658713 0.60213,-0.658713 0.081,0 0.14762,-0.08719 0.14786,-0.193743 1.4e-4,-0.10657 0.314,-0.391958 0.69748,-0.634211 0.38343,-0.242253 0.69718,-0.493127 0.69718,-0.557505 0,-0.294894 1.51465,-1.559416 1.86787,-1.559416 0.16951,0 0.64197,-0.360698 1.7384,-1.326953 0.23581,-0.207888 0.48003,-0.378301 0.54248,-0.378698 0.0625,-4.57e-4 0.33647,-0.209623 0.6089,-0.464979 0.2724,-0.255337 0.54191,-0.464262 0.59887,-0.464262 0.15594,0 2.42645,-1.426365 2.77112,-1.740793 0.16521,-0.150764 0.35388,-0.274117 0.41917,-0.274117 0.0653,0 0.29309,-0.174369 0.50621,-0.387487 0.213,-0.213117 0.49527,-0.387477 0.62701,-0.387477 0.1317,0 0.23953,-0.104621 0.23953,-0.232491 0,-0.127871 0.1046,-0.232492 0.23249,-0.232492 0.1279,0 0.23249,-0.104621 0.23249,-0.232492 0,-0.12787 0.0604,-0.232492 0.13456,-0.232492 0.18352,0 1.88047,-1.668852 1.88047,-1.849375 0,-0.07957 0.13359,-0.187063 0.29704,-0.238924 0.16331,-0.05185 0.36461,-0.283229 0.44719,-0.514174 0.0825,-0.230946 0.58168,-0.873159 1.10909,-1.427144 0.52741,-0.553983 1.10826,-1.248911 1.29084,-1.54428 0.18257,-0.29537 0.45649,-0.661634 0.60878,-0.813928 0.15238,-0.152285 0.27696,-0.3292 0.27708,-0.393135 0,-0.100248 0.24353,-0.424139 0.92674,-1.233405 0.087,-0.102958 0.15809,-0.288951 0.15809,-0.413315 0,-0.124376 0.0523,-0.249363 0.11624,-0.27778 0.18352,-0.08154 0.81462,-1.417019 0.81412,-1.722708 -0.002,-0.550747 -0.45761,-0.463605 -1.15613,0.220558 -0.90584,0.887249 -1.12369,1.062994 -1.31762,1.062994 -0.0889,0 -0.16165,0.07072 -0.16165,0.157182 0,0.197476 -0.95041,1.072101 -1.17164,1.078225 -0.0903,0.0026 -0.51859,0.346158 -0.95179,0.763693 -0.43315,0.417535 -0.93469,0.805843 -1.11448,0.862908 -0.17972,0.05705 -0.32692,0.1641 -0.32692,0.237863 0,0.07376 -0.1569,0.181928 -0.34876,0.240377 -0.19184,0.05845 -0.45868,0.202491 -0.59306,0.320113 -0.31055,0.271781 -1.71587,0.987936 -1.94029,0.988792 -0.0932,3.09e-4 -0.28972,0.133243 -0.43637,0.295289 -0.14667,0.162055 -0.49096,0.336718 -0.7651,0.388149 -0.27417,0.05144 -0.61765,0.232706 -0.76333,0.402834 -0.14572,0.170114 -0.35698,0.309319 -0.46964,0.309319 -0.11268,0 -0.33997,0.122973 -0.50523,0.273264 -0.16522,0.150287 -0.5969,0.405003 -0.95918,0.566015 -0.36229,0.161008 -0.65874,0.351907 -0.65874,0.424205 0,0.0723 -0.10293,0.13146 -0.22868,0.13146 -0.12575,0 -0.45712,0.140351 -0.73622,0.311884 -0.27911,0.171539 -0.76587,0.382618 -1.08174,0.469072 -0.31581,0.08644 -0.66752,0.242533 -0.78151,0.346837 -0.32662,0.298858 -0.75103,0.548183 -1.62786,0.956301 -0.44754,0.208316 -0.8137,0.441284 -0.8137,0.517727 0,0.07642 -0.29409,0.227096 -0.65354,0.334799 -0.35946,0.107687 -0.7334,0.305008 -0.83101,0.438499 -0.12884,0.176341 -0.5084,0.255327 -1.38801,0.288907 -0.66579,0.02542 -1.25087,0.104313 -1.30015,0.175344 -0.13027,0.187586 -1.17893,0.655444 -1.46922,0.655444 -0.13621,0 -0.24782,0.05859 -0.24782,0.130105 0,0.197713 -0.73397,0.489859 -1.23066,0.489859 -0.24911,0 -0.47994,0.101198 -0.53031,0.232492 -0.049,0.127871 -0.21347,0.23292 -0.36533,0.233443 -0.44934,0.0019 -2.0451,0.877801 -2.7503,1.510229 -0.11886,0.106571 -0.286,0.193744 -0.37155,0.193744 -0.0856,0 -0.30071,0.203917 -0.47817,0.453126 -0.17733,0.249225 -0.52362,0.497268 -0.76924,0.55122 -0.48616,0.106784 -1.83428,1.054414 -2.38306,1.675125 -1.69205,1.913867 -2.06292,2.362522 -2.15966,2.61265 -0.0611,0.158204 -0.17044,0.287636 -0.24276,0.287636 -0.0722,0 -0.36638,0.453349 -0.65345,1.00746 -0.28707,0.554091 -0.57888,1.00745 -0.64843,1.00745 -0.0696,0 -0.12647,0.09614 -0.12647,0.213522 0,0.117434 -0.1141,0.30824 -0.25365,0.424027 -0.13954,0.115794 -0.38398,0.490498 -0.54331,0.832696 -0.15927,0.342191 -0.42364,0.831408 -0.58746,1.087144 -0.16379,0.255746 -0.30295,0.656783 -0.30918,0.891216 -0.01,0.357178 0.0533,0.426229 0.38635,0.426229 0.57244,0 0.90025,-0.213926 1.97675,-1.289916 0.52686,-0.526623 1.16719,-1.091412 1.42293,-1.255086 0.25572,-0.163671 0.55054,-0.417256 0.65512,-0.563509 0.10459,-0.146271 0.3571,-0.307833 0.56123,-0.359077 0.2042,-0.05121 0.55803,-0.338182 0.78647,-0.637674 0.22846,-0.299491 0.55283,-0.544538 0.7209,-0.544538 0.16807,0 0.60041,-0.268791 0.96082,-0.597294 0.36042,-0.328513 0.83614,-0.640962 1.05722,-0.694331 0.22108,-0.05335 0.58113,-0.276212 0.80011,-0.495203 0.38045,-0.380426 1.66723,-0.762373 1.46476,-0.434755 -0.0516,0.08341 -0.6378,0.563919 -1.30281,1.067763 -2.29827,1.741386 -3.64752,2.964219 -4.77906,4.331183 -0.42338,0.51148 -0.80567,0.964837 -0.84952,1.007458 -0.0438,0.04258 -0.49722,0.562338 -1.00746,1.154926 -0.51023,0.592581 -1.03233,1.188818 -1.16021,1.324963 -1.82114,1.939087 -2.99096,3.502522 -4.87082,6.509725 -0.18661,0.29836 -0.66047,1.0307 -1.05318,1.62743 -0.39273,0.59672 -0.89643,1.43041 -1.11934,1.85264 -0.22298,0.42224 -0.49044,0.87558 -0.59454,1.00746 -0.29808,0.3776 -0.61154,0.96192 -0.87691,1.63471 -0.13454,0.34099 -0.51467,1.09627 -0.84483,1.67843 -0.84142,1.48351 -0.83099,2.5712 0.0247,2.58151 0.10841,8.7e-4 0.65861,-0.20687 1.22263,-0.46262 z m -64.57956,-1.31163 c 0,-0.53199 -0.532877,-2.19482 -0.794109,-2.47795 -0.07464,-0.081 -0.135978,-0.27278 -0.135978,-0.42623 0,-0.15345 -0.06704,-0.27898 -0.148814,-0.27898 -0.08178,0 -0.235819,-0.29643 -0.342295,-0.65873 -0.106499,-0.3623 -0.421837,-1.05192 -0.700899,-1.5325 -0.279061,-0.48058 -0.580468,-1.06603 -0.669804,-1.30101 -0.08939,-0.23497 -0.369586,-0.68878 -0.62276,-1.00844 -0.253198,-0.31967 -0.460348,-0.62719 -0.460348,-0.68338 0,-0.82354 -6.690179,-7.658998 -9.908766,-10.123939 -0.474801,-0.363615 -1.037631,-0.810185 -1.250749,-0.992368 -0.420577,-0.35953 -2.581397,-1.786876 -3.332359,-2.201222 -0.554818,-0.306114 -0.768222,-0.436336 -2.12616,-1.297357 -0.572671,-0.363092 -1.075239,-0.660177 -1.116816,-0.660177 -0.0416,0 -0.33255,-0.174369 -0.646604,-0.387487 l -0.570983,-0.387479 h 0.796581 c 0.438146,0 0.796606,0.06887 0.796606,0.153045 0,0.214258 1.172705,0.93191 1.522822,0.93191 0.159035,0 0.414064,0.138116 0.566847,0.306949 0.152855,0.16883 0.529763,0.349717 0.837732,0.401968 0.307968,0.05227 0.744758,0.224909 0.970642,0.383657 0.225835,0.158751 0.60947,0.335982 0.852446,0.393821 0.242999,0.05791 0.546403,0.191818 0.674274,0.297745 0.127894,0.105904 0.546355,0.34414 0.929967,0.529386 0.383612,0.185258 1.012814,0.525148 1.398232,0.755314 0.385394,0.230186 0.935197,0.557999 1.221771,0.728494 0.286574,0.170494 0.820354,0.554111 1.186183,0.852465 0.365855,0.298355 0.920221,0.716843 1.231946,0.929958 0.311748,0.213118 1.031926,0.791271 1.600414,1.284796 0.761946,0.661477 1.135454,0.885533 1.421101,0.852477 0.338872,-0.0393 0.382113,-0.11123 0.344744,-0.573715 -0.04303,-0.531615 -0.760615,-2.028547 -0.97252,-2.028547 -0.06252,0 -0.225123,-0.278976 -0.361599,-0.619961 -0.136452,-0.340988 -0.316953,-0.619983 -0.401155,-0.619983 -0.08416,0 -0.294918,-0.277956 -0.46824,-0.617701 -0.173299,-0.339735 -0.48859,-0.731374 -0.700614,-0.870295 -0.212048,-0.138924 -0.385489,-0.354179 -0.385489,-0.478346 0,-0.210764 -0.868993,-1.217974 -1.933201,-2.240653 -0.479509,-0.460807 -0.838873,-0.553597 -1.10669,-0.285775 -0.362787,0.362792 -1.519327,-0.331576 -2.146461,-1.288675 -0.150716,-0.230044 -0.370656,-0.418277 -0.488732,-0.418277 -0.118148,0 -0.214663,-0.06131 -0.214663,-0.136309 0,-0.205178 -1.212928,-1.413629 -1.41889,-1.413629 -0.09865,0 -0.407882,-0.174369 -0.6873,-0.387486 -0.279395,-0.213118 -0.574954,-0.387479 -0.656754,-0.387479 -0.08178,0 -0.188989,-0.104622 -0.237984,-0.232493 -0.04897,-0.127871 -0.227262,-0.232492 -0.396068,-0.232492 -0.168783,0 -0.496054,-0.175343 -0.727286,-0.389649 -0.231303,-0.214307 -0.686897,-0.432242 -1.012528,-0.48432 -0.325655,-0.05209 -0.671683,-0.190582 -0.768982,-0.307823 -0.09723,-0.117221 -0.377598,-0.213142 -0.622903,-0.213142 -0.245305,0 -0.44599,-0.05577 -0.44599,-0.123949 0,-0.06818 -0.523106,-0.254212 -1.162459,-0.413424 -0.639352,-0.159202 -1.162459,-0.347544 -1.162459,-0.418519 0,-0.07101 -0.106737,-0.129059 -0.237246,-0.129059 -0.130509,0 -0.274878,-0.09777 -0.320735,-0.217253 -0.04588,-0.119479 -0.322636,-0.262138 -0.615104,-0.317009 -0.292446,-0.05489 -0.531737,-0.157276 -0.531737,-0.227571 0,-0.07032 -0.312532,-0.215328 -0.694528,-0.322287 -0.381994,-0.106951 -0.770408,-0.2859 -0.863167,-0.397663 -0.09271,-0.111777 -0.37308,-0.24811 -0.622926,-0.302981 -0.249846,-0.05489 -0.454524,-0.146555 -0.454857,-0.203704 -3.09e-4,-0.05713 -0.331622,-0.23727 -0.736201,-0.400233 -0.404625,-0.162958 -0.840274,-0.386712 -0.968145,-0.497202 -1.24735,-1.07785 -1.540722,-1.290694 -1.905244,-1.38218 -0.230829,-0.05791 -0.41965,-0.1675 -0.41965,-0.243514 0,-0.07604 -0.104599,-0.138187 -0.232493,-0.138187 -0.127894,0 -0.232492,-0.06975 -0.232492,-0.154995 0,-0.08525 -0.0687,-0.154994 -0.152617,-0.154994 -0.251628,0 -1.752651,-0.964162 -2.222888,-1.427872 -0.241003,-0.237625 -0.490064,-0.432049 -0.553488,-0.432049 -0.06347,0 -0.617768,-0.470791 -1.231874,-1.046206 -0.614107,-0.57541 -1.341488,-1.241241 -1.616437,-1.479616 -1.514977,-1.313556 -1.750012,-1.503773 -1.858128,-1.503885 -0.06513,-6.6e-5 -0.448676,-0.309887 -0.85247,-0.68849 -1.360268,-1.27546 -1.972829,-1.79186 -2.220512,-1.871959 -0.1355,-0.04383 -0.339134,-0.252905 -0.452432,-0.464608 -0.113392,-0.211714 -0.283317,-0.384916 -0.377834,-0.384916 -0.09462,0 -0.291305,-0.139495 -0.43729,-0.309987 -0.372747,-0.435354 -0.733419,-0.397242 -0.733419,0.0775 0,0.213118 0.06966,0.387485 0.154995,0.387485 0.0851,0 0.154994,0.111515 0.154994,0.247812 0,0.688815 1.324325,3.06964 2.20865,3.970643 0.149288,0.151999 0.27124,0.335211 0.27124,0.40715 0,0.07194 0.337185,0.482478 0.749299,0.912307 0.412114,0.42983 1.051087,1.225369 1.419912,1.767868 0.832098,1.223849 1.675059,2.057724 2.525247,2.498045 0.359031,0.185945 0.87812,0.584489 1.153521,0.885639 0.569367,0.622638 0.48229,0.536504 1.530928,1.514273 1.445419,1.347749 1.736414,1.59067 1.905577,1.59067 0.09224,0 0.354135,0.209243 0.582015,0.464979 0.227974,0.255735 0.507393,0.464979 0.621167,0.464979 0.113868,0 0.206818,0.06975 0.206818,0.154995 0,0.08527 0.07559,0.154994 0.167831,0.154994 0.09224,0 0.518328,0.348736 0.946798,0.774964 0.42847,0.426231 0.8761,0.774966 0.994699,0.774966 0.118623,0 0.215614,0.07498 0.215614,0.166714 0,0.09167 0.470807,0.63433 1.046213,1.20587 0.575406,0.57154 1.245733,1.298619 1.489588,1.615714 0.243879,0.317106 0.511245,0.576556 0.594162,0.576556 0.183759,0 2.914778,2.779456 2.914778,2.966596 0,0.07324 0.06989,0.133266 0.154994,0.133266 0.08535,0 0.154995,0.104622 0.154995,0.232492 0,0.12787 0.07155,0.232492 0.158797,0.232492 0.08724,0 0.22655,0.156944 0.30961,0.348747 0.237484,0.549095 0.735225,1.270866 1.313959,1.905117 0.379903,0.416324 0.65402,0.822543 0.836709,1.239866 0.07608,0.173988 0.250345,0.409215 0.387106,0.522703 0.136691,0.113488 0.248633,0.266103 0.248633,0.339124 0,0.07305 0.458851,0.705757 1.019661,1.406071 0.560832,0.700317 1.16322,1.556189 1.338659,1.901917 0.175438,0.345741 0.526434,0.931413 0.779964,1.30151 0.511363,0.746444 4.950936,5.247502 6.37023,6.458432 0.909738,0.77617 2.460634,1.78079 2.749157,1.78079 0.157372,0 0.96679,0.53569 1.356321,0.89764 0.34087,0.31674 1.875506,1.27226 2.043337,1.27226 0.08368,0 0.151905,0.0697 0.151905,0.15499 0,0.0853 0.135501,0.15499 0.300836,0.15499 0.165455,0 0.348168,0.0766 0.406005,0.17014 0.101983,0.1651 2.143894,1.14614 3.787978,1.81998 0.656872,0.26923 0.774972,0.21486 0.774972,-0.35687 z m 33.67542,-0.0833 c 0.16546,-0.29836 0.3632,-0.56572 0.43945,-0.59414 0.0763,-0.0283 0.1386,-0.14477 0.1386,-0.25859 0,-0.11381 0.28689,-0.50555 0.63757,-0.87053 0.35066,-0.36498 0.79577,-0.9112 0.98913,-1.21384 0.4245,-0.66439 0.92727,-1.24771 1.07543,-1.24771 0.23154,0 1.16544,-0.81794 1.25455,-1.09872 0.0516,-0.16294 0.19398,-0.29623 0.31606,-0.29623 0.12219,0 0.22203,-0.0715 0.22203,-0.15908 0,-0.26794 1.36911,-1.54552 1.6621,-1.551 0.15143,-0.003 0.5543,-0.20769 0.89528,-0.45524 1.22801,-0.89147 2.09243,-1.39323 2.09243,-1.21453 0,0.18461 -0.46151,1.25701 -0.86445,2.00882 -0.12123,0.22627 -0.22061,0.52024 -0.22061,0.65326 0,0.288 0.46266,0.56277 0.94759,0.56277 0.42388,0 2.15057,-0.53948 3.0217,-0.9441 0.35033,-0.16273 0.7286,-0.29585 0.84057,-0.29585 0.17948,0 2.34555,-1.03359 3.40478,-1.62473 0.21324,-0.11894 0.70026,-0.3674 1.08255,-0.55214 0.38226,-0.18476 1.20313,-0.677249 1.82416,-1.094437 0.62102,-0.417178 1.16343,-0.758523 1.20536,-0.758523 0.0715,0 0.88744,-0.559186 2.57807,-1.766822 3.07279,-2.194956 7.8268,-6.611855 7.98893,-7.422446 0.0675,-0.337775 0.46015,-0.847007 1.24306,-1.612318 0.85606,-0.836862 1.16586,-1.251479 1.22991,-1.646038 0.0471,-0.290082 0.22845,-0.624588 0.403,-0.743354 0.1745,-0.118765 0.42672,-0.337988 0.56024,-0.48717 0.1336,-0.149194 0.33196,-0.271236 0.44086,-0.271236 0.10888,0 0.32397,-0.12207 0.47787,-0.271235 0.1538,-0.149194 0.48521,-0.44562 0.73622,-0.658722 0.48548,-0.412155 0.84389,-0.954363 0.84389,-1.276603 0,-0.152236 -0.87109,-0.198996 -3.91359,-0.210003 -4.46696,-0.01616 -5.68022,-0.119265 -6.23849,-0.530143 -0.0854,-0.06276 -0.49106,-0.162744 -0.90186,-0.222223 -0.41537,-0.06014 -1.13767,-0.343809 -1.62742,-0.639119 -0.48431,-0.292041 -0.96277,-0.53117 -1.06323,-0.531384 -0.10056,-1.55e-4 -0.29119,-0.108925 -0.42384,-0.241554 -0.20658,-0.206556 -0.8476,-0.240798 -4.46713,-0.238644 -2.32427,9.67e-4 -4.74906,0.07148 -5.38841,0.155756 -1.76605,0.232824 -3.44908,0.644939 -3.82007,0.935409 -0.18305,0.143274 -1.21176,0.698792 -2.28615,1.234453 -1.0744,0.535663 -1.95343,1.032855 -1.95343,1.104875 0,0.07199 -0.34873,0.494662 -0.77497,0.939214 -0.42621,0.444549 -0.77497,0.902011 -0.77497,1.016566 0,0.114582 -0.0684,0.208293 -0.15214,0.208293 -0.0837,0 -0.19993,0.191104 -0.25864,0.424696 -0.11649,0.463698 -0.40237,0.815248 -0.66322,0.815248 -0.0913,0 -0.16617,0.05227 -0.16617,0.116245 -1.2e-4,0.06392 -0.15714,0.302188 -0.34874,0.529455 -0.1916,0.227262 -0.47427,0.563624 -0.62789,0.747466 -0.36101,0.431959 -0.57313,0.998504 -0.57313,1.530802 0,0.233134 -0.068,0.491837 -0.15095,0.574868 -0.15095,0.150882 -0.18067,0.587351 -0.17877,2.618721 0.002,1.012096 -0.14524,1.477113 -0.46429,1.477113 -0.0749,0 -0.13598,-0.137046 -0.13598,-0.304524 0,-0.367767 -0.43583,-0.625425 -1.05796,-0.625425 -0.37155,0 -0.47798,-0.08071 -0.56209,-0.426237 -0.057,-0.234417 -0.27386,-0.686291 -0.48179,-1.004132 -0.20801,-0.317843 -0.37805,-0.718892 -0.37805,-0.89121 0,-0.172323 -0.0696,-0.313311 -0.15499,-0.313311 -0.0854,0 -0.155,-0.130082 -0.155,-0.289063 0,-0.159012 -0.2788,-0.69953 -0.6196,-1.201203 -0.34077,-0.501674 -0.61976,-0.999314 -0.61995,-1.105875 0,-0.106547 -0.0939,-0.193743 -0.20801,-0.193743 -0.1141,0 -0.34081,-0.278189 -0.50373,-0.618188 -0.16284,-0.340006 -0.3485,-0.619002 -0.41242,-0.619981 -0.0639,-8.72e-4 -0.11625,-0.07731 -0.11625,-0.169686 0,-0.09235 -0.24409,-0.404985 -0.54248,-0.694728 -0.33683,-0.327116 -0.54248,-0.674746 -0.54248,-0.917049 0,-0.214616 -0.0523,-0.390648 -0.11625,-0.391174 -0.0639,-4.53e-4 -0.49985,-0.355389 -0.96871,-0.788601 -0.79566,-0.735157 -1.846054,-1.380348 -2.247305,-1.380348 -0.09581,0 -0.332145,-0.147221 -0.525294,-0.327136 -0.616792,-0.574626 -2.654044,-1.532783 -3.259069,-1.532783 -0.310227,0 -0.721106,-0.109993 -0.913042,-0.244423 -0.303571,-0.212641 -0.958138,-0.237174 -5.033021,-0.188655 -3.985073,0.04743 -4.75056,0.09369 -5.129726,0.309732 -0.347502,0.198022 -0.526602,0.217088 -0.81308,0.08653 -0.290329,-0.132269 -0.425474,-0.114867 -0.644131,0.08304 -0.152142,0.137736 -0.797628,0.329687 -1.434318,0.426577 -0.636666,0.0969 -1.223863,0.239381 -1.304855,0.31665 -0.08106,0.07731 -0.333761,0.140494 -0.561736,0.140494 -0.227976,0 -0.719679,0.112205 -1.092688,0.249363 -0.373033,0.137166 -1.096706,0.337465 -1.608188,0.445144 -0.99622,0.209718 -2.425974,0.706038 -2.563972,0.890041 -0.04636,0.06169 -1.03454,0.07964 -2.196191,0.03997 -2.317288,-0.07916 -3.531976,0.02493 -3.531976,0.302471 0,0.09899 0.284244,0.455676 0.631675,0.792647 0.347407,0.33697 0.730828,0.847392 0.851995,1.134275 0.245281,0.580552 1.327295,2.000262 2.391171,3.137406 0.383588,0.410042 0.907385,0.975073 1.163957,1.255649 1.153474,1.26138 4.037466,3.847065 6.296155,5.644931 1.407314,1.12019 1.460991,1.159233 2.691938,1.957644 0.426235,0.276453 1.317193,0.907582 1.979889,1.402507 0.662721,0.494916 1.534566,1.053609 1.937433,1.241548 0.402867,0.187948 1.048638,0.56049 1.435054,0.8279 0.717184,0.4963 2.615343,1.44757 2.88851,1.44757 0.0832,0 0.532735,0.20663 0.999025,0.45919 0.466292,0.25256 1.507441,0.677 2.313675,0.94319 0.806234,0.2662 1.685637,0.58266 1.954263,0.70327 0.642419,0.28839 1.668593,0.28244 1.912234,-0.0112 0.222269,-0.26797 0.144059,-0.95094 -0.220368,-1.9206 -0.140256,-0.37317 -0.219894,-0.71359 -0.176866,-0.75649 0.04279,-0.0429 0.307185,0.029 0.587292,0.1597 0.280084,0.13074 0.833833,0.38851 1.230567,0.57283 0.39671,0.1843 0.843436,0.47007 0.992726,0.63503 0.149289,0.16496 0.402297,0.29994 0.562257,0.29994 0.15999,0 0.32834,0.0977 0.3742,0.21721 0.0459,0.11946 0.20064,0.26007 0.34386,0.31246 0.47554,0.17387 0.90297,0.47608 1.35925,0.96104 0.24816,0.26378 0.67789,0.5764 0.95493,0.69473 0.27706,0.11831 0.50373,0.27075 0.50373,0.33876 0,0.068 0.12837,0.26139 0.28519,0.42975 0.1569,0.16838 0.38355,0.49244 0.50374,0.72016 0.12028,0.22771 0.35801,0.56627 0.5285,0.75235 0.44485,0.48546 1.00746,1.17136 1.00746,1.22816 0,0.17799 1.20475,1.27898 1.38174,1.26272 0.12053,-0.0112 0.35464,-0.26426 0.52006,-0.56262 z M 84.185473,227.88904 c -1.095184,-0.54782 -1.999811,-1.11184 -2.231137,-1.39107 -0.21395,-0.25831 -0.46981,-0.46965 -0.568489,-0.46965 -0.157371,0 -1.790543,-1.4892 -1.790543,-1.63267 0,-0.0302 -0.243784,-0.32042 -0.541745,-0.64484 -0.297936,-0.32445 -0.542314,-0.6945 -0.543051,-0.82236 -5.71e-4,-0.12789 -0.12932,-0.44237 -0.285742,-0.69889 -0.468573,-0.76835 -0.914349,-2.25456 -1.022346,-3.40843 -0.216089,-2.30757 -0.213712,-3.57948 0.0072,-4.54032 0.123853,-0.53655 0.191842,-1.02939 0.150954,-1.09521 -0.124567,-0.20135 0.381519,-2.37363 0.697,-2.99199 0.163314,-0.32024 0.297033,-0.68963 0.297033,-0.8209 0,-0.13123 0.06205,-0.23868 0.137641,-0.23868 0.07583,0 0.186136,-0.25783 0.245233,-0.57298 0.05895,-0.31514 0.241264,-0.74302 0.404746,-0.95086 0.163552,-0.20777 0.297223,-0.50214 0.297223,-0.65404 0,-0.15191 0.0523,-0.29942 0.116246,-0.32785 0.286384,-0.12718 1.588694,-3.27761 1.588694,-3.84308 0,-0.0955 0.134789,-0.31845 0.299387,-0.4952 0.164741,-0.17686 0.345125,-0.5923 0.401108,-0.9235 0.05587,-0.33116 0.153568,-0.60212 0.216802,-0.60212 0.170685,0 1.034851,-2.84261 1.389983,-4.5723 0.2275,-1.10839 0.103884,-7.97863 -0.16379,-9.09535 -0.116008,-0.4844 -0.262303,-0.93194 -0.324918,-0.99455 -0.06276,-0.0627 -0.113868,-0.24169 -0.113868,-0.398 0,-0.15628 -0.06656,-0.28414 -0.147864,-0.28414 -0.08131,0 -0.191128,-0.26155 -0.243641,-0.58121 -0.158085,-0.96032 -0.59787,-1.86846 -1.501165,-3.09987 -0.328294,-0.44755 -0.6578,-0.81371 -0.732231,-0.81371 -0.07441,0 -0.577901,-0.57041 -1.118814,-1.26755 -0.540912,-0.69714 -1.235487,-1.55154 -1.543479,-1.89866 -0.307992,-0.34712 -0.895664,-1.18911 -1.305948,-1.87109 -0.410284,-0.68197 -0.941569,-1.48527 -1.180645,-1.78511 -0.239101,-0.29986 -0.60303,-1.03219 -0.80873,-1.62744 -0.205629,-0.59524 -0.586554,-1.53561 -0.846289,-2.0897 -0.259735,-0.55411 -0.546047,-1.42595 -0.636238,-1.93742 -0.578615,-3.28103 -0.629369,-3.74506 -0.483836,-4.42248 0.08178,-0.38077 0.244972,-1.15773 0.36255,-1.72657 0.154281,-0.7468 0.350402,-1.18986 0.705296,-1.59407 0.270337,-0.3079 0.492393,-0.64456 0.493439,-0.74817 8.56e-4,-0.10357 0.239386,-0.34212 0.529645,-0.53008 l 0.527718,-0.34174 -0.08201,1.42669 c -0.04612,0.80311 -0.0072,1.79929 0.092,2.27916 0.09556,0.46885 0.243641,1.29527 0.328817,1.83646 0.09961,0.63223 0.348286,1.31394 0.695835,1.90697 0.297533,0.50763 0.540959,0.95775 0.540959,1.00024 0,0.0425 0.271265,0.6209 0.60284,1.28535 0.589811,1.18198 1.302619,2.22643 2.202848,3.22771 0.247041,0.27478 0.449176,0.54129 0.449176,0.5923 0,0.15266 0.430822,0.53552 0.602624,0.53552 0.278277,0 0.947297,0.83552 0.947297,1.18303 0,0.18357 0.104597,0.37387 0.232492,0.42296 0.127895,0.0491 0.232492,0.16061 0.232492,0.24789 0,0.17577 0.470974,0.76432 1.123711,1.40419 0.234393,0.22981 0.426235,0.46542 0.426235,0.52359 0,0.14223 0.667333,1.08724 0.813721,1.1523 0.06395,0.0283 0.116247,0.12007 0.116247,0.20367 0,0.0836 0.174487,0.53323 0.387485,0.99914 0.213237,0.46592 0.387487,0.90626 0.387487,0.97854 0,0.0722 0.115771,0.22714 0.257049,0.34415 0.141444,0.11699 0.369229,0.45683 0.506323,0.75519 0.283935,0.61791 0.745281,1.34387 1.110827,1.74796 0.137165,0.15152 0.375338,0.69207 0.529501,1.20119 0.154043,0.50913 0.330243,0.92568 0.391337,0.92568 0.0611,0 0.153807,0.21329 0.205867,0.47398 0.05206,0.26069 0.200399,0.57952 0.329364,0.70855 0.129083,0.12899 0.234631,0.39984 0.234631,0.60182 0,0.202 0.06966,0.41038 0.154995,0.46307 0.08535,0.0527 0.154994,0.23115 0.154994,0.39662 0,0.16547 0.06966,0.30084 0.154995,0.30084 0.08535,0 0.154994,0.16041 0.154994,0.35648 0,0.19607 0.05848,0.42275 0.129796,0.50372 0.167119,0.18951 0.709505,1.78337 0.946609,2.78215 0.405101,1.7064 0.839823,3.26335 0.953074,3.41326 0.06585,0.087 0.153568,0.50563 0.195169,0.92996 0.04137,0.42436 0.192317,1.36439 0.335069,2.08899 0.145961,0.74123 0.254386,1.99536 0.247801,2.86737 -0.0072,0.85247 0.05825,2.07762 0.143821,2.72258 0.225598,1.70133 0.267937,8.34351 0.0542,8.48196 -0.09343,0.0604 -0.249655,0.8772 -0.347264,1.81491 -0.0977,0.93769 -0.253673,2.22802 -0.346812,2.86738 -0.172111,1.18198 -0.814173,3.13936 -1.170518,3.56889 -0.107925,0.13004 -0.242072,0.54857 -0.298055,0.92995 -0.0561,0.3814 -0.305521,1.12166 -0.554462,1.6451 -0.248966,0.52342 -0.526626,1.36036 -0.617032,1.85991 -0.09033,0.49955 -0.262682,1.10572 -0.382874,1.34705 -0.120287,0.24131 -0.218466,0.5523 -0.218466,0.69103 0,0.37549 -1.495317,1.73825 -1.902321,1.73371 -0.189702,-0.002 -1.174013,-0.41851 -2.187158,-0.92531 z m 43.085757,0.44169 c -0.33245,-0.17544 -0.74666,-0.45124 -0.92043,-0.61313 -0.17378,-0.16189 -0.37014,-0.29434 -0.43636,-0.29434 -0.15856,0 -0.92163,-0.77629 -1.21608,-1.23716 -0.12789,-0.20016 -0.33711,-0.47664 -0.46497,-0.61437 -0.1279,-0.13788 -0.35412,-0.49239 -0.50279,-0.78815 -0.29844,-0.59368 -0.61344,-1.11579 -0.74525,-1.23517 -0.0471,-0.0425 -0.2073,-0.35649 -0.35621,-0.69746 -0.14881,-0.34098 -0.33706,-0.74109 -0.41817,-0.88912 -0.081,-0.1481 -0.14739,-0.37902 -0.14739,-0.51333 0,-0.36248 -0.48103,-1.76654 -0.63859,-1.86391 -0.0749,-0.0464 -0.13645,-0.28144 -0.13645,-0.52239 0,-0.24098 -0.1027,-0.63606 -0.22821,-0.87796 -0.12553,-0.2419 -0.27381,-0.75554 -0.32956,-1.14142 -0.0556,-0.38587 -0.1626,-0.77902 -0.23777,-0.87362 -0.0749,-0.0947 -0.16332,-0.4513 -0.19612,-0.79257 -0.0328,-0.34132 -0.13716,-0.76499 -0.23154,-0.9415 -0.0944,-0.17663 -0.17164,-0.49406 -0.17164,-0.70567 0,-0.21158 -0.0756,-0.41 -0.1683,-0.44086 -0.0925,-0.0309 -0.23369,-0.61206 -0.31346,-1.29159 -0.19636,-1.67039 -0.18495,-8.22082 0.0143,-8.59423 0.0862,-0.16118 0.16284,-0.69871 0.16997,-1.19451 0.0166,-1.0803 0.16711,-2.13162 0.57616,-4.00126 0.4324,-1.97597 0.83049,-4.33678 0.91475,-5.42476 0.0397,-0.51148 0.13599,-0.99622 0.21396,-1.07721 0.0779,-0.081 0.14192,-0.43642 0.14192,-0.78986 0,-0.62273 0.62996,-2.6055 1.14311,-3.5978 0.13859,-0.26783 0.25184,-0.59507 0.25184,-0.72716 0,-0.13213 0.0523,-0.24101 0.11625,-0.24198 0.0639,-0.002 0.23605,-0.26252 0.3827,-0.58122 0.14644,-0.3187 0.51269,-1.10852 0.81371,-1.75515 0.30102,-0.64666 0.54727,-1.24014 0.54727,-1.31892 0,-0.0788 0.12196,-0.22117 0.27125,-0.31649 0.14928,-0.0953 0.41007,-0.44338 0.57973,-0.77349 0.16973,-0.33012 0.35175,-0.63509 0.4046,-0.6777 0.0528,-0.0425 0.22013,-0.32162 0.37184,-0.61998 0.15167,-0.29836 0.32233,-0.57735 0.37922,-0.61999 0.0568,-0.0425 0.59644,-0.74008 1.19897,-1.54991 0.60253,-0.80985 1.40063,-1.76101 1.77357,-2.11371 0.96701,-0.9145 3.08577,-2.1738 3.88088,-2.30664 0.36961,-0.0618 0.84639,-0.23308 1.05953,-0.38075 0.213,-0.14765 0.5744,-0.31363 0.80286,-0.36883 0.22844,-0.0552 0.51991,-0.20484 0.64764,-0.33257 0.12766,-0.12775 0.32445,-0.2349 0.43711,-0.23814 0.28966,-0.008 1.24472,-1.2717 1.48418,-1.96333 0.11054,-0.31938 0.26901,-0.64865 0.35202,-0.73168 0.0832,-0.083 0.15096,-0.24458 0.15096,-0.35895 0,-0.11436 0.20277,-0.64172 0.45067,-1.17187 0.44368,-0.94898 0.45067,-1.00599 0.45043,-3.67463 -1.2e-4,-1.49089 0.005,-2.92659 0.0143,-3.19044 l 0.0142,-0.47972 0.62602,0.5955 c 0.73045,0.69486 1.58467,2.29812 1.92483,3.61264 0.3698,1.42913 0.32385,4.42561 -0.0885,5.76335 -0.41335,1.34128 -0.71564,1.93259 -1.79606,3.51307 -1.13859,1.66559 -1.53386,2.07749 -2.20311,2.29604 -1.25146,0.40861 -2.89569,1.49408 -4.20029,2.77283 -0.57046,0.55919 -1.99124,3.18758 -2.76358,5.11254 l -0.40419,1.00745 -0.005,4.8048 c -0.005,4.59895 0.0119,4.84359 0.34163,5.71025 0.18994,0.498 0.38732,1.26521 0.4387,1.70492 0.0944,0.80775 0.238,1.3703 0.81778,3.20187 0.17544,0.5541 0.3961,1.32133 0.49042,1.70494 0.0944,0.38361 0.33443,1.11594 0.53357,1.62742 0.19921,0.51149 0.43324,1.27868 0.52027,1.70492 0.087,0.42625 0.3041,1.18685 0.48229,1.69025 0.17829,0.50339 0.32404,1.23413 0.32404,1.62387 0,0.38974 0.10103,1.23333 0.22465,1.87463 0.29114,1.51103 0.5838,7.02458 0.41566,7.8307 -0.27279,1.30784 -0.55387,2.02622 -0.91003,2.32577 -0.24661,0.20753 -0.40058,0.54199 -0.46277,1.00561 -0.21133,1.57605 -2.62982,4.44003 -4.90477,5.80837 -0.5005,0.30103 -0.91898,0.54424 -0.92997,0.54049 -0.0119,-0.005 -0.29199,-0.15024 -0.62447,-0.32563 z m -20.2421,-30.42444 c -0.38361,-0.2845 -0.90672,-0.72581 -1.16244,-0.98071 -0.25576,-0.25489 -0.67948,-0.57199 -0.94163,-0.70469 -0.63417,-0.32094 -1.51686,-1.31633 -1.98296,-2.23612 -0.20801,-0.41032 -0.78983,-1.18013 -1.29311,-1.7107 -0.51878,-0.54687 -1.20822,-1.51837 -1.59191,-2.24316 -0.372245,-0.70317 -0.827077,-1.48772 -1.010741,-1.74347 -0.42721,-0.59487 -1.202112,-2.3773 -1.5344,-3.52941 -0.14192,-0.492 -0.604335,-1.42509 -1.027646,-2.07354 -0.423336,-0.64847 -0.770361,-1.29215 -0.771194,-1.43039 -5.94e-4,-0.13824 -0.17211,-0.61801 -0.380854,-1.06616 -0.208719,-0.44815 -0.457662,-1.25024 -0.553344,-1.78242 -0.09581,-0.53218 -0.447417,-1.62377 -0.781606,-2.42575 -0.334166,-0.80197 -0.607593,-1.63293 -0.607593,-1.84654 0,-0.21365 -0.10222,-0.98729 -0.227262,-1.71922 -0.236058,-1.38276 -0.65547,-4.21612 -0.862122,-5.82563 -0.197071,-1.5344 -0.60669,-3.0212 -1.151143,-4.17754 -0.282865,-0.60074 -0.600723,-1.31978 -0.70639,-1.59787 -0.105549,-0.2781 -0.426711,-0.76179 -0.713475,-1.07485 -0.514239,-0.56142 -0.517235,-0.57306 -0.219417,-0.85055 0.166168,-0.15474 0.481482,-0.28135 0.700828,-0.28135 0.583155,0 2.119574,0.54981 3.47057,1.24195 1.302906,0.66751 1.889413,1.32265 2.465722,2.75428 0.181381,0.45038 0.733585,1.437 1.22731,2.19252 0.4937,0.7555 1.307374,2.01141 1.808111,2.79091 0.500761,0.77951 2.226336,4.04743 3.834646,7.26209 1.60828,3.21464 3.01806,5.91455 3.13279,5.99979 0.11482,0.0853 0.29223,0.31193 0.39438,0.50373 0.32708,0.61399 1.10484,0.35051 1.10484,-0.37429 0,-0.19353 0.14049,-0.4262 0.31303,-0.51854 0.36124,-0.19335 1.02885,-1.49534 1.18005,-2.30144 0.0568,-0.30296 0.33673,-0.87569 0.62197,-1.2727 0.28522,-0.39703 0.66122,-1.0443 0.83552,-1.43837 0.17425,-0.39408 0.44877,-0.78706 0.60985,-0.87327 0.16118,-0.0862 0.65074,-0.80204 1.08811,-1.59073 1.00981,-1.82106 1.15356,-2.05357 2.94662,-4.76635 2.29483,-3.47184 2.48513,-3.72868 3.56271,-4.80874 0.82978,-0.83172 1.33631,-1.17012 2.85046,-1.90433 1.01274,-0.49111 1.86157,-0.87267 1.8863,-0.84794 0.0247,0.0248 -0.16403,0.53293 -0.41954,1.12935 -0.71782,1.67582 -1.32006,3.59 -1.68647,5.36027 -0.18375,0.88765 -0.42813,2.06723 -0.54314,2.62133 -0.11506,0.55411 -0.35504,1.63518 -0.53343,2.40239 -0.66885,2.87675 -0.74989,3.27913 -0.85821,4.26232 -0.18924,1.71712 -1.86489,5.95264 -2.42536,6.13053 -0.15571,0.0495 -0.32585,0.27702 -0.37801,0.50578 -0.052,0.22874 -0.32318,1.00874 -0.60231,1.73332 -0.2791,0.72461 -0.55732,1.56157 -0.61817,1.85993 -0.0609,0.29836 -0.27576,0.82965 -0.47749,1.18063 -0.20159,0.35099 -0.51997,1.04844 -0.7072,1.54993 -0.18732,0.50148 -0.46158,1.08615 -0.60963,1.29927 -0.14811,0.21312 -0.77855,1.2153 -1.40116,2.22709 -0.79892,1.29829 -1.30824,1.9562 -1.73094,2.23595 -0.32945,0.21799 -0.7077,0.61075 -0.84061,0.87279 -0.1329,0.26204 -0.46625,0.75539 -0.74072,1.09638 -0.2745,0.34101 -0.58214,0.77692 -0.68362,0.96872 -0.24319,0.45956 -0.4264,0.43272 -1.25859,-0.18448 z"
       style="fill:#000000;stroke-width:0.15499333" />
  </g>
</svg>
